if (_typeface_js && _typeface_js.loadFace) _typeface_js.loadFace({"glyphs":{"0":{"ha":1132,"x_min":0,"x_max":0,"o":"m 544 1054 b 883 892 683 1054 800 990 b 1013 514 965 792 1013 657 b 897 140 1013 375 975 240 b 544 -25 819 40 701 -25 b 201 132 399 -25 281 35 b 78 514 122 229 78 364 b 199 882 78 649 119 782 b 544 1054 276 982 394 1050 z m 544 224 b 710 322 629 224 681 265 b 749 514 739 378 749 451 b 700 700 749 568 733 640 b 544 806 667 760 617 806 b 392 706 476 806 425 764 b 340 514 357 647 340 574 b 379 322 340 451 350 378 b 544 224 408 265 461 224 z "},"1":{"ha":692,"x_min":0,"x_max":0,"o":"m 253 713 l 138 713 b 100 789 83 713 68 746 l 256 990 b 332 1028 275 1015 300 1028 l 453 1028 b 515 965 494 1028 515 1007 l 515 63 b 453 0 515 21 494 0 l 315 0 b 253 63 274 0 253 21 z "},"2":{"ha":953,"x_min":0,"x_max":0,"o":"m 700 450 b 592 354 672 422 633 389 b 461 250 550 319 501 282 l 774 250 b 836 188 815 250 836 229 l 836 63 b 774 0 836 21 815 0 l 119 0 b 57 63 78 0 57 21 l 57 131 b 78 208 57 165 65 190 b 119 251 89 226 104 239 l 221 339 b 456 543 300 406 383 478 b 542 624 492 575 521 603 b 571 669 553 635 564 651 b 571 728 576 688 578 710 b 451 793 558 760 519 793 b 354 756 414 793 382 778 b 281 676 325 733 301 704 b 193 661 256 643 226 638 l 79 740 b 107 889 8 786 72 843 b 160 946 124 911 142 931 b 451 1057 247 1019 344 1057 b 669 996 533 1057 607 1035 b 807 829 731 956 779 897 b 825 633 833 764 839 699 b 700 450 810 567 754 504 z "},"3":{"ha":979,"x_min":0,"x_max":0,"o":"m 700 515 b 818 401 750 504 793 458 b 831 208 843 344 851 271 b 724 50 814 153 782 94 b 463 -26 665 6 581 -26 b 221 38 356 -26 276 0 b 99 163 164 75 126 122 b 76 208 89 175 81 192 b 90 250 71 224 74 239 l 221 328 b 307 311 254 349 283 343 b 463 219 340 268 386 224 b 558 247 500 218 533 229 b 600 315 583 265 599 289 b 588 369 601 328 601 350 b 496 415 574 389 546 406 b 431 479 453 422 431 440 l 431 544 b 494 610 431 583 451 600 b 585 660 544 619 571 638 b 597 715 599 681 599 703 b 556 781 593 738 579 763 b 463 808 532 797 500 810 b 307 722 389 804 344 768 b 221 703 282 690 253 685 l 110 769 b 78 836 72 792 57 807 b 199 971 104 875 142 926 b 442 1057 256 1014 332 1050 b 718 983 564 1064 654 1031 b 828 838 782 936 817 876 b 817 636 846 767 842 696 b 700 515 792 576 750 532 z "},"4":{"ha":1029,"x_min":0,"x_max":0,"o":"m 690 1028 b 753 965 732 1028 753 1007 l 753 432 l 814 432 b 876 369 856 432 876 411 l 876 281 b 814 218 876 239 856 218 l 753 218 l 753 63 b 690 0 753 21 732 0 l 574 0 b 511 63 532 0 511 21 l 511 218 l 104 218 b 42 281 63 218 42 239 l 42 388 b 69 465 42 417 51 443 l 508 992 b 585 1028 529 1018 551 1028 z m 511 432 l 511 674 l 304 432 z "},"5":{"ha":999,"x_min":0,"x_max":0,"o":"m 474 710 b 764 583 603 714 708 661 b 835 379 808 524 831 451 b 790 171 839 307 822 233 b 442 -26 722 38 601 -26 l 418 -26 b 81 138 278 -19 168 38 b 94 225 54 169 61 201 l 210 303 b 296 288 243 325 269 319 b 431 222 331 250 371 224 b 575 275 504 221 550 242 b 597 399 600 307 604 350 b 493 506 592 444 549 488 b 301 467 438 522 367 517 b 218 443 274 446 251 436 l 117 465 b 68 538 76 474 61 497 l 144 971 b 211 1028 151 1008 174 1028 l 710 1028 b 772 965 751 1028 772 1007 l 772 861 b 710 799 772 819 751 799 l 332 799 l 308 643 l 321 656 b 403 699 335 669 363 685 b 474 710 424 706 447 708 z "},"6":{"ha":949,"x_min":0,"x_max":0,"o":"m 421 644 b 546 647 443 657 490 660 b 710 557 600 635 663 607 b 790 336 757 507 790 436 b 689 81 790 236 753 146 b 426 -26 625 14 533 -26 b 160 81 310 -26 221 18 b 57 300 99 142 64 224 b 107 546 53 361 56 451 l 343 985 b 417 1029 358 1014 383 1029 l 549 1029 b 592 954 597 1029 618 997 z m 426 207 b 526 250 475 207 506 222 b 554 351 547 276 554 313 b 429 471 554 433 497 471 b 306 340 361 471 310 414 b 333 249 304 306 313 274 b 426 207 354 224 383 207 z "},"7":{"ha":843,"x_min":0,"x_max":0,"o":"m 468 799 l 119 799 b 57 861 78 799 57 819 l 57 965 b 119 1028 57 1007 78 1028 l 678 1028 b 740 965 719 1028 740 1007 l 740 871 b 721 793 740 839 736 819 l 328 44 b 254 0 313 15 288 0 l 126 0 b 82 75 76 0 58 31 z "},"8":{"ha":994,"x_min":0,"x_max":0,"o":"m 707 544 b 814 438 753 522 790 482 b 849 301 836 393 849 344 b 743 67 849 207 810 125 b 453 -26 675 8 575 -26 b 163 67 331 -26 231 8 b 56 301 94 125 56 207 b 88 439 56 344 65 394 b 197 544 110 483 146 522 b 114 642 154 571 129 606 b 93 751 99 678 93 717 b 197 969 93 840 133 915 b 453 1056 261 1024 351 1056 b 708 969 554 1056 644 1024 b 811 751 772 915 811 840 b 788 638 811 717 804 675 b 707 544 771 599 746 565 z m 453 638 b 547 669 490 638 524 650 b 586 743 571 689 586 715 b 453 849 586 803 543 849 b 318 743 360 849 318 806 b 357 668 318 714 333 686 b 453 638 381 650 415 638 z m 453 203 b 553 238 492 203 526 215 b 594 315 579 258 594 286 b 453 426 594 376 549 426 b 311 315 354 426 311 381 b 453 203 311 250 374 203 z "},"9":{"ha":876,"x_min":0,"x_max":0,"o":"m 406 1054 b 672 949 522 1054 611 1011 b 775 729 733 886 768 806 b 725 483 779 668 776 578 l 489 44 b 415 0 474 15 449 0 l 283 0 b 239 75 233 0 215 32 l 411 383 b 288 381 389 371 342 368 b 124 472 232 393 171 422 b 42 693 76 522 42 593 b 144 949 42 793 81 883 b 406 1054 208 1014 299 1054 z m 403 558 b 526 688 471 558 522 615 b 499 781 528 722 519 757 b 406 821 478 804 446 821 b 306 779 357 821 326 806 b 278 676 285 751 278 715 b 403 558 278 597 335 558 z "},"\u0000":{"ha":0,"x_min":0,"x_max":0,"o":""},"\r":{"ha":404,"x_min":0,"x_max":0,"o":""}," ":{"ha":447,"x_min":0,"x_max":0,"o":""},"E":{"ha":963,"x_min":0,"x_max":0,"o":"m 776 63 b 714 0 776 21 756 0 l 118 0 b 56 63 76 0 56 21 l 56 965 b 118 1028 56 1007 76 1028 l 714 1028 b 776 965 756 1028 776 1007 l 776 828 b 714 765 776 786 756 765 l 318 765 l 318 636 l 610 636 b 672 574 651 636 672 615 l 672 456 b 610 393 672 414 651 393 l 318 393 l 318 263 l 714 263 b 776 200 756 263 776 242 z "},"F":{"ha":897,"x_min":0,"x_max":0,"o":"m 318 393 l 318 63 b 256 0 318 21 297 0 l 118 0 b 56 63 76 0 56 21 l 56 965 b 118 1028 56 1007 76 1028 l 694 1028 b 757 965 736 1028 757 1007 l 757 828 b 694 765 757 786 736 765 l 318 765 l 318 636 l 590 636 b 653 574 632 636 653 615 l 653 456 b 590 393 653 414 632 393 z "},"G":{"ha":1226,"x_min":0,"x_max":0,"o":"m 594 -24 b 214 135 446 -24 311 38 b 56 514 117 232 56 365 b 214 896 56 663 117 799 b 594 1053 311 993 446 1053 b 972 899 739 1053 872 999 b 965 810 1001 867 997 836 l 856 724 b 768 728 824 697 800 701 b 594 790 718 769 660 790 b 399 710 518 790 449 760 b 318 514 349 660 318 590 b 399 315 318 438 349 368 b 594 228 449 263 518 228 b 732 257 654 228 699 240 b 794 304 764 272 783 292 l 794 371 l 624 371 b 561 433 582 371 561 392 l 561 519 b 624 582 561 561 582 582 l 994 582 b 1057 519 1036 582 1057 561 l 1057 268 b 1040 199 1057 239 1051 217 b 594 -24 951 64 806 -24 z "},"H":{"ha":1033,"x_min":0,"x_max":0,"o":"m 865 63 b 803 0 865 21 844 0 l 665 0 b 603 63 624 0 603 21 l 603 382 l 318 382 l 318 63 b 256 0 318 21 297 0 l 118 0 b 56 63 76 0 56 21 l 56 965 b 118 1028 56 1007 76 1028 l 256 1028 b 318 965 297 1028 318 1007 l 318 646 l 603 646 l 603 965 b 665 1028 603 1007 624 1028 l 803 1028 b 865 965 844 1028 865 1007 z "},"I":{"ha":483,"x_min":0,"x_max":0,"o":"m 256 1028 b 318 965 297 1028 318 1007 l 318 63 b 256 0 318 21 297 0 l 118 0 b 56 63 76 0 56 21 l 56 965 b 118 1028 56 1007 76 1028 z "},"J":{"ha":992,"x_min":0,"x_max":0,"o":"m 228 343 b 313 321 261 364 289 356 b 426 240 339 281 378 240 b 518 269 460 240 493 246 b 560 414 543 292 560 336 l 560 964 b 622 1026 560 1006 581 1026 l 761 1026 b 824 964 803 1026 824 1006 l 824 382 b 740 113 824 294 801 193 b 426 -26 679 32 581 -26 b 165 76 321 -26 233 8 b 82 189 131 111 103 154 b 107 274 61 224 74 253 z "},"K":{"ha":1015,"x_min":0,"x_max":0,"o":"m 457 524 l 843 76 b 808 0 881 36 863 0 l 631 0 b 554 36 601 0 575 13 l 318 315 l 318 63 b 256 0 318 21 297 0 l 118 0 b 56 63 76 0 56 21 l 56 965 b 118 1028 56 1007 76 1028 l 256 1028 b 318 965 297 1028 318 1007 l 318 713 l 560 992 b 636 1026 582 1018 604 1026 l 788 1026 b 824 950 842 1026 858 990 z "},"L":{"ha":897,"x_min":0,"x_max":0,"o":"m 318 263 l 686 263 b 749 200 728 263 749 242 l 749 63 b 686 0 749 21 728 0 l 118 0 b 56 63 76 0 56 21 l 56 965 b 118 1028 56 1007 76 1028 l 256 1028 b 318 965 297 1028 318 1007 z "},"M":{"ha":1261,"x_min":0,"x_max":0,"o":"m 56 965 b 118 1028 56 1007 76 1028 l 235 1028 b 308 981 269 1028 293 1013 l 575 404 l 843 981 b 917 1028 858 1013 882 1028 l 1033 1028 b 1096 965 1075 1028 1096 1007 l 1096 63 b 1033 0 1096 21 1075 0 l 896 0 b 833 63 854 0 833 21 l 833 421 l 676 49 b 603 0 663 17 638 0 l 547 0 b 474 49 513 0 488 17 l 318 419 l 318 63 b 256 0 318 21 297 0 l 118 0 b 56 63 76 0 56 21 z "},"N":{"ha":1079,"x_min":0,"x_max":0,"o":"m 118 0 b 56 63 76 0 56 21 l 56 965 b 118 1028 56 1007 76 1028 l 238 1028 b 314 988 269 1028 296 1014 l 635 522 l 635 965 b 697 1028 635 1007 656 1028 l 835 1028 b 897 965 876 1028 897 1007 l 897 63 b 835 0 897 21 876 0 l 715 0 b 639 40 683 0 657 14 l 318 510 l 318 63 b 256 0 318 21 297 0 z "},"O":{"ha":1268,"x_min":0,"x_max":0,"o":"m 596 -25 b 214 133 446 -25 313 36 b 56 514 115 231 56 365 b 214 896 56 664 115 797 b 596 1054 313 994 446 1054 b 978 896 744 1054 879 994 b 1136 514 1076 797 1136 664 b 978 133 1136 365 1076 231 b 596 -25 879 36 744 -25 z m 596 792 b 400 710 519 792 450 760 b 318 514 350 660 318 590 b 400 318 318 438 350 368 b 596 238 450 268 519 238 b 792 318 672 238 742 268 b 872 514 842 368 872 438 b 792 710 872 590 842 660 b 596 792 742 760 672 792 z "},"P":{"ha":976,"x_min":0,"x_max":0,"o":"m 858 690 b 742 425 858 589 818 485 b 511 350 681 376 600 350 l 313 350 l 313 63 b 250 0 313 21 292 0 l 113 0 b 50 63 71 0 50 21 l 50 965 b 113 1028 50 1007 71 1028 l 535 1028 b 757 950 624 1028 697 1001 b 825 853 779 929 806 896 b 858 690 844 808 858 753 z m 606 690 b 521 775 606 739 576 775 l 313 775 l 313 603 l 511 603 b 606 690 560 603 606 636 z "},"Q":{"ha":1288,"x_min":0,"x_max":0,"o":"m 978 -124 b 890 -114 944 -150 915 -146 l 793 11 b 596 -25 731 -12 665 -25 b 214 133 446 -25 313 36 b 56 514 115 231 56 365 b 214 896 56 664 115 797 b 596 1054 313 994 446 1054 b 978 896 744 1054 879 994 b 1136 514 1076 797 1136 664 b 1007 164 1136 381 1089 258 l 1097 49 b 1086 -40 1122 15 1118 -14 z m 557 314 b 567 403 531 349 535 378 l 675 488 b 764 476 710 511 739 508 l 838 381 b 872 514 861 421 872 465 b 792 710 872 590 842 660 b 596 792 742 760 672 792 b 400 710 519 792 450 760 b 318 514 350 660 318 590 b 400 318 318 438 350 368 b 596 238 450 268 519 238 b 615 239 604 238 611 238 z "},"R":{"ha":993,"x_min":0,"x_max":0,"o":"m 864 690 b 747 425 864 589 824 485 b 718 406 736 415 726 410 b 701 399 708 401 703 400 l 882 72 b 833 0 908 28 882 0 l 681 0 b 608 49 643 0 626 15 l 444 367 l 318 367 l 318 63 b 256 0 318 21 297 0 l 118 0 b 56 63 76 0 56 21 l 56 965 b 118 1028 56 1007 76 1028 l 540 1028 b 763 950 629 1028 703 1001 b 831 853 785 929 811 896 b 864 690 850 808 864 753 z m 610 690 b 526 775 610 739 582 775 l 318 775 l 318 603 l 517 603 b 610 690 565 603 610 636 z "},"S":{"ha":1061,"x_min":0,"x_max":0,"o":"m 656 247 b 682 290 672 258 681 274 b 669 329 683 306 679 319 b 653 343 665 333 660 338 b 563 381 638 353 611 367 b 469 401 538 388 507 394 b 131 569 318 433 185 492 b 86 701 103 613 89 658 b 99 817 83 744 88 785 b 249 990 121 889 176 949 b 510 1056 321 1032 411 1056 b 719 1025 593 1056 663 1042 b 856 960 775 1007 821 982 b 869 874 890 938 896 908 l 794 769 b 708 751 774 738 744 731 b 510 810 658 781 588 810 b 403 786 460 810 425 799 b 365 746 381 774 369 757 b 392 683 354 718 367 699 b 499 649 417 668 454 658 b 883 482 715 606 832 549 b 936 240 938 411 951 328 b 826 57 926 174 892 107 b 529 -28 761 6 664 -28 l 504 -28 b 476 -26 494 -28 486 -28 b 107 81 369 -21 246 1 b 90 168 69 101 64 135 l 183 285 b 271 300 207 317 236 321 b 478 228 343 257 399 238 b 656 247 557 218 626 226 z "},"T":{"ha":981,"x_min":0,"x_max":0,"o":"m 394 0 b 332 63 353 0 332 21 l 332 765 l 118 765 b 56 828 76 765 56 786 l 56 965 b 118 1028 56 1007 76 1028 l 808 1028 b 871 965 850 1028 871 1007 l 871 828 b 808 765 871 786 850 765 l 594 765 l 594 63 b 532 0 594 21 574 0 z "},"U":{"ha":1175,"x_min":0,"x_max":0,"o":"m 1008 482 b 878 132 1007 354 960 226 b 532 -25 794 38 676 -25 b 192 125 393 -25 275 32 b 56 482 108 218 60 344 l 56 965 b 118 1028 56 1007 76 1028 l 256 1028 b 318 965 297 1028 318 1007 l 318 482 b 381 303 318 410 342 347 b 532 231 419 257 472 231 b 682 303 589 231 643 257 b 744 482 721 347 744 410 l 744 965 b 807 1028 744 1007 765 1028 l 946 1028 b 1008 965 988 1028 1008 1007 z "},"V":{"ha":1118,"x_min":0,"x_max":0,"o":"m 536 444 l 721 979 b 793 1029 733 1013 757 1029 l 942 1029 b 992 958 988 1029 1007 1001 l 679 50 b 607 0 667 17 642 0 l 467 0 b 394 50 431 0 407 17 l 81 958 b 131 1029 65 1001 85 1029 l 279 1029 b 351 979 314 1029 339 1013 z "},"W":{"ha":1442,"x_min":0,"x_max":0,"o":"m 71 961 b 126 1029 61 1004 82 1029 l 268 1029 b 338 974 306 1029 329 1011 l 433 522 l 557 976 b 626 1029 567 1011 589 1029 l 778 1029 b 847 976 815 1029 838 1011 l 971 525 l 1067 974 b 1136 1029 1075 1011 1099 1029 l 1276 1029 b 1332 961 1321 1029 1342 1004 l 1135 56 b 1065 0 1126 18 1103 0 l 904 0 b 835 53 867 0 844 18 l 703 536 l 571 53 b 500 0 560 18 536 0 l 339 0 b 269 56 301 0 278 18 z "},"X":{"ha":1179,"x_min":0,"x_max":0,"o":"m 565 751 l 725 988 b 801 1028 743 1014 769 1028 l 979 1028 b 1019 951 1031 1028 1049 994 l 724 518 l 1024 76 b 983 0 1053 33 1035 0 l 806 0 b 729 40 774 0 747 14 l 565 283 l 400 40 b 324 0 382 14 356 0 l 146 0 b 106 76 94 0 76 33 l 406 518 l 110 951 b 150 1028 81 994 99 1028 l 328 1028 b 404 988 360 1028 386 1014 z "},"Y":{"ha":1051,"x_min":0,"x_max":0,"o":"m 447 0 b 385 63 406 0 385 21 l 385 478 l 89 953 b 131 1028 63 996 79 1028 l 296 1028 b 371 986 328 1028 353 1014 l 515 754 l 660 986 b 735 1028 678 1014 703 1028 l 900 1028 b 942 953 951 1028 969 996 l 647 478 l 647 63 b 585 0 647 21 626 0 z "},"Z":{"ha":956,"x_min":0,"x_max":0,"o":"m 118 0 b 56 63 76 0 56 21 l 56 171 b 82 249 56 203 61 222 l 467 765 l 139 765 b 76 828 97 765 76 786 l 76 965 b 139 1028 76 1007 97 1028 l 735 1028 b 797 965 776 1028 797 1007 l 797 858 b 772 781 797 829 789 804 l 399 263 l 756 263 b 818 200 797 263 818 242 l 818 63 b 756 0 818 21 797 0 z "},"D":{"ha":1096,"x_min":0,"x_max":0,"o":"m 118 0 b 56 63 76 0 56 21 l 56 965 b 118 1028 56 1007 76 1028 l 446 1028 b 799 871 579 1028 704 972 b 940 514 889 772 940 646 b 793 153 940 375 883 246 b 444 0 703 58 578 0 z m 318 765 l 318 263 l 444 263 b 607 339 506 263 564 293 b 676 514 650 383 676 447 b 608 690 676 581 650 644 b 446 765 567 735 507 765 z "},"a":{"ha":1144,"x_min":0,"x_max":0,"o":"m 622 1028 b 694 978 657 1028 682 1011 l 1011 72 b 960 0 1026 28 1008 0 l 811 0 b 740 51 775 0 751 17 l 697 178 l 392 178 l 349 51 b 276 0 336 17 313 0 l 126 0 b 75 72 78 0 60 28 l 393 978 b 464 1028 406 1011 429 1028 z m 639 406 l 543 690 l 456 406 z "},"b":{"ha":1018,"x_min":0,"x_max":0,"o":"m 118 0 b 56 63 76 0 56 21 l 56 965 b 118 1028 56 1007 76 1028 l 504 1028 b 726 950 592 1028 667 1001 b 794 869 749 929 775 906 b 828 724 814 833 828 786 l 828 722 b 796 607 828 679 814 639 b 732 543 778 574 753 550 b 819 483 750 539 786 521 b 886 325 853 446 881 393 b 864 189 888 286 883 238 b 765 58 844 140 811 93 b 578 0 719 24 657 0 z m 306 794 l 306 622 l 490 622 b 553 643 511 622 535 629 b 583 704 569 657 583 676 b 504 794 583 750 560 794 z m 306 410 l 306 238 l 533 238 b 624 324 583 238 624 264 b 525 410 624 383 586 410 z "},"c":{"ha":1132,"x_min":0,"x_max":0,"o":"m 590 -26 b 208 132 442 -26 307 33 b 50 514 110 231 50 365 b 208 896 50 664 110 797 b 590 1054 307 994 442 1054 b 971 899 735 1054 869 999 b 963 811 1000 869 996 838 l 853 725 b 765 729 821 699 797 703 b 590 792 715 771 657 792 b 394 710 514 792 444 760 b 313 514 344 660 313 590 b 394 318 313 438 344 368 b 590 238 444 268 514 238 b 760 296 654 238 711 257 b 849 299 792 319 817 325 l 956 208 b 960 119 988 182 992 149 b 590 -26 860 25 729 -26 z "},"d":{"ha":1096,"x_min":0,"x_max":0,"o":"m 118 0 b 56 63 76 0 56 21 l 56 965 b 118 1028 56 1007 76 1028 l 446 1028 b 799 871 579 1028 704 972 b 940 514 889 772 940 646 b 793 153 940 375 883 246 b 444 0 703 58 578 0 z m 318 765 l 318 263 l 444 263 b 607 339 506 263 564 293 b 676 514 650 383 676 447 b 608 690 676 581 650 644 b 446 765 567 735 507 765 z "},"e":{"ha":963,"x_min":0,"x_max":0,"o":"m 318 393 l 318 263 l 714 263 b 776 200 756 263 776 242 l 776 63 b 714 0 776 21 756 0 l 118 0 b 56 63 76 0 56 21 l 56 965 b 118 1028 56 1007 76 1028 l 714 1028 b 776 965 756 1028 776 1007 l 776 828 b 714 765 776 786 756 765 l 318 765 l 318 636 l 610 636 b 672 574 651 636 672 615 l 672 456 b 610 393 672 414 651 393 z "},"f":{"ha":897,"x_min":0,"x_max":0,"o":"m 318 393 l 318 63 b 256 0 318 21 297 0 l 118 0 b 56 63 76 0 56 21 l 56 965 b 118 1028 56 1007 76 1028 l 694 1028 b 757 965 736 1028 757 1007 l 757 828 b 694 765 757 786 736 765 l 318 765 l 318 636 l 590 636 b 653 574 632 636 653 615 l 653 456 b 590 393 653 414 632 393 z "},"g":{"ha":1226,"x_min":0,"x_max":0,"o":"m 594 -24 b 214 135 446 -24 311 38 b 56 514 117 232 56 365 b 214 896 56 663 117 799 b 594 1053 311 993 446 1053 b 972 899 739 1053 872 999 b 965 810 1001 867 997 836 l 856 724 b 768 728 824 697 800 701 b 594 790 718 769 660 790 b 399 710 518 790 449 760 b 318 514 349 660 318 590 b 399 315 318 438 349 368 b 594 228 449 263 518 228 b 732 257 654 228 699 240 b 794 304 764 272 783 292 l 794 371 l 624 371 b 561 433 582 371 561 392 l 561 519 b 624 582 561 561 582 582 l 994 582 b 1057 519 1036 582 1057 561 l 1057 268 b 1040 199 1057 239 1051 217 b 594 -24 951 64 806 -24 z "},"h":{"ha":1033,"x_min":0,"x_max":0,"o":"m 865 63 b 803 0 865 21 844 0 l 665 0 b 603 63 624 0 603 21 l 603 382 l 318 382 l 318 63 b 256 0 318 21 297 0 l 118 0 b 56 63 76 0 56 21 l 56 965 b 118 1028 56 1007 76 1028 l 256 1028 b 318 965 297 1028 318 1007 l 318 646 l 603 646 l 603 965 b 665 1028 603 1007 624 1028 l 803 1028 b 865 965 844 1028 865 1007 z "},"i":{"ha":483,"x_min":0,"x_max":0,"o":"m 256 1028 b 318 965 297 1028 318 1007 l 318 63 b 256 0 318 21 297 0 l 118 0 b 56 63 76 0 56 21 l 56 965 b 118 1028 56 1007 76 1028 z "},"j":{"ha":992,"x_min":0,"x_max":0,"o":"m 228 343 b 313 321 261 364 289 356 b 426 240 339 281 378 240 b 518 269 460 240 493 246 b 560 414 543 292 560 336 l 560 964 b 622 1026 560 1006 581 1026 l 761 1026 b 824 964 803 1026 824 1006 l 824 382 b 740 113 824 294 801 193 b 426 -26 679 32 581 -26 b 165 76 321 -26 233 8 b 82 189 131 111 103 154 b 107 274 61 224 74 253 z "},"k":{"ha":1015,"x_min":0,"x_max":0,"o":"m 788 1026 b 824 950 842 1026 858 990 l 457 524 l 843 76 b 808 0 881 36 863 0 l 631 0 b 554 36 601 0 575 13 l 318 315 l 318 63 b 256 0 318 21 297 0 l 118 0 b 56 63 76 0 56 21 l 56 965 b 118 1028 56 1007 76 1028 l 256 1028 b 318 965 297 1028 318 1007 l 318 713 l 560 992 b 636 1026 582 1018 604 1026 z "},"l":{"ha":897,"x_min":0,"x_max":0,"o":"m 318 263 l 686 263 b 749 200 728 263 749 242 l 749 63 b 686 0 749 21 728 0 l 118 0 b 56 63 76 0 56 21 l 56 965 b 118 1028 56 1007 76 1028 l 256 1028 b 318 965 297 1028 318 1007 z "},"m":{"ha":1263,"x_min":0,"x_max":0,"o":"m 56 965 b 118 1028 56 1007 76 1028 l 235 1028 b 308 981 269 1028 293 1013 l 575 404 l 843 981 b 917 1028 858 1013 882 1028 l 1033 1028 b 1096 965 1075 1028 1096 1007 l 1096 63 b 1033 0 1096 21 1075 0 l 896 0 b 833 63 854 0 833 21 l 833 421 l 676 49 b 603 0 663 17 638 0 l 547 0 b 474 49 513 0 488 17 l 318 419 l 318 63 b 256 0 318 21 297 0 l 118 0 b 56 63 76 0 56 21 z "},"n":{"ha":1078,"x_min":0,"x_max":0,"o":"m 118 0 b 56 63 76 0 56 21 l 56 965 b 118 1028 56 1007 76 1028 l 238 1028 b 314 988 269 1028 296 1014 l 635 522 l 635 965 b 697 1028 635 1007 656 1028 l 835 1028 b 897 965 876 1028 897 1007 l 897 63 b 835 0 897 21 876 0 l 715 0 b 639 40 683 0 657 14 l 318 510 l 318 63 b 256 0 318 21 297 0 z "},"o":{"ha":1268,"x_min":0,"x_max":0,"o":"m 596 -25 b 214 133 446 -25 313 36 b 56 514 115 231 56 365 b 214 896 56 664 115 797 b 596 1054 313 994 446 1054 b 978 896 744 1054 879 994 b 1136 514 1076 797 1136 664 b 978 133 1136 365 1076 231 b 596 -25 879 36 744 -25 z m 596 792 b 400 710 519 792 450 760 b 318 514 350 660 318 590 b 400 318 318 438 350 368 b 596 238 450 268 519 238 b 792 318 672 238 742 268 b 872 514 842 368 872 438 b 792 710 872 590 842 660 b 596 792 742 760 672 792 z "},"p":{"ha":976,"x_min":0,"x_max":0,"o":"m 858 690 b 742 425 858 589 818 485 b 511 350 681 376 600 350 l 313 350 l 313 63 b 250 0 313 21 292 0 l 113 0 b 50 63 71 0 50 21 l 50 965 b 113 1028 50 1007 71 1028 l 535 1028 b 757 950 624 1028 697 1001 b 825 853 779 929 806 896 b 858 690 844 808 858 753 z m 606 690 b 521 775 606 739 576 775 l 313 775 l 313 603 l 511 603 b 606 690 560 603 606 636 z "},"q":{"ha":1288,"x_min":0,"x_max":0,"o":"m 978 -124 b 890 -114 944 -150 915 -146 l 793 11 b 596 -25 731 -12 665 -25 b 214 133 446 -25 313 36 b 56 514 115 231 56 365 b 214 896 56 664 115 797 b 596 1054 313 994 446 1054 b 978 896 744 1054 879 994 b 1136 514 1076 797 1136 664 b 1007 164 1136 381 1089 258 l 1097 49 b 1086 -40 1122 15 1118 -14 z m 557 314 b 567 403 531 349 535 378 l 675 488 b 764 476 710 511 739 508 l 838 381 b 872 514 861 421 872 465 b 792 710 872 590 842 660 b 596 792 742 760 672 792 b 400 710 519 792 450 760 b 318 514 350 660 318 590 b 400 318 318 438 350 368 b 596 238 450 268 519 238 b 615 239 604 238 611 238 z "},"r":{"ha":993,"x_min":0,"x_max":0,"o":"m 864 690 b 747 425 864 589 824 485 b 718 406 736 415 726 410 b 701 399 708 401 703 400 l 840 72 b 792 0 858 29 840 0 l 639 0 b 567 49 604 0 581 17 l 444 367 l 318 367 l 318 63 b 256 0 318 21 297 0 l 118 0 b 56 63 76 0 56 21 l 56 965 b 118 1028 56 1007 76 1028 l 540 1028 b 763 950 629 1028 703 1001 b 831 853 785 929 811 896 b 864 690 850 808 864 753 z m 610 690 b 526 775 610 739 582 775 l 318 775 l 318 603 l 517 603 b 610 690 565 603 610 636 z "},"s":{"ha":1061,"x_min":0,"x_max":0,"o":"m 656 247 b 682 290 672 258 681 274 b 669 329 683 306 679 319 b 653 343 665 333 660 338 b 563 381 638 353 611 367 b 469 401 538 388 507 394 b 131 569 318 433 185 492 b 86 701 103 613 89 658 b 99 817 83 744 88 785 b 249 990 121 889 176 949 b 510 1056 321 1032 411 1056 b 719 1025 593 1056 663 1042 b 856 960 775 1007 821 982 b 869 874 890 938 896 908 l 794 769 b 708 751 774 738 744 731 b 510 810 658 781 588 810 b 403 786 460 810 425 799 b 365 746 381 774 369 757 b 392 683 354 718 367 699 b 499 649 417 668 454 658 b 883 482 715 606 832 549 b 936 240 938 411 951 328 b 826 57 926 174 892 107 b 529 -28 761 6 664 -28 l 504 -28 b 476 -26 494 -28 486 -28 b 107 81 369 -21 246 1 b 90 168 69 101 64 135 l 183 285 b 271 300 207 317 236 321 b 478 228 343 257 399 238 b 656 247 557 218 626 226 z "},"t":{"ha":981,"x_min":0,"x_max":0,"o":"m 394 0 b 332 63 353 0 332 21 l 332 765 l 118 765 b 56 828 76 765 56 786 l 56 965 b 118 1028 56 1007 76 1028 l 808 1028 b 871 965 850 1028 871 1007 l 871 828 b 808 765 871 786 850 765 l 594 765 l 594 63 b 532 0 594 21 574 0 z "},"u":{"ha":1175,"x_min":0,"x_max":0,"o":"m 946 1028 b 1008 965 988 1028 1008 1007 l 1008 482 b 878 132 1007 354 960 226 b 532 -25 794 38 676 -25 b 192 125 393 -25 275 32 b 56 482 108 218 60 344 l 56 965 b 118 1028 56 1007 76 1028 l 256 1028 b 318 965 297 1028 318 1007 l 318 482 b 381 303 318 410 342 347 b 532 231 419 257 472 231 b 682 303 589 231 643 257 b 744 482 721 347 744 410 l 744 965 b 807 1028 744 1007 765 1028 z "},"v":{"ha":1118,"x_min":0,"x_max":0,"o":"m 536 444 l 721 979 b 793 1029 733 1013 757 1029 l 942 1029 b 992 958 988 1029 1007 1001 l 679 50 b 607 0 667 17 642 0 l 467 0 b 394 50 431 0 407 17 l 81 958 b 131 1029 65 1001 85 1029 l 279 1029 b 351 979 314 1029 339 1013 z "},"w":{"ha":1442,"x_min":0,"x_max":0,"o":"m 339 0 b 269 56 301 0 278 18 l 71 961 b 126 1029 61 1004 82 1029 l 268 1029 b 338 974 306 1029 329 1011 l 433 522 l 557 976 b 626 1029 567 1011 589 1029 l 778 1029 b 847 976 815 1029 838 1011 l 971 525 l 1067 974 b 1136 1029 1075 1011 1099 1029 l 1276 1029 b 1332 961 1321 1029 1342 1004 l 1135 56 b 1065 0 1126 18 1103 0 l 904 0 b 835 53 867 0 844 18 l 703 536 l 571 53 b 500 0 560 18 536 0 z "},"x":{"ha":1179,"x_min":0,"x_max":0,"o":"m 565 751 l 725 988 b 801 1028 743 1014 769 1028 l 979 1028 b 1019 951 1031 1028 1049 994 l 724 518 l 1024 76 b 983 0 1053 33 1035 0 l 806 0 b 729 40 774 0 747 14 l 565 283 l 400 40 b 324 0 382 14 356 0 l 146 0 b 106 76 94 0 76 33 l 406 518 l 110 951 b 150 1028 81 994 99 1028 l 328 1028 b 404 988 360 1028 386 1014 z "},"y":{"ha":1051,"x_min":0,"x_max":0,"o":"m 447 0 b 385 63 406 0 385 21 l 385 478 l 89 953 b 131 1028 63 996 79 1028 l 296 1028 b 371 986 328 1028 353 1014 l 515 754 l 660 986 b 735 1028 678 1014 703 1028 l 900 1028 b 942 953 951 1028 969 996 l 647 478 l 647 63 b 585 0 647 21 626 0 z "},"z":{"ha":956,"x_min":0,"x_max":0,"o":"m 118 0 b 56 63 76 0 56 21 l 56 171 b 82 249 56 203 61 222 l 467 765 l 139 765 b 76 828 97 765 76 786 l 76 965 b 139 1028 76 1007 97 1028 l 735 1028 b 797 965 776 1028 797 1007 l 797 858 b 772 781 797 829 789 804 l 399 263 l 756 263 b 818 200 797 263 818 242 l 818 63 b 756 0 818 21 797 0 z "},"%":{"ha":1401,"x_min":0,"x_max":0,"o":"m 568 772 b 493 590 568 701 539 636 b 313 515 447 544 383 515 b 131 590 242 515 176 544 b 56 772 85 636 56 701 b 131 954 56 843 85 908 b 313 1029 176 1000 242 1029 b 493 954 383 1029 447 1000 b 568 772 539 908 568 843 z m 813 985 b 886 1029 828 1014 853 1029 l 982 1029 b 1026 954 1032 1029 1050 999 l 535 44 b 461 0 519 15 494 0 l 365 0 b 321 75 315 0 297 31 z m 229 772 b 313 690 229 726 267 690 b 394 772 357 690 394 726 b 313 854 394 818 357 854 b 229 772 267 854 229 818 z m 1040 514 b 1222 439 1111 514 1176 485 b 1297 258 1268 393 1297 329 b 1222 76 1297 188 1268 122 b 1040 1 1176 31 1111 1 b 860 76 969 1 906 31 b 785 258 814 122 785 188 b 860 439 785 329 814 393 b 1040 514 906 485 969 514 z m 1040 175 b 1124 258 1086 175 1124 213 b 1040 340 1124 303 1086 340 b 958 258 994 340 958 303 b 1040 175 958 213 994 175 z "},"&":{"ha":1215,"x_min":0,"x_max":0,"o":"m 983 392 b 985 303 1013 361 1014 332 b 906 231 964 282 938 257 l 1046 76 b 1011 0 1083 36 1067 0 l 874 0 b 797 33 842 0 817 11 l 729 106 b 618 25 700 79 664 50 b 433 -19 572 0 513 -19 b 190 40 357 -19 264 -4 b 61 260 117 83 61 153 b 146 432 61 325 96 382 b 319 554 194 481 258 522 b 236 665 290 592 258 628 b 197 781 213 703 197 740 b 526 1050 197 942 311 1050 b 757 964 628 1050 706 1015 b 832 781 807 913 832 846 b 738 594 832 703 786 639 b 644 524 710 568 679 544 l 767 385 b 814 422 782 396 797 408 b 842 444 822 429 832 436 b 931 444 874 472 903 472 z m 511 656 b 581 708 533 668 561 686 b 614 781 600 729 614 753 b 592 856 614 808 607 836 b 514 883 575 875 551 888 b 424 786 449 878 424 842 b 457 715 424 764 439 738 b 486 682 467 703 476 692 z m 438 193 b 544 226 481 193 517 210 b 589 261 561 236 576 249 l 443 415 b 326 331 392 392 354 364 b 306 278 313 314 306 296 b 351 208 306 240 324 219 b 438 193 378 196 410 193 z "},"#":{"ha":1276,"x_min":0,"x_max":0,"o":"m 981 1094 b 1036 1026 1026 1094 1044 1072 l 989 783 l 1129 783 b 1185 715 1175 783 1193 761 l 1171 644 b 1103 589 1164 607 1142 589 l 950 589 l 911 392 l 1051 392 b 1107 324 1097 392 1115 369 l 1093 253 b 1025 197 1086 215 1064 197 l 872 197 l 831 -10 b 763 -65 824 -47 801 -65 l 692 -65 b 636 3 646 -65 628 -43 l 675 197 l 463 197 l 421 -10 b 353 -65 414 -47 392 -65 l 282 -65 b 226 3 236 -65 218 -43 l 264 197 l 111 197 b 56 265 65 197 47 219 l 69 336 b 138 392 76 374 99 392 l 303 392 l 342 589 l 189 589 b 133 657 143 589 125 611 l 147 728 b 215 783 154 765 176 783 l 381 783 l 432 1039 b 500 1094 439 1076 461 1094 l 571 1094 b 626 1026 617 1094 635 1072 l 578 783 l 792 783 l 842 1039 b 910 1094 849 1076 871 1094 z m 714 392 l 753 589 l 539 589 l 500 392 z "},"$":{"ha":976,"x_min":0,"x_max":0,"o":"m 444 635 b 675 569 544 624 619 600 b 790 474 731 539 767 503 b 846 256 839 408 858 333 b 747 92 836 190 801 132 b 558 19 699 54 636 29 l 558 -36 b 496 -99 558 -78 538 -99 l 390 -99 b 328 -36 349 -99 328 -78 l 328 29 b 83 165 231 51 149 97 b 92 254 54 197 60 228 l 163 311 b 250 303 192 335 221 332 b 478 213 311 246 389 213 b 571 233 501 213 539 219 b 636 301 603 247 631 269 b 621 356 640 322 633 343 b 564 389 611 363 596 376 b 421 419 532 400 488 413 b 110 575 269 436 165 488 b 81 797 60 653 63 740 b 328 999 113 896 206 967 l 328 1064 b 390 1126 328 1106 349 1126 l 496 1126 b 558 1064 538 1126 558 1106 l 558 1001 b 764 901 647 981 715 940 b 761 813 796 874 793 840 l 696 758 b 608 758 667 732 640 736 b 449 813 568 788 515 813 b 331 785 392 813 354 800 b 292 742 307 768 297 751 b 347 657 274 707 296 676 b 444 635 374 647 406 639 z "},"_":{"ha":917,"x_min":0,"x_max":0,"o":"m 104 -115 b 42 -53 63 -115 42 -94 l 42 53 b 104 115 42 94 63 115 l 728 115 b 790 53 769 115 790 94 l 790 -53 b 728 -115 790 -94 769 -115 z "},"©":{"ha":1240,"x_min":0,"x_max":0,"o":"m 581 -19 b 200 139 432 -19 297 42 b 42 519 103 236 42 371 b 200 901 42 668 103 804 b 581 1058 297 999 432 1058 b 963 901 729 1058 865 999 b 1119 519 1060 804 1119 668 b 963 139 1119 371 1060 236 b 581 -19 865 42 729 -19 z m 581 872 b 332 769 482 872 396 833 b 228 519 268 706 228 615 b 332 271 228 421 268 335 b 581 167 396 207 482 167 b 831 271 676 167 767 207 b 933 519 894 335 933 421 b 831 769 933 615 894 706 b 581 872 767 833 676 872 z m 585 289 b 425 357 522 289 467 315 b 357 518 383 399 357 456 b 425 678 357 581 383 638 b 585 744 467 718 522 744 b 713 706 631 744 674 732 b 710 618 750 679 743 644 b 636 622 688 600 668 607 b 585 635 619 631 603 635 b 467 518 519 635 467 583 b 585 400 467 453 519 400 b 631 410 603 400 618 403 b 717 407 664 425 688 433 b 708 326 744 385 746 350 b 585 289 671 303 629 289 z "},"?":{"ha":818,"x_min":0,"x_max":0,"o":"m 411 832 b 257 747 349 832 296 792 b 172 726 233 718 204 711 l 100 761 b 75 844 63 779 51 810 b 197 976 99 883 140 935 b 411 1050 253 1018 324 1050 b 607 994 483 1050 551 1031 b 722 839 663 958 704 906 b 696 631 744 751 726 683 b 593 519 665 578 621 540 b 490 413 550 488 511 450 b 428 357 475 383 468 357 l 324 357 b 261 406 283 357 261 367 b 421 640 261 479 321 557 l 446 661 b 501 726 467 678 489 700 b 479 810 514 753 510 779 b 411 832 464 825 440 832 z m 531 124 b 488 21 531 83 514 47 b 383 -22 461 -7 424 -22 b 281 21 343 -22 307 -7 b 238 124 253 47 238 83 b 281 228 238 164 253 201 b 383 271 307 254 343 271 b 531 124 467 271 531 207 z "},"!":{"ha":468,"x_min":0,"x_max":0,"o":"m 290 418 b 226 357 289 378 267 357 l 151 357 b 88 418 111 357 89 378 l 60 960 b 121 1024 58 1003 78 1024 l 256 1024 b 317 960 299 1024 318 1003 z m 189 -22 b 85 21 149 -22 111 -7 b 42 124 58 47 42 83 b 189 271 42 207 106 271 b 292 228 229 271 265 254 b 335 124 318 201 335 164 b 292 21 335 83 318 47 b 189 -22 265 -7 229 -22 z "},".":{"ha":464,"x_min":0,"x_max":0,"o":"m 217 -22 b 113 21 176 -22 139 -7 b 69 124 86 47 69 83 b 217 271 69 207 133 271 b 319 228 257 271 293 254 b 363 124 346 201 363 164 b 319 21 363 83 346 47 b 217 -22 293 -7 257 -22 z "},",":{"ha":478,"x_min":0,"x_max":0,"o":"m 186 0 b 82 33 143 -6 108 10 b 42 122 56 57 42 90 b 86 228 42 163 58 200 b 190 271 113 254 150 271 b 297 228 231 271 269 254 b 340 122 324 200 340 163 b 301 -11 340 71 317 15 b 249 -76 294 -22 275 -49 b 167 -147 222 -104 193 -135 b 113 -165 151 -154 131 -162 b 78 -147 94 -168 79 -164 b 113 -104 76 -129 90 -121 b 185 -8 135 -87 163 -62 b 186 -1 186 -7 186 -4 z "},"*":{"ha":632,"x_min":0,"x_max":0,"o":"m 151 593 b 136 678 118 615 113 643 l 185 751 l 100 783 b 139 903 22 811 61 929 l 224 878 l 225 963 b 288 1025 225 1004 246 1025 l 289 1025 b 351 963 331 1025 351 1004 l 353 878 l 436 903 b 476 783 515 929 553 811 l 390 751 l 439 678 b 339 608 485 610 388 543 l 288 675 l 238 608 b 151 593 213 576 183 571 z "},"^":{"ha":658,"x_min":0,"x_max":0,"o":"m 303 871 l 236 792 b 160 757 215 768 190 757 l 135 757 b 99 833 81 757 65 790 l 225 989 b 301 1025 246 1015 268 1025 l 304 1025 b 381 989 338 1025 360 1015 l 506 833 b 469 757 540 790 524 757 l 446 757 b 368 793 413 757 390 767 z "},"(":{"ha":522,"x_min":0,"x_max":0,"o":"m 333 -133 b 188 -31 265 -161 236 -103 b 65 276 139 40 96 143 b 42 500 50 343 42 418 b 128 911 42 665 81 804 b 265 1139 175 1018 231 1096 b 350 1157 288 1165 315 1171 l 400 1136 b 425 1051 442 1118 450 1089 b 315 828 393 1001 351 924 b 250 500 279 732 250 618 b 308 183 250 383 275 275 b 408 -29 340 92 381 17 b 383 -112 433 -67 425 -94 z "},")":{"ha":522,"x_min":0,"x_max":0,"o":"m 81 -112 b 56 -29 39 -94 31 -67 b 157 183 83 17 124 92 b 214 500 189 275 214 383 b 150 828 214 618 186 732 b 39 1051 114 924 68 1001 b 64 1136 14 1089 22 1118 l 114 1157 b 264 1050 182 1185 213 1126 b 397 728 314 972 364 865 b 422 500 414 658 422 582 b 344 101 422 335 388 204 b 215 -115 301 -1 249 -75 b 131 -133 193 -142 165 -147 z "},"[":{"ha":507,"x_min":0,"x_max":0,"o":"m 263 992 l 263 15 l 393 15 b 456 -47 435 15 456 -6 l 456 -89 b 393 -151 456 -131 435 -151 l 118 -151 b 56 -89 76 -151 56 -131 l 56 1094 b 118 1157 56 1136 76 1157 l 393 1157 b 456 1094 435 1157 456 1136 l 456 1054 b 393 992 456 1013 435 992 z "},"]":{"ha":539,"x_min":0,"x_max":0,"o":"m 235 15 l 235 992 l 104 992 b 42 1054 63 992 42 1013 l 42 1094 b 104 1157 42 1136 63 1157 l 379 1157 b 442 1094 421 1157 442 1136 l 442 -89 b 379 -151 442 -131 421 -151 l 104 -151 b 42 -89 63 -151 42 -131 l 42 -47 b 104 15 42 -6 63 15 z "},"{":{"ha":504,"x_min":0,"x_max":0,"o":"m 121 376 b 58 433 121 414 100 433 b 42 496 47 433 42 454 l 42 511 b 58 574 42 553 47 574 b 121 631 100 574 121 593 l 121 935 b 319 1157 121 1078 192 1157 l 383 1157 b 446 1094 425 1157 446 1136 l 446 1042 b 383 979 446 1000 425 979 b 328 918 351 979 328 953 l 328 658 b 207 503 328 575 278 515 b 328 349 274 488 328 442 l 328 89 b 383 28 328 51 351 28 b 446 -35 425 28 446 7 l 446 -89 b 383 -151 446 -131 425 -151 l 319 -151 b 121 72 192 -151 121 -71 z "},"}":{"ha":504,"x_min":0,"x_max":0,"o":"m 367 72 b 168 -151 367 -71 296 -151 l 104 -151 b 42 -89 63 -151 42 -131 l 42 -35 b 104 28 42 7 63 28 b 160 89 136 28 160 51 l 160 349 b 281 503 160 442 214 488 b 160 658 210 515 160 575 l 160 918 b 104 979 160 953 136 979 b 42 1042 63 979 42 1000 l 42 1094 b 104 1157 42 1136 63 1157 l 168 1157 b 367 935 296 1157 367 1078 l 367 631 b 429 574 367 593 388 574 b 446 511 440 574 446 553 l 446 496 b 429 433 446 454 440 433 b 367 376 388 433 367 414 z "},"\\":{"ha":704,"x_min":0,"x_max":0,"o":"m 617 -32 b 564 -103 629 -75 610 -103 l 461 -103 b 392 -50 424 -103 401 -85 l 63 1051 b 115 1122 50 1094 69 1122 l 218 1122 b 288 1069 256 1122 278 1104 z "},"/":{"ha":681,"x_min":0,"x_max":0,"o":"m 564 1122 b 617 1051 610 1122 629 1094 l 288 -50 b 218 -103 278 -85 256 -103 l 115 -103 b 63 -32 69 -103 50 -75 l 392 1069 b 461 1122 401 1104 424 1122 z "},"|":{"ha":433,"x_min":0,"x_max":0,"o":"m 210 1122 b 272 1060 251 1122 272 1101 l 272 -40 b 210 -103 272 -82 251 -103 l 104 -103 b 42 -40 63 -103 42 -82 l 42 1060 b 104 1122 42 1101 63 1122 z "},"+":{"ha":803,"x_min":0,"x_max":0,"o":"m 313 204 b 250 267 271 204 250 225 l 250 413 l 104 413 b 42 475 63 413 42 433 l 42 544 b 104 607 42 586 63 607 l 250 607 l 250 753 b 313 815 250 794 271 815 l 382 815 b 444 753 424 815 444 794 l 444 607 l 590 607 b 653 544 632 607 653 586 l 653 475 b 590 413 653 433 632 413 l 444 413 l 444 267 b 382 204 444 225 424 204 z "},"=":{"ha":736,"x_min":0,"x_max":0,"o":"m 524 765 b 586 703 565 765 586 744 l 586 635 b 524 572 586 593 565 572 l 104 572 b 42 635 63 572 42 593 l 42 703 b 104 765 42 744 63 765 z m 524 446 b 586 383 565 446 586 425 l 586 314 b 524 251 586 272 565 251 l 104 251 b 42 314 63 251 42 272 l 42 383 b 104 446 42 425 63 446 z "},"@":{"ha":1253,"x_min":0,"x_max":0,"o":"m 617 -24 b 213 128 461 -24 318 32 b 42 524 107 224 42 361 b 213 918 42 686 107 822 b 617 1069 318 1014 461 1069 b 1003 929 767 1069 903 1018 b 1163 561 1101 839 1163 711 b 1100 360 1163 468 1138 403 b 967 299 1063 317 1015 299 b 856 339 922 299 878 315 b 808 417 832 361 815 388 b 750 329 808 396 788 360 b 599 272 713 299 660 272 b 481 304 561 272 524 282 b 347 521 396 350 347 431 b 489 764 347 614 407 722 b 613 794 529 785 571 794 b 739 765 651 794 697 788 b 847 650 781 743 819 707 b 871 583 858 628 867 606 b 906 472 881 538 889 499 b 943 449 913 460 925 451 b 994 469 971 449 986 453 b 1003 561 1003 486 1003 513 b 893 807 1003 661 961 746 b 617 903 825 868 728 903 b 342 792 507 903 411 860 b 228 524 272 724 228 628 b 343 263 228 419 271 328 b 617 158 414 197 511 158 b 815 210 713 158 778 186 b 863 228 833 222 849 228 b 903 214 876 228 890 224 l 949 183 b 981 139 969 169 981 154 b 892 47 981 106 933 72 b 729 -14 850 22 796 -1 b 617 -24 694 -21 657 -24 z m 607 451 b 692 538 667 451 692 494 b 618 618 692 582 672 618 b 551 589 585 618 565 606 b 532 538 538 572 532 553 b 607 451 532 494 550 451 z "},"-":{"ha":818,"x_min":0,"x_max":0,"o":"m 593 607 b 656 544 635 607 656 586 l 656 475 b 593 413 656 433 635 413 l 107 413 b 44 475 65 413 44 433 l 44 544 b 107 607 44 586 65 607 z "},"“":{"ha":758,"x_min":0,"x_max":0,"o":"m 185 647 b 83 689 146 647 110 663 b 42 790 57 715 42 751 b 81 900 42 839 65 879 b 138 971 88 913 110 939 b 229 1064 164 1003 197 1036 b 286 1036 239 1071 258 1063 b 292 1029 289 1033 290 1031 b 271 969 310 1007 292 990 l 222 913 b 300 868 254 907 282 890 b 329 790 318 846 329 818 b 288 689 329 751 314 715 b 185 647 260 663 224 647 z m 538 647 b 436 689 499 647 463 663 b 393 790 408 715 393 751 b 432 900 393 839 417 879 b 489 971 439 913 461 939 b 581 1064 515 1003 549 1036 b 638 1036 590 1071 610 1063 b 643 1029 640 1033 642 1031 b 624 969 661 1007 644 992 b 593 936 611 957 600 946 l 575 913 b 651 868 607 907 633 890 b 681 790 669 846 681 818 b 639 689 681 751 665 715 b 538 647 613 663 576 647 z "},"‘":{"ha":425,"x_min":0,"x_max":0,"o":"m 185 647 b 83 689 146 647 110 663 b 42 790 57 715 42 751 b 81 900 42 839 65 879 b 138 971 88 913 110 939 b 229 1064 164 1003 197 1036 b 286 1036 239 1071 258 1063 b 292 1029 289 1033 290 1031 b 271 969 310 1007 292 990 l 222 913 b 300 868 254 907 282 890 b 329 790 318 846 329 818 b 288 689 329 751 314 715 b 185 647 260 663 224 647 z "},"’":{"ha":425,"x_min":0,"x_max":0,"o":"m 186 1075 b 288 1033 225 1075 261 1060 b 329 932 314 1007 329 971 b 290 822 329 883 306 843 b 235 751 283 810 261 783 b 142 658 207 719 174 686 b 85 686 132 651 113 660 b 79 693 82 689 81 692 b 100 753 61 715 79 732 l 149 810 b 71 854 117 815 89 832 b 42 932 53 876 42 904 b 85 1033 42 971 57 1007 b 186 1075 111 1060 147 1075 z "},"”":{"ha":775,"x_min":0,"x_max":0,"o":"m 199 1075 b 301 1033 238 1075 274 1060 b 343 932 328 1007 343 971 b 304 822 343 883 319 843 b 249 751 297 810 275 783 b 156 658 221 719 188 686 b 99 686 146 651 126 660 b 93 693 96 689 94 692 b 113 753 75 715 92 731 b 143 788 125 765 136 778 b 161 810 150 797 157 804 b 85 854 129 815 103 832 b 56 932 67 876 56 904 b 97 1033 56 971 71 1007 b 199 1075 124 1060 160 1075 z m 551 1075 b 653 1033 590 1075 626 1060 b 694 932 679 1007 694 971 b 656 822 694 883 671 843 b 600 751 649 810 626 783 b 507 658 572 719 539 686 b 450 686 497 651 478 660 b 444 693 447 689 446 692 b 465 753 426 715 444 732 l 514 810 b 436 854 482 815 454 832 b 407 932 418 876 407 904 b 450 1033 407 971 422 1007 b 551 1075 476 1060 513 1075 z "},"\"":{"ha":622,"x_min":0,"x_max":0,"o":"m 272 924 b 271 917 272 922 272 919 b 265 892 269 913 268 904 b 250 832 261 878 257 858 b 224 724 243 806 235 769 b 153 663 214 683 190 663 b 117 717 138 663 126 681 l 67 924 b 64 947 65 931 64 938 b 169 1061 64 1025 110 1061 b 274 947 229 1061 274 1025 l 274 936 b 272 924 274 933 274 929 z m 525 924 b 524 917 525 922 525 919 b 518 892 522 913 521 904 b 503 832 514 878 510 858 b 476 724 496 806 488 769 b 406 663 467 683 443 663 b 369 717 390 663 379 681 l 319 924 b 317 947 318 931 317 938 b 422 1061 317 1025 363 1061 b 526 947 482 1061 526 1025 l 526 936 b 525 924 526 933 526 929 z "},"'":{"ha":346,"x_min":0,"x_max":0,"o":"m 258 924 b 257 917 258 922 258 919 b 251 892 256 913 254 904 b 236 832 247 878 243 858 b 210 724 229 806 221 769 b 139 663 200 683 176 663 b 103 717 124 663 113 681 l 53 924 b 50 947 51 931 50 938 b 156 1061 50 1025 96 1061 b 260 947 215 1061 260 1025 l 260 936 b 258 924 260 933 260 929 z "},"•":{"ha":647,"x_min":0,"x_max":0,"o":"m 257 294 b 115 353 201 294 151 317 b 57 493 79 389 57 438 b 115 635 57 549 79 599 b 257 693 151 671 201 693 b 399 635 313 693 363 671 b 457 493 435 599 457 549 b 399 353 457 438 435 389 b 257 294 363 317 313 294 z "},":":{"ha":518,"x_min":0,"x_max":0,"o":"m 217 679 b 113 722 176 679 139 694 b 69 825 86 749 69 785 b 217 972 69 908 133 972 b 319 929 257 972 293 956 b 363 825 346 903 363 865 b 319 722 363 785 346 749 b 217 679 293 694 257 679 z m 217 47 b 113 90 176 47 139 63 b 69 193 86 117 69 153 b 217 340 69 276 133 340 b 319 297 257 340 293 324 b 363 193 346 271 363 233 b 319 90 363 153 346 117 b 217 47 293 63 257 47 z "},";":{"ha":518,"x_min":0,"x_max":0,"o":"m 217 679 b 113 722 176 679 139 694 b 69 825 86 749 69 785 b 217 972 69 908 133 972 b 319 929 257 972 293 956 b 363 825 346 903 363 865 b 319 722 363 785 346 749 b 217 679 293 694 257 679 z m 214 69 b 110 103 171 64 136 79 b 69 192 83 126 69 160 b 114 297 69 232 86 269 b 218 340 140 324 178 340 b 325 297 258 340 297 324 b 368 192 351 269 368 232 b 329 58 368 140 344 85 b 276 -7 322 47 303 21 b 194 -78 250 -35 221 -65 b 140 -96 179 -85 158 -93 b 106 -78 122 -99 107 -94 b 140 -35 104 -60 118 -51 b 213 61 163 -18 190 7 b 214 68 214 63 214 65 z "},"<":{"ha":707,"x_min":0,"x_max":0,"o":"m 571 182 b 497 136 571 133 540 115 l 104 332 b 58 406 74 347 58 371 l 58 583 b 104 657 58 618 74 642 l 497 853 b 571 807 540 874 571 856 l 571 725 b 526 651 571 692 556 667 l 218 494 l 526 338 b 571 264 556 322 571 297 z "},">":{"ha":707,"x_min":0,"x_max":0,"o":"m 58 264 b 103 338 58 297 74 322 l 411 494 l 103 651 b 58 725 74 667 58 692 l 58 807 b 132 853 58 856 89 874 l 525 657 b 571 583 556 642 571 618 l 571 406 b 525 332 571 371 556 347 l 132 136 b 58 182 89 115 58 133 z "},"™":{"ha":839,"x_min":0,"x_max":0,"o":"m 190 667 b 144 729 160 667 144 688 l 144 936 l 110 936 b 47 985 68 936 47 953 b 110 1028 47 1014 68 1028 l 271 1028 b 333 979 311 1028 333 1019 b 271 936 333 947 311 936 l 236 936 l 236 729 b 190 667 236 688 221 667 z m 392 965 b 440 1028 392 1006 400 1028 b 496 981 468 1028 481 1014 l 575 808 l 654 981 b 718 1028 669 1014 683 1028 b 758 965 751 1028 758 1006 l 758 729 b 713 667 758 689 753 667 b 665 729 681 667 665 688 l 665 815 l 624 715 b 575 667 608 682 601 667 b 526 715 551 667 539 682 l 485 814 l 485 729 b 436 667 485 688 468 667 b 392 729 403 667 392 689 z "},"®":{"ha":1157,"x_min":0,"x_max":0,"o":"m 581 -19 b 200 139 432 -19 297 42 b 42 519 103 236 42 371 b 200 901 42 668 103 804 b 581 1058 297 999 432 1058 b 963 901 729 1058 865 999 b 1119 519 1060 804 1119 668 b 963 139 1119 371 1060 236 b 581 -19 865 42 729 -19 z m 581 872 b 332 769 482 872 396 833 b 228 519 268 706 228 615 b 332 271 228 421 268 335 b 581 167 396 207 482 167 b 831 271 676 167 767 207 b 933 519 894 335 933 421 b 831 769 933 615 894 706 b 581 872 767 833 676 872 z m 740 588 b 696 486 740 549 725 508 b 685 479 692 482 688 481 b 678 476 681 478 679 476 l 713 394 b 664 322 731 351 713 322 b 614 372 643 322 626 339 l 579 464 l 531 464 l 531 385 b 468 322 531 343 510 322 b 431 385 443 322 431 343 l 431 656 b 493 718 431 697 451 718 l 617 718 b 701 688 650 718 678 708 b 740 588 719 672 740 636 z m 643 588 b 611 621 643 608 632 621 l 531 621 l 531 554 l 607 554 b 643 588 628 554 643 567 z "},"A":{"ha":1144,"x_min":0,"x_max":0,"o":"m 622 1028 b 694 978 657 1028 682 1011 l 1011 72 b 960 0 1026 28 1008 0 l 811 0 b 740 51 775 0 751 17 l 697 178 l 392 178 l 349 51 b 276 0 336 17 313 0 l 126 0 b 75 72 78 0 60 28 l 393 978 b 464 1028 406 1011 429 1028 z m 639 406 l 543 690 l 456 406 z "},"B":{"ha":1018,"x_min":0,"x_max":0,"o":"m 118 0 b 56 63 76 0 56 21 l 56 965 b 118 1028 56 1007 76 1028 l 504 1028 b 726 950 592 1028 667 1001 b 794 869 749 929 775 906 b 828 724 814 833 828 786 l 828 722 b 796 607 828 679 814 639 b 732 543 778 574 753 550 b 819 483 750 539 786 521 b 886 325 853 446 881 393 b 864 189 888 286 883 238 b 765 58 844 140 811 93 b 578 0 719 24 657 0 z m 306 794 l 306 622 l 490 622 b 553 643 511 622 535 629 b 583 704 569 657 583 676 b 504 794 583 750 560 794 z m 306 410 l 306 238 l 533 238 b 624 324 583 238 624 264 b 525 410 624 383 586 410 z "},"C":{"ha":1132,"x_min":0,"x_max":0,"o":"m 590 -26 b 208 132 442 -26 307 33 b 50 514 110 231 50 365 b 208 896 50 664 110 797 b 590 1054 307 994 442 1054 b 971 899 735 1054 869 999 b 963 811 1000 869 996 838 l 853 725 b 765 729 821 699 797 703 b 590 792 715 771 657 792 b 394 710 514 792 444 760 b 313 514 344 660 313 590 b 394 318 313 438 344 368 b 590 238 444 268 514 238 b 760 296 654 238 711 257 b 849 299 792 319 817 325 l 956 208 b 960 119 988 182 992 149 b 590 -26 860 25 729 -26 z "},"´":{"ha":331,"x_min":0,"x_max":0,"o":"m 190 1299 b 265 1183 294 1365 367 1250 b 132 1118 222 1156 172 1131 b 78 1108 111 1111 93 1108 b 47 1154 46 1108 35 1126 b 128 1251 58 1182 88 1217 b 190 1299 147 1268 168 1283 z "},"`":{"ha":326,"x_min":0,"x_max":0,"o":"m 163 1299 b 276 1200 207 1269 249 1233 b 307 1121 304 1167 318 1138 b 275 1108 301 1113 290 1108 b 156 1146 243 1108 203 1122 b 49 1292 108 1168 -1 1214 b 163 1299 72 1329 111 1332 z "},"ˆ":{"ha":447,"x_min":0,"x_max":0,"o":"m 226 1204 l 171 1139 b 107 1110 154 1119 133 1110 l 86 1110 b 57 1174 43 1110 29 1139 l 161 1303 b 225 1332 178 1322 199 1332 l 228 1332 b 290 1303 254 1332 275 1322 l 394 1174 b 365 1110 424 1139 410 1110 l 346 1110 b 281 1139 319 1110 297 1119 z "},"ˇ":{"ha":438,"x_min":0,"x_max":0,"o":"m 226 1238 l 281 1303 b 346 1332 297 1322 319 1332 l 365 1332 b 394 1268 410 1332 424 1303 l 290 1139 b 228 1110 275 1119 254 1110 l 225 1110 b 161 1139 199 1110 178 1119 l 57 1268 b 86 1332 29 1303 43 1332 l 107 1332 b 171 1303 133 1332 154 1322 z "},"¨":{"ha":528,"x_min":0,"x_max":0,"o":"m 138 1114 b 49 1204 89 1114 49 1154 b 138 1294 49 1254 89 1294 b 228 1204 188 1294 228 1254 b 138 1114 228 1154 188 1114 z m 406 1114 b 317 1204 357 1114 317 1154 b 406 1294 317 1254 357 1294 b 496 1204 456 1294 496 1254 b 406 1114 496 1154 456 1114 z "},"˙":{"ha":264,"x_min":0,"x_max":0,"o":"m 138 1114 b 49 1204 89 1114 49 1154 b 138 1294 49 1254 89 1294 b 228 1204 188 1294 228 1254 b 138 1114 228 1154 188 1114 z "},"˝":{"ha":528,"x_min":0,"x_max":0,"o":"m 185 1294 b 258 1199 264 1363 336 1265 b 156 1128 225 1169 188 1143 b 83 1122 122 1113 94 1107 b 101 1197 72 1135 82 1164 b 185 1294 121 1229 151 1265 z m 393 1294 b 467 1199 472 1363 544 1265 b 364 1128 433 1169 396 1143 b 292 1122 331 1113 303 1107 b 310 1197 281 1135 290 1164 b 393 1294 329 1229 360 1265 z "},"¯":{"ha":597,"x_min":0,"x_max":0,"o":"m 510 1246 b 572 1183 551 1246 572 1225 b 510 1121 572 1142 551 1121 l 107 1121 b 44 1183 65 1121 44 1142 b 107 1246 44 1225 65 1246 z "},"˘":{"ha":403,"x_min":0,"x_max":0,"o":"m 226 1226 b 304 1285 269 1226 288 1257 b 367 1332 321 1313 335 1339 b 396 1268 399 1325 400 1292 b 335 1151 386 1218 365 1178 b 228 1110 304 1124 267 1110 b 122 1151 193 1110 154 1124 b 57 1268 90 1178 64 1218 b 86 1332 53 1292 54 1325 b 147 1286 118 1338 131 1314 b 219 1226 163 1258 181 1228 z "},"¸":{"ha":425,"x_min":0,"x_max":0,"o":"m 178 13 b 244 81 183 58 215 81 b 303 13 274 81 303 58 b 301 -28 303 -3 303 -17 b 307 -69 299 -50 299 -64 b 328 -71 311 -72 318 -72 b 378 -67 343 -68 360 -67 b 471 -108 413 -67 446 -81 b 499 -167 483 -122 492 -142 b 368 -347 522 -261 475 -321 b 222 -350 301 -364 246 -361 b 208 -294 201 -340 197 -315 b 246 -269 214 -285 226 -276 b 322 -253 264 -264 290 -258 b 393 -197 374 -243 394 -218 b 329 -171 392 -176 368 -160 b 190 -175 281 -183 222 -197 b 171 -107 178 -165 171 -142 b 178 13 171 -72 174 -33 z "},"Ç":{"ha":1132,"x_min":0,"x_max":0,"o":"m 849 299 b 760 296 817 325 792 319 b 590 238 711 257 654 238 b 394 318 514 238 444 268 b 313 514 344 368 313 438 b 394 710 313 590 344 660 b 590 792 444 760 514 792 b 765 729 657 792 715 771 b 853 725 797 703 821 699 l 963 811 b 971 899 996 838 1000 869 b 590 1054 869 999 735 1054 b 208 896 442 1054 307 994 b 50 514 110 797 50 664 b 208 132 50 365 110 231 b 479 -15 282 58 375 7 b 475 -107 476 -49 475 -79 b 494 -175 475 -142 482 -165 b 633 -171 526 -197 585 -183 b 697 -197 672 -160 696 -176 b 626 -253 699 -218 678 -243 b 550 -269 594 -258 568 -264 b 513 -294 531 -276 518 -285 b 526 -350 501 -315 506 -340 b 672 -347 550 -361 606 -364 b 803 -167 779 -321 826 -261 b 775 -108 796 -142 788 -122 b 682 -67 750 -81 717 -67 b 632 -71 664 -67 647 -68 b 611 -69 622 -72 615 -72 b 606 -28 603 -64 603 -50 l 606 -26 b 960 119 739 -22 864 29 b 956 208 992 149 988 182 z "},"˚":{"ha":256,"x_min":0,"x_max":0,"o":"m 143 1106 b 36 1210 83 1106 36 1153 b 143 1318 36 1271 83 1318 b 251 1210 204 1318 251 1271 b 143 1106 251 1153 204 1106 z m 143 1253 b 100 1210 121 1253 100 1233 b 143 1168 100 1188 121 1168 b 186 1210 167 1168 186 1188 b 143 1253 186 1233 167 1253 z "},"°":{"ha":335,"x_min":0,"x_max":0,"o":"m 175 803 b 79 843 138 803 104 818 b 38 936 54 868 38 899 b 79 1036 38 975 54 1011 b 175 1076 104 1061 138 1076 b 274 1036 214 1076 249 1061 b 314 936 299 1011 314 975 b 274 843 314 899 299 868 b 175 803 249 818 214 803 z m 175 992 b 119 936 146 992 119 968 b 175 883 119 908 146 883 b 231 936 207 883 231 908 b 175 992 231 968 207 992 z "},"º":{"ha":318,"x_min":0,"x_max":0,"o":"m 161 803 b 65 843 124 803 90 818 b 24 936 40 868 24 899 b 65 1036 24 975 40 1011 b 161 1076 90 1061 124 1076 b 260 1036 200 1076 235 1061 b 300 936 285 1011 300 975 b 260 843 300 899 285 868 b 161 803 235 818 200 803 z m 161 992 b 106 936 132 992 106 968 b 161 883 106 908 132 883 b 217 936 193 883 217 908 b 161 992 217 968 193 992 z "},"˜":{"ha":603,"x_min":0,"x_max":0,"o":"m 286 1156 b 217 1189 260 1174 244 1182 b 125 1154 176 1199 149 1175 b 53 1126 101 1132 81 1111 b 43 1197 24 1143 32 1175 b 176 1297 72 1258 121 1290 b 347 1247 231 1304 292 1286 b 415 1214 374 1229 388 1224 b 507 1250 456 1204 483 1228 b 579 1276 529 1271 551 1292 b 590 1207 608 1260 600 1229 b 457 1106 558 1144 511 1111 b 286 1156 401 1099 340 1117 z "},"Á":{"ha":1144,"x_min":0,"x_max":0,"o":"m 603 1299 b 678 1183 707 1365 779 1250 b 544 1118 635 1156 585 1131 b 490 1108 524 1111 506 1108 b 460 1154 458 1108 447 1126 b 540 1251 471 1182 500 1217 b 603 1299 560 1268 581 1283 z m 622 1028 b 694 978 657 1028 682 1011 l 1011 72 b 960 0 1026 28 1008 0 l 811 0 b 740 51 775 0 751 17 l 697 178 l 392 178 l 349 51 b 276 0 336 17 313 0 l 126 0 b 75 72 78 0 60 28 l 393 978 b 464 1028 406 1011 429 1028 z m 639 406 l 543 690 l 456 406 z "},"Â":{"ha":1144,"x_min":0,"x_max":0,"o":"m 542 1204 l 486 1139 b 422 1110 469 1119 449 1110 l 401 1110 b 372 1174 358 1110 344 1139 l 476 1303 b 540 1332 493 1322 514 1332 l 543 1332 b 606 1303 569 1332 590 1322 l 710 1174 b 681 1110 739 1139 725 1110 l 661 1110 b 596 1139 635 1110 613 1119 z m 622 1028 b 694 978 657 1028 682 1011 l 1011 72 b 960 0 1026 28 1008 0 l 811 0 b 740 51 775 0 751 17 l 697 178 l 392 178 l 349 51 b 276 0 336 17 313 0 l 126 0 b 75 72 78 0 60 28 l 393 978 b 464 1028 406 1011 429 1028 z m 639 406 l 543 690 l 456 406 z "},"À":{"ha":1144,"x_min":0,"x_max":0,"o":"m 465 1299 b 579 1200 510 1269 551 1233 b 610 1121 607 1167 621 1138 b 578 1108 604 1113 593 1108 b 458 1146 546 1108 506 1122 b 351 1292 411 1168 301 1214 b 465 1299 375 1329 414 1332 z m 622 1028 b 694 978 657 1028 682 1011 l 1011 72 b 960 0 1026 28 1008 0 l 811 0 b 740 51 775 0 751 17 l 697 178 l 392 178 l 349 51 b 276 0 336 17 313 0 l 126 0 b 75 72 78 0 60 28 l 393 978 b 464 1028 406 1011 429 1028 z m 639 406 l 543 690 l 456 406 z "},"Ä":{"ha":1144,"x_min":0,"x_max":0,"o":"m 407 1114 b 318 1204 358 1114 318 1154 b 407 1294 318 1254 358 1294 b 497 1204 457 1294 497 1254 b 407 1114 497 1154 457 1114 z m 675 1114 b 586 1204 626 1114 586 1154 b 675 1294 586 1254 626 1294 b 765 1204 725 1294 765 1254 b 675 1114 765 1154 725 1114 z m 622 1028 b 694 978 657 1028 682 1011 l 1011 72 b 960 0 1026 28 1008 0 l 811 0 b 740 51 775 0 751 17 l 697 178 l 392 178 l 349 51 b 276 0 336 17 313 0 l 126 0 b 75 72 78 0 60 28 l 393 978 b 464 1028 406 1011 429 1028 z m 639 406 l 543 690 l 456 406 z "},"Å":{"ha":1144,"x_min":0,"x_max":0,"o":"m 539 1106 b 432 1210 479 1106 432 1153 b 539 1318 432 1271 479 1318 b 647 1210 600 1318 647 1271 b 539 1106 647 1153 600 1106 z m 539 1253 b 496 1210 517 1253 496 1233 b 539 1168 496 1188 517 1168 b 582 1210 563 1168 582 1188 b 539 1253 582 1233 563 1253 z m 622 1028 b 694 978 657 1028 682 1011 l 1011 72 b 960 0 1026 28 1008 0 l 811 0 b 740 51 775 0 751 17 l 697 178 l 392 178 l 349 51 b 276 0 336 17 313 0 l 126 0 b 75 72 78 0 60 28 l 393 978 b 464 1028 406 1011 429 1028 z m 639 406 l 543 690 l 456 406 z "},"Ã":{"ha":1144,"x_min":0,"x_max":0,"o":"m 510 1156 b 440 1189 483 1174 468 1182 b 349 1154 400 1199 372 1175 b 276 1126 325 1132 304 1111 b 267 1197 247 1143 256 1175 b 400 1297 296 1258 344 1290 b 571 1247 454 1304 515 1286 b 639 1214 597 1229 611 1224 b 731 1250 679 1204 707 1228 b 803 1276 753 1271 775 1292 b 814 1207 832 1260 824 1229 b 681 1106 782 1144 735 1111 b 510 1156 625 1099 564 1117 z m 622 1028 b 694 978 657 1028 682 1011 l 1011 72 b 960 0 1026 28 1008 0 l 811 0 b 740 51 775 0 751 17 l 697 178 l 392 178 l 349 51 b 276 0 336 17 313 0 l 126 0 b 75 72 78 0 60 28 l 393 978 b 464 1028 406 1011 429 1028 z m 639 406 l 543 690 l 456 406 z "},"Æ":{"ha":1597,"x_min":0,"x_max":0,"o":"m 1490 63 b 1428 0 1490 21 1469 0 l 824 0 b 771 51 788 0 769 17 l 771 178 l 465 178 l 379 51 b 289 0 354 17 324 0 l 140 0 b 114 72 92 0 82 28 l 743 978 b 832 1028 767 1011 796 1028 l 1428 1028 b 1490 965 1469 1028 1490 1007 l 1490 828 b 1428 765 1490 786 1469 765 l 1032 765 l 1032 636 l 1324 636 b 1386 574 1365 636 1386 615 l 1386 456 b 1324 393 1386 414 1365 393 l 1032 393 l 1032 263 l 1428 263 b 1490 200 1469 263 1490 242 z m 792 406 l 792 692 l 608 406 z "},"É":{"ha":963,"x_min":0,"x_max":0,"o":"m 454 1299 b 529 1183 558 1365 631 1250 b 396 1118 486 1156 436 1131 b 342 1108 375 1111 357 1108 b 311 1154 310 1108 299 1126 b 392 1251 322 1182 351 1217 b 454 1299 411 1268 432 1283 z m 776 63 b 714 0 776 21 756 0 l 118 0 b 56 63 76 0 56 21 l 56 965 b 118 1028 56 1007 76 1028 l 714 1028 b 776 965 756 1028 776 1007 l 776 828 b 714 765 776 786 756 765 l 318 765 l 318 636 l 610 636 b 672 574 651 636 672 615 l 672 456 b 610 393 672 414 651 393 l 318 393 l 318 263 l 714 263 b 776 200 756 263 776 242 z "},"Ê":{"ha":963,"x_min":0,"x_max":0,"o":"m 400 1204 l 344 1139 b 281 1110 328 1119 307 1110 l 260 1110 b 231 1174 217 1110 203 1139 l 335 1303 b 399 1332 351 1322 372 1332 l 401 1332 b 464 1303 428 1332 449 1322 l 568 1174 b 539 1110 597 1139 583 1110 l 519 1110 b 454 1139 493 1110 471 1119 z m 776 63 b 714 0 776 21 756 0 l 118 0 b 56 63 76 0 56 21 l 56 965 b 118 1028 56 1007 76 1028 l 714 1028 b 776 965 756 1028 776 1007 l 776 828 b 714 765 776 786 756 765 l 318 765 l 318 636 l 610 636 b 672 574 651 636 672 615 l 672 456 b 610 393 672 414 651 393 l 318 393 l 318 263 l 714 263 b 776 200 756 263 776 242 z "},"Ë":{"ha":963,"x_min":0,"x_max":0,"o":"m 261 1114 b 172 1204 213 1114 172 1154 b 261 1294 172 1254 213 1294 b 351 1204 311 1294 351 1254 b 261 1114 351 1154 311 1114 z m 529 1114 b 440 1204 481 1114 440 1154 b 529 1294 440 1254 481 1294 b 619 1204 579 1294 619 1254 b 529 1114 619 1154 579 1114 z m 776 63 b 714 0 776 21 756 0 l 118 0 b 56 63 76 0 56 21 l 56 965 b 118 1028 56 1007 76 1028 l 714 1028 b 776 965 756 1028 776 1007 l 776 828 b 714 765 776 786 756 765 l 318 765 l 318 636 l 610 636 b 672 574 651 636 672 615 l 672 456 b 610 393 672 414 651 393 l 318 393 l 318 263 l 714 263 b 776 200 756 263 776 242 z "},"È":{"ha":963,"x_min":0,"x_max":0,"o":"m 339 1299 b 453 1200 383 1269 425 1233 b 483 1121 481 1167 494 1138 b 451 1108 478 1113 467 1108 b 332 1146 419 1108 379 1122 b 225 1292 285 1168 175 1214 b 339 1299 249 1329 288 1332 z m 776 63 b 714 0 776 21 756 0 l 118 0 b 56 63 76 0 56 21 l 56 965 b 118 1028 56 1007 76 1028 l 714 1028 b 776 965 756 1028 776 1007 l 776 828 b 714 765 776 786 756 765 l 318 765 l 318 636 l 610 636 b 672 574 651 636 672 615 l 672 456 b 610 393 672 414 651 393 l 318 393 l 318 263 l 714 263 b 776 200 756 263 776 242 z "},"Í":{"ha":483,"x_min":0,"x_max":0,"o":"m 221 1299 b 296 1183 325 1365 397 1250 b 163 1118 253 1156 203 1131 b 108 1108 142 1111 124 1108 b 78 1154 76 1108 65 1126 b 158 1251 89 1182 118 1217 b 221 1299 178 1268 199 1283 z m 256 1028 b 318 965 297 1028 318 1007 l 318 63 b 256 0 318 21 297 0 l 118 0 b 56 63 76 0 56 21 l 56 965 b 118 1028 56 1007 76 1028 z "},"Î":{"ha":483,"x_min":0,"x_max":0,"o":"m 185 1204 l 129 1139 b 65 1110 113 1119 92 1110 l 44 1110 b 15 1174 1 1110 -12 1139 l 119 1303 b 183 1332 136 1322 157 1332 l 186 1332 b 249 1303 213 1332 233 1322 l 353 1174 b 324 1110 382 1139 368 1110 l 304 1110 b 239 1139 278 1110 256 1119 z m 256 1028 b 318 965 297 1028 318 1007 l 318 63 b 256 0 318 21 297 0 l 118 0 b 56 63 76 0 56 21 l 56 965 b 118 1028 56 1007 76 1028 z "},"Ï":{"ha":483,"x_min":0,"x_max":0,"o":"m 46 1114 b -43 1204 -3 1114 -43 1154 b 46 1294 -43 1254 -3 1294 b 136 1204 96 1294 136 1254 b 46 1114 136 1154 96 1114 z m 314 1114 b 225 1204 265 1114 225 1154 b 314 1294 225 1254 265 1294 b 404 1204 364 1294 404 1254 b 314 1114 404 1154 364 1114 z m 256 1028 b 318 965 297 1028 318 1007 l 318 63 b 256 0 318 21 297 0 l 118 0 b 56 63 76 0 56 21 l 56 965 b 118 1028 56 1007 76 1028 z "},"Ì":{"ha":483,"x_min":0,"x_max":0,"o":"m 113 1299 b 226 1200 157 1269 199 1233 b 257 1121 254 1167 268 1138 b 225 1108 251 1113 240 1108 b 106 1146 193 1108 153 1122 b -1 1292 58 1168 -51 1214 b 113 1299 22 1329 61 1332 z m 256 1028 b 318 965 297 1028 318 1007 l 318 63 b 256 0 318 21 297 0 l 118 0 b 56 63 76 0 56 21 l 56 965 b 118 1028 56 1007 76 1028 z "},"Ñ":{"ha":1079,"x_min":0,"x_max":0,"o":"m 425 1156 b 356 1189 399 1174 383 1182 b 264 1154 315 1199 288 1175 b 192 1126 240 1132 219 1111 b 182 1197 163 1143 171 1175 b 315 1297 211 1258 260 1290 b 486 1247 369 1304 431 1286 b 554 1214 513 1229 526 1224 b 646 1250 594 1204 622 1228 b 718 1276 668 1271 690 1292 b 729 1207 747 1260 739 1229 b 596 1106 697 1144 650 1111 b 425 1156 540 1099 479 1117 z m 118 0 b 56 63 76 0 56 21 l 56 965 b 118 1028 56 1007 76 1028 l 238 1028 b 314 988 269 1028 296 1014 l 635 522 l 635 965 b 697 1028 635 1007 656 1028 l 835 1028 b 897 965 876 1028 897 1007 l 897 63 b 835 0 897 21 876 0 l 715 0 b 639 40 683 0 657 14 l 318 510 l 318 63 b 256 0 318 21 297 0 z "},"Ó":{"ha":1268,"x_min":0,"x_max":0,"o":"m 647 1299 b 722 1183 751 1365 824 1250 b 589 1118 679 1156 629 1131 b 535 1108 568 1111 550 1108 b 504 1154 503 1108 492 1126 b 585 1251 515 1182 544 1217 b 647 1299 604 1268 625 1283 z m 596 -25 b 214 133 446 -25 313 36 b 56 514 115 231 56 365 b 214 896 56 664 115 797 b 596 1054 313 994 446 1054 b 978 896 744 1054 879 994 b 1136 514 1076 797 1136 664 b 978 133 1136 365 1076 231 b 596 -25 879 36 744 -25 z m 596 792 b 400 710 519 792 450 760 b 318 514 350 660 318 590 b 400 318 318 438 350 368 b 596 238 450 268 519 238 b 792 318 672 238 742 268 b 872 514 842 368 872 438 b 792 710 872 590 842 660 b 596 792 742 760 672 792 z "},"Ô":{"ha":1268,"x_min":0,"x_max":0,"o":"m 588 1204 l 532 1139 b 468 1110 515 1119 494 1110 l 447 1110 b 418 1174 404 1110 390 1139 l 522 1303 b 586 1332 539 1322 560 1332 l 589 1332 b 651 1303 615 1332 636 1322 l 756 1174 b 726 1110 785 1139 771 1110 l 707 1110 b 642 1139 681 1110 658 1119 z m 596 -25 b 214 133 446 -25 313 36 b 56 514 115 231 56 365 b 214 896 56 664 115 797 b 596 1054 313 994 446 1054 b 978 896 744 1054 879 994 b 1136 514 1076 797 1136 664 b 978 133 1136 365 1076 231 b 596 -25 879 36 744 -25 z m 596 792 b 400 710 519 792 450 760 b 318 514 350 660 318 590 b 400 318 318 438 350 368 b 596 238 450 268 519 238 b 792 318 672 238 742 268 b 872 514 842 368 872 438 b 792 710 872 590 842 660 b 596 792 742 760 672 792 z "},"Ö":{"ha":1268,"x_min":0,"x_max":0,"o":"m 446 1114 b 357 1204 397 1114 357 1154 b 446 1294 357 1254 397 1294 b 536 1204 496 1294 536 1254 b 446 1114 536 1154 496 1114 z m 714 1114 b 625 1204 665 1114 625 1154 b 714 1294 625 1254 665 1294 b 804 1204 764 1294 804 1254 b 714 1114 804 1154 764 1114 z m 596 -25 b 214 133 446 -25 313 36 b 56 514 115 231 56 365 b 214 896 56 664 115 797 b 596 1054 313 994 446 1054 b 978 896 744 1054 879 994 b 1136 514 1076 797 1136 664 b 978 133 1136 365 1076 231 b 596 -25 879 36 744 -25 z m 596 792 b 400 710 519 792 450 760 b 318 514 350 660 318 590 b 400 318 318 438 350 368 b 596 238 450 268 519 238 b 792 318 672 238 742 268 b 872 514 842 368 872 438 b 792 710 872 590 842 660 b 596 792 742 760 672 792 z "},"Ò":{"ha":1268,"x_min":0,"x_max":0,"o":"m 499 1299 b 613 1200 543 1269 585 1233 b 643 1121 640 1167 654 1138 b 611 1108 638 1113 626 1108 b 492 1146 579 1108 539 1122 b 385 1292 444 1168 335 1214 b 499 1299 408 1329 447 1332 z m 596 -25 b 214 133 446 -25 313 36 b 56 514 115 231 56 365 b 214 896 56 664 115 797 b 596 1054 313 994 446 1054 b 978 896 744 1054 879 994 b 1136 514 1076 797 1136 664 b 978 133 1136 365 1076 231 b 596 -25 879 36 744 -25 z m 596 792 b 400 710 519 792 450 760 b 318 514 350 660 318 590 b 400 318 318 438 350 368 b 596 238 450 268 519 238 b 792 318 672 238 742 268 b 872 514 842 368 872 438 b 792 710 872 590 842 660 b 596 792 742 760 672 792 z "},"Ø":{"ha":1268,"x_min":0,"x_max":0,"o":"m 978 896 b 886 969 950 924 919 949 l 911 1051 b 858 1122 924 1094 904 1122 l 756 1122 b 686 1069 718 1122 696 1104 l 679 1047 b 596 1054 653 1051 625 1054 b 214 896 446 1054 313 994 b 56 514 115 797 56 664 b 214 133 56 365 115 231 b 374 24 260 88 314 50 l 357 -32 b 410 -103 344 -75 364 -103 l 513 -103 b 582 -50 550 -103 572 -85 l 589 -25 l 596 -25 b 978 133 744 -25 879 36 b 1136 514 1076 231 1136 365 b 978 896 1136 664 1076 797 z m 400 318 b 318 514 350 368 318 438 b 400 710 318 590 350 660 b 596 792 450 760 519 792 l 603 792 l 450 279 b 400 318 432 290 415 303 z m 792 318 b 671 247 758 285 717 261 l 804 696 b 872 514 847 647 872 583 b 792 318 872 438 842 368 z "},"Õ":{"ha":1268,"x_min":0,"x_max":0,"o":"m 582 1156 b 513 1189 556 1174 540 1182 b 421 1154 472 1199 444 1175 b 349 1126 397 1132 376 1111 b 339 1197 319 1143 328 1175 b 472 1297 368 1258 417 1290 b 643 1247 526 1304 588 1286 b 711 1214 669 1229 683 1224 b 803 1250 751 1204 779 1228 b 875 1276 825 1271 847 1292 b 886 1207 904 1260 896 1229 b 753 1106 854 1144 807 1111 b 582 1156 697 1099 636 1117 z m 596 -25 b 214 133 446 -25 313 36 b 56 514 115 231 56 365 b 214 896 56 664 115 797 b 596 1054 313 994 446 1054 b 978 896 744 1054 879 994 b 1136 514 1076 797 1136 664 b 978 133 1136 365 1076 231 b 596 -25 879 36 744 -25 z m 596 792 b 400 710 519 792 450 760 b 318 514 350 660 318 590 b 400 318 318 438 350 368 b 596 238 450 268 519 238 b 792 318 672 238 742 268 b 872 514 842 368 872 438 b 792 710 872 590 842 660 b 596 792 742 760 672 792 z "},"Œ":{"ha":1681,"x_min":0,"x_max":0,"o":"m 1135 765 l 1531 765 b 1593 828 1572 765 1593 786 l 1593 965 b 1531 1028 1593 1007 1572 1028 l 935 1028 b 874 978 897 1028 876 1011 b 596 1054 792 1026 697 1054 b 214 896 446 1054 313 994 b 56 514 115 797 56 664 b 214 133 56 365 115 231 b 596 -25 313 36 446 -25 b 872 51 697 -25 792 3 b 935 0 876 17 897 0 l 1531 0 b 1593 63 1572 0 1593 21 l 1593 200 b 1531 263 1593 242 1572 263 l 1135 263 l 1135 393 l 1426 393 b 1489 456 1468 393 1489 414 l 1489 574 b 1426 636 1489 615 1468 636 l 1135 636 z m 596 238 b 400 318 519 238 450 268 b 318 514 350 368 318 438 b 400 710 318 590 350 660 b 596 792 450 760 519 792 b 792 710 672 792 742 760 b 872 514 842 660 872 590 b 792 318 872 438 842 368 b 596 238 742 268 672 238 z "},"Ú":{"ha":1175,"x_min":0,"x_max":0,"o":"m 601 1299 b 676 1183 706 1365 778 1250 b 543 1118 633 1156 583 1131 b 489 1108 522 1111 504 1108 b 458 1154 457 1108 446 1126 b 539 1251 469 1182 499 1217 b 601 1299 558 1268 579 1283 z m 1008 482 b 878 132 1007 354 960 226 b 532 -25 794 38 676 -25 b 192 125 393 -25 275 32 b 56 482 108 218 60 344 l 56 965 b 118 1028 56 1007 76 1028 l 256 1028 b 318 965 297 1028 318 1007 l 318 482 b 381 303 318 410 342 347 b 532 231 419 257 472 231 b 682 303 589 231 643 257 b 744 482 721 347 744 410 l 744 965 b 807 1028 744 1007 765 1028 l 946 1028 b 1008 965 988 1028 1008 1007 z "},"Û":{"ha":1175,"x_min":0,"x_max":0,"o":"m 524 1204 l 468 1139 b 404 1110 451 1119 431 1110 l 383 1110 b 354 1174 340 1110 326 1139 l 458 1303 b 522 1332 475 1322 496 1332 l 525 1332 b 588 1303 551 1332 572 1322 l 692 1174 b 663 1110 721 1139 707 1110 l 643 1110 b 578 1139 617 1110 594 1119 z m 1008 482 b 878 132 1007 354 960 226 b 532 -25 794 38 676 -25 b 192 125 393 -25 275 32 b 56 482 108 218 60 344 l 56 965 b 118 1028 56 1007 76 1028 l 256 1028 b 318 965 297 1028 318 1007 l 318 482 b 381 303 318 410 342 347 b 532 231 419 257 472 231 b 682 303 589 231 643 257 b 744 482 721 347 744 410 l 744 965 b 807 1028 744 1007 765 1028 l 946 1028 b 1008 965 988 1028 1008 1007 z "},"Ü":{"ha":1175,"x_min":0,"x_max":0,"o":"m 393 1114 b 304 1204 344 1114 304 1154 b 393 1294 304 1254 344 1294 b 483 1204 443 1294 483 1254 b 393 1114 483 1154 443 1114 z m 661 1114 b 572 1204 613 1114 572 1154 b 661 1294 572 1254 613 1294 b 751 1204 711 1294 751 1254 b 661 1114 751 1154 711 1114 z m 1008 482 b 878 132 1007 354 960 226 b 532 -25 794 38 676 -25 b 192 125 393 -25 275 32 b 56 482 108 218 60 344 l 56 965 b 118 1028 56 1007 76 1028 l 256 1028 b 318 965 297 1028 318 1007 l 318 482 b 381 303 318 410 342 347 b 532 231 419 257 472 231 b 682 303 589 231 643 257 b 744 482 721 347 744 410 l 744 965 b 807 1028 744 1007 765 1028 l 946 1028 b 1008 965 988 1028 1008 1007 z "},"Ù":{"ha":1175,"x_min":0,"x_max":0,"o":"m 467 1299 b 581 1200 511 1269 553 1233 b 611 1121 608 1167 622 1138 b 579 1108 606 1113 594 1108 b 460 1146 547 1108 507 1122 b 353 1292 413 1168 303 1214 b 467 1299 376 1329 415 1332 z m 1008 482 b 878 132 1007 354 960 226 b 532 -25 794 38 676 -25 b 192 125 393 -25 275 32 b 56 482 108 218 60 344 l 56 965 b 118 1028 56 1007 76 1028 l 256 1028 b 318 965 297 1028 318 1007 l 318 482 b 381 303 318 410 342 347 b 532 231 419 257 472 231 b 682 303 589 231 643 257 b 744 482 721 347 744 410 l 744 965 b 807 1028 744 1007 765 1028 l 946 1028 b 1008 965 988 1028 1008 1007 z "},"Ÿ":{"ha":1051,"x_min":0,"x_max":0,"o":"m 381 1114 b 292 1204 332 1114 292 1154 b 381 1294 292 1254 332 1294 b 471 1204 431 1294 471 1254 b 381 1114 471 1154 431 1114 z m 649 1114 b 560 1204 600 1114 560 1154 b 649 1294 560 1254 600 1294 b 739 1204 699 1294 739 1254 b 649 1114 739 1154 699 1114 z m 447 0 b 385 63 406 0 385 21 l 385 478 l 89 953 b 131 1028 63 996 79 1028 l 296 1028 b 371 986 328 1028 353 1014 l 515 754 l 660 986 b 735 1028 678 1014 703 1028 l 900 1028 b 942 953 951 1028 969 996 l 647 478 l 647 63 b 585 0 647 21 626 0 z "},"˛":{"ha":494,"x_min":0,"x_max":0,"o":"m 363 101 b 375 57 379 86 381 72 b 347 24 368 42 354 29 b 326 13 340 19 333 15 b 282 -3 318 8 303 4 b 244 -75 243 -14 232 -47 b 342 -117 256 -103 290 -126 b 414 -99 374 -110 397 -104 b 481 -133 447 -87 475 -106 b 421 -197 485 -161 469 -175 b 197 -187 371 -219 267 -244 b 136 -72 163 -158 142 -121 b 165 42 131 -22 143 15 b 249 92 186 68 217 85 l 304 104 b 336 110 317 107 328 108 b 363 101 351 110 357 107 z "},"á":{"ha":1144,"x_min":0,"x_max":0,"o":"m 603 1299 b 678 1183 707 1365 779 1250 b 544 1118 635 1156 585 1131 b 490 1108 524 1111 506 1108 b 460 1154 458 1108 447 1126 b 540 1251 471 1182 500 1217 b 603 1299 560 1268 581 1283 z m 622 1028 b 694 978 657 1028 682 1011 l 1011 72 b 960 0 1026 28 1008 0 l 811 0 b 740 51 775 0 751 17 l 697 178 l 392 178 l 349 51 b 276 0 336 17 313 0 l 126 0 b 75 72 78 0 60 28 l 393 978 b 464 1028 406 1011 429 1028 z m 639 406 l 543 690 l 456 406 z "},"â":{"ha":1144,"x_min":0,"x_max":0,"o":"m 542 1204 l 486 1139 b 422 1110 469 1119 449 1110 l 401 1110 b 372 1174 358 1110 344 1139 l 476 1303 b 540 1332 493 1322 514 1332 l 543 1332 b 606 1303 569 1332 590 1322 l 710 1174 b 681 1110 739 1139 725 1110 l 661 1110 b 596 1139 635 1110 613 1119 z m 622 1028 b 694 978 657 1028 682 1011 l 1011 72 b 960 0 1026 28 1008 0 l 811 0 b 740 51 775 0 751 17 l 697 178 l 392 178 l 349 51 b 276 0 336 17 313 0 l 126 0 b 75 72 78 0 60 28 l 393 978 b 464 1028 406 1011 429 1028 z m 639 406 l 543 690 l 456 406 z "},"ä":{"ha":1144,"x_min":0,"x_max":0,"o":"m 465 1299 b 579 1200 510 1269 551 1233 b 610 1121 607 1167 621 1138 b 578 1108 604 1113 593 1108 b 458 1146 546 1108 506 1122 b 351 1292 411 1168 301 1214 b 465 1299 375 1329 414 1332 z m 622 1028 b 694 978 657 1028 682 1011 l 1011 72 b 960 0 1026 28 1008 0 l 811 0 b 740 51 775 0 751 17 l 697 178 l 392 178 l 349 51 b 276 0 336 17 313 0 l 126 0 b 75 72 78 0 60 28 l 393 978 b 464 1028 406 1011 429 1028 z m 639 406 l 543 690 l 456 406 z "},"à":{"ha":1144,"x_min":0,"x_max":0,"o":"m 407 1114 b 318 1204 358 1114 318 1154 b 407 1294 318 1254 358 1294 b 497 1204 457 1294 497 1254 b 407 1114 497 1154 457 1114 z m 675 1114 b 586 1204 626 1114 586 1154 b 675 1294 586 1254 626 1294 b 765 1204 725 1294 765 1254 b 675 1114 765 1154 725 1114 z m 622 1028 b 694 978 657 1028 682 1011 l 1011 72 b 960 0 1026 28 1008 0 l 811 0 b 740 51 775 0 751 17 l 697 178 l 392 178 l 349 51 b 276 0 336 17 313 0 l 126 0 b 75 72 78 0 60 28 l 393 978 b 464 1028 406 1011 429 1028 z m 639 406 l 543 690 l 456 406 z "},"å":{"ha":1144,"x_min":0,"x_max":0,"o":"m 539 1106 b 432 1210 479 1106 432 1153 b 539 1318 432 1271 479 1318 b 647 1210 600 1318 647 1271 b 539 1106 647 1153 600 1106 z m 539 1253 b 496 1210 517 1253 496 1233 b 539 1168 496 1188 517 1168 b 582 1210 563 1168 582 1188 b 539 1253 582 1233 563 1253 z m 622 1028 b 694 978 657 1028 682 1011 l 1011 72 b 960 0 1026 28 1008 0 l 811 0 b 740 51 775 0 751 17 l 697 178 l 392 178 l 349 51 b 276 0 336 17 313 0 l 126 0 b 75 72 78 0 60 28 l 393 978 b 464 1028 406 1011 429 1028 z m 639 406 l 543 690 l 456 406 z "},"ã":{"ha":1144,"x_min":0,"x_max":0,"o":"m 510 1156 b 440 1189 483 1174 468 1182 b 349 1154 400 1199 372 1175 b 276 1126 325 1132 304 1111 b 267 1197 247 1143 256 1175 b 400 1297 296 1258 344 1290 b 571 1247 454 1304 515 1286 b 639 1214 597 1229 611 1224 b 731 1250 679 1204 707 1228 b 803 1276 753 1271 775 1292 b 814 1207 832 1260 824 1229 b 681 1106 782 1144 735 1111 b 510 1156 625 1099 564 1117 z m 622 1028 b 694 978 657 1028 682 1011 l 1011 72 b 960 0 1026 28 1008 0 l 811 0 b 740 51 775 0 751 17 l 697 178 l 392 178 l 349 51 b 276 0 336 17 313 0 l 126 0 b 75 72 78 0 60 28 l 393 978 b 464 1028 406 1011 429 1028 z m 639 406 l 543 690 l 456 406 z "},"æ":{"ha":1597,"x_min":0,"x_max":0,"o":"m 1490 63 b 1428 0 1490 21 1469 0 l 824 0 b 771 51 788 0 769 17 l 771 178 l 465 178 l 379 51 b 289 0 354 17 324 0 l 140 0 b 114 72 92 0 82 28 l 743 978 b 832 1028 767 1011 796 1028 l 1428 1028 b 1490 965 1469 1028 1490 1007 l 1490 828 b 1428 765 1490 786 1469 765 l 1032 765 l 1032 636 l 1324 636 b 1386 574 1365 636 1386 615 l 1386 456 b 1324 393 1386 414 1365 393 l 1032 393 l 1032 263 l 1428 263 b 1490 200 1469 263 1490 242 z m 792 406 l 792 692 l 608 406 z "},"ç":{"ha":1132,"x_min":0,"x_max":0,"o":"m 849 299 b 760 296 817 325 792 319 b 590 238 711 257 654 238 b 394 318 514 238 444 268 b 313 514 344 368 313 438 b 394 710 313 590 344 660 b 590 792 444 760 514 792 b 765 729 657 792 715 771 b 853 725 797 703 821 699 l 963 811 b 971 899 996 838 1000 869 b 590 1054 869 999 735 1054 b 208 896 442 1054 307 994 b 50 514 110 797 50 664 b 208 132 50 365 110 231 b 479 -15 282 58 375 7 b 475 -107 476 -49 475 -79 b 494 -175 475 -142 482 -165 b 633 -171 526 -197 585 -183 b 697 -197 672 -160 696 -176 b 626 -253 699 -218 678 -243 b 550 -269 594 -258 568 -264 b 513 -294 531 -276 518 -285 b 526 -350 501 -315 506 -340 b 672 -347 550 -361 606 -364 b 803 -167 779 -321 826 -261 b 775 -108 796 -142 788 -122 b 682 -67 750 -81 717 -67 b 632 -71 664 -67 647 -68 b 611 -69 622 -72 615 -72 b 606 -28 603 -64 603 -50 l 606 -26 b 960 119 739 -22 864 29 b 956 208 992 149 988 182 z "},"é":{"ha":963,"x_min":0,"x_max":0,"o":"m 454 1299 b 529 1183 558 1365 631 1250 b 396 1118 486 1156 436 1131 b 342 1108 375 1111 357 1108 b 311 1154 310 1108 299 1126 b 392 1251 322 1182 351 1217 b 454 1299 411 1268 432 1283 z m 776 63 b 714 0 776 21 756 0 l 118 0 b 56 63 76 0 56 21 l 56 965 b 118 1028 56 1007 76 1028 l 714 1028 b 776 965 756 1028 776 1007 l 776 828 b 714 765 776 786 756 765 l 318 765 l 318 636 l 610 636 b 672 574 651 636 672 615 l 672 456 b 610 393 672 414 651 393 l 318 393 l 318 263 l 714 263 b 776 200 756 263 776 242 z "},"ê":{"ha":963,"x_min":0,"x_max":0,"o":"m 400 1204 l 344 1139 b 281 1110 328 1119 307 1110 l 260 1110 b 231 1174 217 1110 203 1139 l 335 1303 b 399 1332 351 1322 372 1332 l 401 1332 b 464 1303 428 1332 449 1322 l 568 1174 b 539 1110 597 1139 583 1110 l 519 1110 b 454 1139 493 1110 471 1119 z m 776 63 b 714 0 776 21 756 0 l 118 0 b 56 63 76 0 56 21 l 56 965 b 118 1028 56 1007 76 1028 l 714 1028 b 776 965 756 1028 776 1007 l 776 828 b 714 765 776 786 756 765 l 318 765 l 318 636 l 610 636 b 672 574 651 636 672 615 l 672 456 b 610 393 672 414 651 393 l 318 393 l 318 263 l 714 263 b 776 200 756 263 776 242 z "},"ë":{"ha":963,"x_min":0,"x_max":0,"o":"m 261 1114 b 172 1204 213 1114 172 1154 b 261 1294 172 1254 213 1294 b 351 1204 311 1294 351 1254 b 261 1114 351 1154 311 1114 z m 529 1114 b 440 1204 481 1114 440 1154 b 529 1294 440 1254 481 1294 b 619 1204 579 1294 619 1254 b 529 1114 619 1154 579 1114 z m 776 63 b 714 0 776 21 756 0 l 118 0 b 56 63 76 0 56 21 l 56 965 b 118 1028 56 1007 76 1028 l 714 1028 b 776 965 756 1028 776 1007 l 776 828 b 714 765 776 786 756 765 l 318 765 l 318 636 l 610 636 b 672 574 651 636 672 615 l 672 456 b 610 393 672 414 651 393 l 318 393 l 318 263 l 714 263 b 776 200 756 263 776 242 z "},"è":{"ha":963,"x_min":0,"x_max":0,"o":"m 339 1299 b 453 1200 383 1269 425 1233 b 483 1121 481 1167 494 1138 b 451 1108 478 1113 467 1108 b 332 1146 419 1108 379 1122 b 225 1292 285 1168 175 1214 b 339 1299 249 1329 288 1332 z m 776 63 b 714 0 776 21 756 0 l 118 0 b 56 63 76 0 56 21 l 56 965 b 118 1028 56 1007 76 1028 l 714 1028 b 776 965 756 1028 776 1007 l 776 828 b 714 765 776 786 756 765 l 318 765 l 318 636 l 610 636 b 672 574 651 636 672 615 l 672 456 b 610 393 672 414 651 393 l 318 393 l 318 263 l 714 263 b 776 200 756 263 776 242 z "},"í":{"ha":483,"x_min":0,"x_max":0,"o":"m 221 1299 b 296 1183 325 1365 397 1250 b 163 1118 253 1156 203 1131 b 108 1108 142 1111 124 1108 b 78 1154 76 1108 65 1126 b 158 1251 89 1182 118 1217 b 221 1299 178 1268 199 1283 z m 256 1028 b 318 965 297 1028 318 1007 l 318 63 b 256 0 318 21 297 0 l 118 0 b 56 63 76 0 56 21 l 56 965 b 118 1028 56 1007 76 1028 z "},"î":{"ha":483,"x_min":0,"x_max":0,"o":"m 185 1204 l 129 1139 b 65 1110 113 1119 92 1110 l 44 1110 b 15 1174 1 1110 -12 1139 l 119 1303 b 183 1332 136 1322 157 1332 l 186 1332 b 249 1303 213 1332 233 1322 l 353 1174 b 324 1110 382 1139 368 1110 l 304 1110 b 239 1139 278 1110 256 1119 z m 256 1028 b 318 965 297 1028 318 1007 l 318 63 b 256 0 318 21 297 0 l 118 0 b 56 63 76 0 56 21 l 56 965 b 118 1028 56 1007 76 1028 z "},"ï":{"ha":483,"x_min":0,"x_max":0,"o":"m 46 1114 b -43 1204 -3 1114 -43 1154 b 46 1294 -43 1254 -3 1294 b 136 1204 96 1294 136 1254 b 46 1114 136 1154 96 1114 z m 314 1114 b 225 1204 265 1114 225 1154 b 314 1294 225 1254 265 1294 b 404 1204 364 1294 404 1254 b 314 1114 404 1154 364 1114 z m 256 1028 b 318 965 297 1028 318 1007 l 318 63 b 256 0 318 21 297 0 l 118 0 b 56 63 76 0 56 21 l 56 965 b 118 1028 56 1007 76 1028 z "},"ì":{"ha":483,"x_min":0,"x_max":0,"o":"m 113 1299 b 226 1200 157 1269 199 1233 b 257 1121 254 1167 268 1138 b 225 1108 251 1113 240 1108 b 106 1146 193 1108 153 1122 b -1 1292 58 1168 -51 1214 b 113 1299 22 1329 61 1332 z m 256 1028 b 318 965 297 1028 318 1007 l 318 63 b 256 0 318 21 297 0 l 118 0 b 56 63 76 0 56 21 l 56 965 b 118 1028 56 1007 76 1028 z "},"ı":{"ha":483,"x_min":0,"x_max":0,"o":"m 256 1028 b 318 965 297 1028 318 1007 l 318 63 b 256 0 318 21 297 0 l 118 0 b 56 63 76 0 56 21 l 56 965 b 118 1028 56 1007 76 1028 z "},"ñ":{"ha":1079,"x_min":0,"x_max":0,"o":"m 425 1156 b 356 1189 399 1174 383 1182 b 264 1154 315 1199 288 1175 b 192 1126 240 1132 219 1111 b 182 1197 163 1143 171 1175 b 315 1297 211 1258 260 1290 b 486 1247 369 1304 431 1286 b 554 1214 513 1229 526 1224 b 646 1250 594 1204 622 1228 b 718 1276 668 1271 690 1292 b 729 1207 747 1260 739 1229 b 596 1106 697 1144 650 1111 b 425 1156 540 1099 479 1117 z m 118 0 b 56 63 76 0 56 21 l 56 965 b 118 1028 56 1007 76 1028 l 238 1028 b 314 988 269 1028 296 1014 l 635 522 l 635 965 b 697 1028 635 1007 656 1028 l 835 1028 b 897 965 876 1028 897 1007 l 897 63 b 835 0 897 21 876 0 l 715 0 b 639 40 683 0 657 14 l 318 510 l 318 63 b 256 0 318 21 297 0 z "},"ó":{"ha":1268,"x_min":0,"x_max":0,"o":"m 647 1299 b 722 1183 751 1365 824 1250 b 589 1118 679 1156 629 1131 b 535 1108 568 1111 550 1108 b 504 1154 503 1108 492 1126 b 585 1251 515 1182 544 1217 b 647 1299 604 1268 625 1283 z m 596 -25 b 214 133 446 -25 313 36 b 56 514 115 231 56 365 b 214 896 56 664 115 797 b 596 1054 313 994 446 1054 b 978 896 744 1054 879 994 b 1136 514 1076 797 1136 664 b 978 133 1136 365 1076 231 b 596 -25 879 36 744 -25 z m 596 792 b 400 710 519 792 450 760 b 318 514 350 660 318 590 b 400 318 318 438 350 368 b 596 238 450 268 519 238 b 792 318 672 238 742 268 b 872 514 842 368 872 438 b 792 710 872 590 842 660 b 596 792 742 760 672 792 z "},"ô":{"ha":1268,"x_min":0,"x_max":0,"o":"m 588 1204 l 532 1139 b 468 1110 515 1119 494 1110 l 447 1110 b 418 1174 404 1110 390 1139 l 522 1303 b 586 1332 539 1322 560 1332 l 589 1332 b 651 1303 615 1332 636 1322 l 756 1174 b 726 1110 785 1139 771 1110 l 707 1110 b 642 1139 681 1110 658 1119 z m 596 -25 b 214 133 446 -25 313 36 b 56 514 115 231 56 365 b 214 896 56 664 115 797 b 596 1054 313 994 446 1054 b 978 896 744 1054 879 994 b 1136 514 1076 797 1136 664 b 978 133 1136 365 1076 231 b 596 -25 879 36 744 -25 z m 596 792 b 400 710 519 792 450 760 b 318 514 350 660 318 590 b 400 318 318 438 350 368 b 596 238 450 268 519 238 b 792 318 672 238 742 268 b 872 514 842 368 872 438 b 792 710 872 590 842 660 b 596 792 742 760 672 792 z "},"ö":{"ha":1268,"x_min":0,"x_max":0,"o":"m 446 1114 b 357 1204 397 1114 357 1154 b 446 1294 357 1254 397 1294 b 536 1204 496 1294 536 1254 b 446 1114 536 1154 496 1114 z m 714 1114 b 625 1204 665 1114 625 1154 b 714 1294 625 1254 665 1294 b 804 1204 764 1294 804 1254 b 714 1114 804 1154 764 1114 z m 596 -25 b 214 133 446 -25 313 36 b 56 514 115 231 56 365 b 214 896 56 664 115 797 b 596 1054 313 994 446 1054 b 978 896 744 1054 879 994 b 1136 514 1076 797 1136 664 b 978 133 1136 365 1076 231 b 596 -25 879 36 744 -25 z m 596 792 b 400 710 519 792 450 760 b 318 514 350 660 318 590 b 400 318 318 438 350 368 b 596 238 450 268 519 238 b 792 318 672 238 742 268 b 872 514 842 368 872 438 b 792 710 872 590 842 660 b 596 792 742 760 672 792 z "},"ò":{"ha":1268,"x_min":0,"x_max":0,"o":"m 499 1299 b 613 1200 543 1269 585 1233 b 643 1121 640 1167 654 1138 b 611 1108 638 1113 626 1108 b 492 1146 579 1108 539 1122 b 385 1292 444 1168 335 1214 b 499 1299 408 1329 447 1332 z m 596 -25 b 214 133 446 -25 313 36 b 56 514 115 231 56 365 b 214 896 56 664 115 797 b 596 1054 313 994 446 1054 b 978 896 744 1054 879 994 b 1136 514 1076 797 1136 664 b 978 133 1136 365 1076 231 b 596 -25 879 36 744 -25 z m 596 792 b 400 710 519 792 450 760 b 318 514 350 660 318 590 b 400 318 318 438 350 368 b 596 238 450 268 519 238 b 792 318 672 238 742 268 b 872 514 842 368 872 438 b 792 710 872 590 842 660 b 596 792 742 760 672 792 z "},"ø":{"ha":1268,"x_min":0,"x_max":0,"o":"m 978 896 b 886 969 950 924 919 949 l 911 1051 b 858 1122 924 1094 904 1122 l 756 1122 b 686 1069 718 1122 696 1104 l 679 1047 b 596 1054 653 1051 625 1054 b 214 896 446 1054 313 994 b 56 514 115 797 56 664 b 214 133 56 365 115 231 b 374 24 260 88 314 50 l 357 -32 b 410 -103 344 -75 364 -103 l 513 -103 b 582 -50 550 -103 572 -85 l 589 -25 l 596 -25 b 978 133 744 -25 879 36 b 1136 514 1076 231 1136 365 b 978 896 1136 664 1076 797 z m 400 318 b 318 514 350 368 318 438 b 400 710 318 590 350 660 b 596 792 450 760 519 792 l 603 792 l 450 279 b 400 318 432 290 415 303 z m 792 318 b 671 247 758 285 717 261 l 804 696 b 872 514 847 647 872 583 b 792 318 872 438 842 368 z "},"õ":{"ha":1268,"x_min":0,"x_max":0,"o":"m 582 1156 b 513 1189 556 1174 540 1182 b 421 1154 472 1199 444 1175 b 349 1126 397 1132 376 1111 b 339 1197 319 1143 328 1175 b 472 1297 368 1258 417 1290 b 643 1247 526 1304 588 1286 b 711 1214 669 1229 683 1224 b 803 1250 751 1204 779 1228 b 875 1276 825 1271 847 1292 b 886 1207 904 1260 896 1229 b 753 1106 854 1144 807 1111 b 582 1156 697 1099 636 1117 z m 596 -25 b 214 133 446 -25 313 36 b 56 514 115 231 56 365 b 214 896 56 664 115 797 b 596 1054 313 994 446 1054 b 978 896 744 1054 879 994 b 1136 514 1076 797 1136 664 b 978 133 1136 365 1076 231 b 596 -25 879 36 744 -25 z m 596 792 b 400 710 519 792 450 760 b 318 514 350 660 318 590 b 400 318 318 438 350 368 b 596 238 450 268 519 238 b 792 318 672 238 742 268 b 872 514 842 368 872 438 b 792 710 872 590 842 660 b 596 792 742 760 672 792 z "},"œ":{"ha":1681,"x_min":0,"x_max":0,"o":"m 1135 765 l 1531 765 b 1593 828 1572 765 1593 786 l 1593 965 b 1531 1028 1593 1007 1572 1028 l 935 1028 b 874 978 897 1028 876 1011 b 596 1054 792 1026 697 1054 b 214 896 446 1054 313 994 b 56 514 115 797 56 664 b 214 133 56 365 115 231 b 596 -25 313 36 446 -25 b 872 51 697 -25 792 3 b 935 0 876 17 897 0 l 1531 0 b 1593 63 1572 0 1593 21 l 1593 200 b 1531 263 1593 242 1572 263 l 1135 263 l 1135 393 l 1426 393 b 1489 456 1468 393 1489 414 l 1489 574 b 1426 636 1489 615 1468 636 l 1135 636 z m 596 238 b 400 318 519 238 450 268 b 318 514 350 368 318 438 b 400 710 318 590 350 660 b 596 792 450 760 519 792 b 792 710 672 792 742 760 b 872 514 842 660 872 590 b 792 318 872 438 842 368 b 596 238 742 268 672 238 z "},"ú":{"ha":1175,"x_min":0,"x_max":0,"o":"m 601 1299 b 676 1183 706 1365 778 1250 b 543 1118 633 1156 583 1131 b 489 1108 522 1111 504 1108 b 458 1154 457 1108 446 1126 b 539 1251 469 1182 499 1217 b 601 1299 558 1268 579 1283 z m 1008 482 b 878 132 1007 354 960 226 b 532 -25 794 38 676 -25 b 192 125 393 -25 275 32 b 56 482 108 218 60 344 l 56 965 b 118 1028 56 1007 76 1028 l 256 1028 b 318 965 297 1028 318 1007 l 318 482 b 381 303 318 410 342 347 b 532 231 419 257 472 231 b 682 303 589 231 643 257 b 744 482 721 347 744 410 l 744 965 b 807 1028 744 1007 765 1028 l 946 1028 b 1008 965 988 1028 1008 1007 z "},"û":{"ha":1175,"x_min":0,"x_max":0,"o":"m 524 1204 l 468 1139 b 404 1110 451 1119 431 1110 l 383 1110 b 354 1174 340 1110 326 1139 l 458 1303 b 522 1332 475 1322 496 1332 l 525 1332 b 588 1303 551 1332 572 1322 l 692 1174 b 663 1110 721 1139 707 1110 l 643 1110 b 578 1139 617 1110 594 1119 z m 1008 482 b 878 132 1007 354 960 226 b 532 -25 794 38 676 -25 b 192 125 393 -25 275 32 b 56 482 108 218 60 344 l 56 965 b 118 1028 56 1007 76 1028 l 256 1028 b 318 965 297 1028 318 1007 l 318 482 b 381 303 318 410 342 347 b 532 231 419 257 472 231 b 682 303 589 231 643 257 b 744 482 721 347 744 410 l 744 965 b 807 1028 744 1007 765 1028 l 946 1028 b 1008 965 988 1028 1008 1007 z "},"ü":{"ha":1175,"x_min":0,"x_max":0,"o":"m 393 1114 b 304 1204 344 1114 304 1154 b 393 1294 304 1254 344 1294 b 483 1204 443 1294 483 1254 b 393 1114 483 1154 443 1114 z m 661 1114 b 572 1204 613 1114 572 1154 b 661 1294 572 1254 613 1294 b 751 1204 711 1294 751 1254 b 661 1114 751 1154 711 1114 z m 1008 482 b 878 132 1007 354 960 226 b 532 -25 794 38 676 -25 b 192 125 393 -25 275 32 b 56 482 108 218 60 344 l 56 965 b 118 1028 56 1007 76 1028 l 256 1028 b 318 965 297 1028 318 1007 l 318 482 b 381 303 318 410 342 347 b 532 231 419 257 472 231 b 682 303 589 231 643 257 b 744 482 721 347 744 410 l 744 965 b 807 1028 744 1007 765 1028 l 946 1028 b 1008 965 988 1028 1008 1007 z "},"ù":{"ha":1175,"x_min":0,"x_max":0,"o":"m 463 1294 b 536 1199 542 1363 614 1265 b 433 1128 503 1169 465 1143 b 361 1122 400 1113 372 1107 b 379 1197 350 1135 360 1164 b 463 1294 399 1229 429 1265 z m 671 1294 b 744 1199 750 1363 822 1265 b 642 1128 711 1169 674 1143 b 569 1122 608 1113 581 1107 b 588 1197 558 1135 568 1164 b 671 1294 607 1229 638 1265 z m 1008 482 b 878 132 1007 354 960 226 b 532 -25 794 38 676 -25 b 192 125 393 -25 275 32 b 56 482 108 218 60 344 l 56 965 b 118 1028 56 1007 76 1028 l 256 1028 b 318 965 297 1028 318 1007 l 318 482 b 381 303 318 410 342 347 b 532 231 419 257 472 231 b 682 303 589 231 643 257 b 744 482 721 347 744 410 l 744 965 b 807 1028 744 1007 765 1028 l 946 1028 b 1008 965 988 1028 1008 1007 z "},"ÿ":{"ha":1051,"x_min":0,"x_max":0,"o":"m 381 1114 b 292 1204 332 1114 292 1154 b 381 1294 292 1254 332 1294 b 471 1204 431 1294 471 1254 b 381 1114 471 1154 431 1114 z m 649 1114 b 560 1204 600 1114 560 1154 b 649 1294 560 1254 600 1294 b 739 1204 699 1294 739 1254 b 649 1114 739 1154 699 1114 z m 447 0 b 385 63 406 0 385 21 l 385 478 l 89 953 b 131 1028 63 996 79 1028 l 296 1028 b 371 986 328 1028 353 1014 l 515 754 l 660 986 b 735 1028 678 1014 703 1028 l 900 1028 b 942 953 951 1028 969 996 l 647 478 l 647 63 b 585 0 647 21 626 0 z "},"Ă":{"ha":1144,"x_min":0,"x_max":0,"o":"m 538 1226 b 615 1285 581 1226 599 1257 b 678 1332 632 1313 646 1339 b 707 1268 710 1325 711 1292 b 646 1151 697 1218 676 1178 b 539 1110 615 1124 578 1110 b 433 1151 504 1110 465 1124 b 368 1268 401 1178 375 1218 b 397 1332 364 1292 365 1325 b 458 1286 429 1338 442 1314 b 531 1226 474 1258 492 1228 z m 622 1028 b 694 978 657 1028 682 1011 l 1011 72 b 960 0 1026 28 1008 0 l 811 0 b 740 51 775 0 751 17 l 697 178 l 392 178 l 349 51 b 276 0 336 17 313 0 l 126 0 b 75 72 78 0 60 28 l 393 978 b 464 1028 406 1011 429 1028 z m 639 406 l 543 690 l 456 406 z "},"Ā":{"ha":1144,"x_min":0,"x_max":0,"o":"m 743 1246 b 806 1183 785 1246 806 1225 b 743 1121 806 1142 785 1121 l 340 1121 b 278 1183 299 1121 278 1142 b 340 1246 278 1225 299 1246 z m 622 1028 b 694 978 657 1028 682 1011 l 1011 72 b 960 0 1026 28 1008 0 l 811 0 b 740 51 775 0 751 17 l 697 178 l 392 178 l 349 51 b 276 0 336 17 313 0 l 126 0 b 75 72 78 0 60 28 l 393 978 b 464 1028 406 1011 429 1028 z m 639 406 l 543 690 l 456 406 z "},"Ǽ":{"ha":1597,"x_min":0,"x_max":0,"o":"m 964 1299 b 1039 1183 1068 1365 1140 1250 b 906 1118 996 1156 946 1131 b 851 1108 885 1111 867 1108 b 821 1154 819 1108 808 1126 b 901 1251 832 1182 861 1217 b 964 1299 921 1268 942 1283 z m 1490 63 b 1428 0 1490 21 1469 0 l 824 0 b 771 51 788 0 769 17 l 771 178 l 465 178 l 379 51 b 289 0 354 17 324 0 l 140 0 b 114 72 92 0 82 28 l 743 978 b 832 1028 767 1011 796 1028 l 1428 1028 b 1490 965 1469 1028 1490 1007 l 1490 828 b 1428 765 1490 786 1469 765 l 1032 765 l 1032 636 l 1324 636 b 1386 574 1365 636 1386 615 l 1386 456 b 1324 393 1386 414 1365 393 l 1032 393 l 1032 263 l 1428 263 b 1490 200 1469 263 1490 242 z m 792 406 l 792 692 l 608 406 z "},"Ć":{"ha":1132,"x_min":0,"x_max":0,"o":"m 610 1299 b 685 1183 714 1365 786 1250 b 551 1118 642 1156 592 1131 b 497 1108 531 1111 513 1108 b 467 1154 465 1108 454 1126 b 547 1251 478 1182 507 1217 b 610 1299 567 1268 588 1283 z m 590 -26 b 208 132 442 -26 307 33 b 50 514 110 231 50 365 b 208 896 50 664 110 797 b 590 1054 307 994 442 1054 b 971 899 735 1054 869 999 b 963 811 1000 869 996 838 l 853 725 b 765 729 821 699 797 703 b 590 792 715 771 657 792 b 394 710 514 792 444 760 b 313 514 344 660 313 590 b 394 318 313 438 344 368 b 590 238 444 268 514 238 b 760 296 654 238 711 257 b 849 299 792 319 817 325 l 956 208 b 960 119 988 182 992 149 b 590 -26 860 25 729 -26 z "},"Č":{"ha":1132,"x_min":0,"x_max":0,"o":"m 565 1238 l 619 1303 b 685 1332 636 1322 658 1332 l 704 1332 b 733 1268 749 1332 763 1303 l 629 1139 b 567 1110 614 1119 593 1110 l 564 1110 b 500 1139 538 1110 517 1119 l 396 1268 b 425 1332 368 1303 382 1332 l 446 1332 b 510 1303 472 1332 493 1322 z m 590 -26 b 208 132 442 -26 307 33 b 50 514 110 231 50 365 b 208 896 50 664 110 797 b 590 1054 307 994 442 1054 b 971 899 735 1054 869 999 b 963 811 1000 869 996 838 l 853 725 b 765 729 821 699 797 703 b 590 792 715 771 657 792 b 394 710 514 792 444 760 b 313 514 344 660 313 590 b 394 318 313 438 344 368 b 590 238 444 268 514 238 b 760 296 654 238 711 257 b 849 299 792 319 817 325 l 956 208 b 960 119 988 182 992 149 b 590 -26 860 25 729 -26 z "},"Ĉ":{"ha":1132,"x_min":0,"x_max":0,"o":"m 565 1204 l 510 1139 b 446 1110 493 1119 472 1110 l 425 1110 b 396 1174 382 1110 368 1139 l 500 1303 b 564 1332 517 1322 538 1332 l 567 1332 b 629 1303 593 1332 614 1322 l 733 1174 b 704 1110 763 1139 749 1110 l 685 1110 b 619 1139 658 1110 636 1119 z m 590 -26 b 208 132 442 -26 307 33 b 50 514 110 231 50 365 b 208 896 50 664 110 797 b 590 1054 307 994 442 1054 b 971 899 735 1054 869 999 b 963 811 1000 869 996 838 l 853 725 b 765 729 821 699 797 703 b 590 792 715 771 657 792 b 394 710 514 792 444 760 b 313 514 344 660 313 590 b 394 318 313 438 344 368 b 590 238 444 268 514 238 b 760 296 654 238 711 257 b 849 299 792 319 817 325 l 956 208 b 960 119 988 182 992 149 b 590 -26 860 25 729 -26 z "},"Ċ":{"ha":1132,"x_min":0,"x_max":0,"o":"m 565 1114 b 476 1204 517 1114 476 1154 b 565 1294 476 1254 517 1294 b 656 1204 615 1294 656 1254 b 565 1114 656 1154 615 1114 z m 590 -26 b 208 132 442 -26 307 33 b 50 514 110 231 50 365 b 208 896 50 664 110 797 b 590 1054 307 994 442 1054 b 971 899 735 1054 869 999 b 963 811 1000 869 996 838 l 853 725 b 765 729 821 699 797 703 b 590 792 715 771 657 792 b 394 710 514 792 444 760 b 313 514 344 660 313 590 b 394 318 313 438 344 368 b 590 238 444 268 514 238 b 760 296 654 238 711 257 b 849 299 792 319 817 325 l 956 208 b 960 119 988 182 992 149 b 590 -26 860 25 729 -26 z "},"Ď":{"ha":1096,"x_min":0,"x_max":0,"o":"m 414 1238 l 468 1303 b 533 1332 485 1322 507 1332 l 553 1332 b 582 1268 597 1332 611 1303 l 478 1139 b 415 1110 463 1119 442 1110 l 413 1110 b 349 1139 386 1110 365 1119 l 244 1268 b 274 1332 217 1303 231 1332 l 294 1332 b 358 1303 321 1332 342 1322 z m 118 0 b 56 63 76 0 56 21 l 56 965 b 118 1028 56 1007 76 1028 l 446 1028 b 799 871 579 1028 704 972 b 940 514 889 772 940 646 b 793 153 940 375 883 246 b 444 0 703 58 578 0 z m 318 765 l 318 263 l 444 263 b 607 339 506 263 564 293 b 676 514 650 383 676 447 b 608 690 676 581 650 644 b 446 765 567 735 507 765 z "},"Đ":{"ha":1096,"x_min":0,"x_max":0,"o":"m 799 871 b 446 1028 704 972 579 1028 l 118 1028 b 56 965 76 1028 56 1007 l 56 586 l -18 586 b -81 524 -60 586 -81 565 b -18 461 -81 482 -60 461 l 56 461 l 56 63 b 118 0 56 21 76 0 l 444 0 b 793 153 578 0 703 58 b 940 514 883 246 940 375 b 799 871 940 646 889 772 z m 607 339 b 444 263 564 293 506 263 l 318 263 l 318 461 l 385 461 b 447 524 426 461 447 482 b 385 586 447 565 426 586 l 318 586 l 318 765 l 446 765 b 608 690 507 765 567 735 b 676 514 650 644 676 581 b 607 339 676 447 650 383 z "},"Ĕ":{"ha":963,"x_min":0,"x_max":0,"o":"m 401 1226 b 479 1285 444 1226 463 1257 b 542 1332 496 1313 510 1339 b 571 1268 574 1325 575 1292 b 510 1151 561 1218 540 1178 b 403 1110 479 1124 442 1110 b 297 1151 368 1110 329 1124 b 232 1268 265 1178 239 1218 b 261 1332 228 1292 229 1325 b 322 1286 293 1338 306 1314 b 394 1226 338 1258 356 1228 z m 776 63 b 714 0 776 21 756 0 l 118 0 b 56 63 76 0 56 21 l 56 965 b 118 1028 56 1007 76 1028 l 714 1028 b 776 965 756 1028 776 1007 l 776 828 b 714 765 776 786 756 765 l 318 765 l 318 636 l 610 636 b 672 574 651 636 672 615 l 672 456 b 610 393 672 414 651 393 l 318 393 l 318 263 l 714 263 b 776 200 756 263 776 242 z "},"Ě":{"ha":963,"x_min":0,"x_max":0,"o":"m 394 1238 l 449 1303 b 514 1332 465 1322 488 1332 l 533 1332 b 563 1268 578 1332 592 1303 l 458 1139 b 396 1110 443 1119 422 1110 l 393 1110 b 329 1139 367 1110 346 1119 l 225 1268 b 254 1332 197 1303 211 1332 l 275 1332 b 339 1303 301 1332 322 1322 z m 776 63 b 714 0 776 21 756 0 l 118 0 b 56 63 76 0 56 21 l 56 965 b 118 1028 56 1007 76 1028 l 714 1028 b 776 965 756 1028 776 1007 l 776 828 b 714 765 776 786 756 765 l 318 765 l 318 636 l 610 636 b 672 574 651 636 672 615 l 672 456 b 610 393 672 414 651 393 l 318 393 l 318 263 l 714 263 b 776 200 756 263 776 242 z "},"Ė":{"ha":963,"x_min":0,"x_max":0,"o":"m 404 1114 b 315 1204 356 1114 315 1154 b 404 1294 315 1254 356 1294 b 494 1204 454 1294 494 1254 b 404 1114 494 1154 454 1114 z m 776 63 b 714 0 776 21 756 0 l 118 0 b 56 63 76 0 56 21 l 56 965 b 118 1028 56 1007 76 1028 l 714 1028 b 776 965 756 1028 776 1007 l 776 828 b 714 765 776 786 756 765 l 318 765 l 318 636 l 610 636 b 672 574 651 636 672 615 l 672 456 b 610 393 672 414 651 393 l 318 393 l 318 263 l 714 263 b 776 200 756 263 776 242 z "},"Ē":{"ha":963,"x_min":0,"x_max":0,"o":"m 614 1246 b 676 1183 656 1246 676 1225 b 614 1121 676 1142 656 1121 l 211 1121 b 149 1183 169 1121 149 1142 b 211 1246 149 1225 169 1246 z m 776 63 b 714 0 776 21 756 0 l 118 0 b 56 63 76 0 56 21 l 56 965 b 118 1028 56 1007 76 1028 l 714 1028 b 776 965 756 1028 776 1007 l 776 828 b 714 765 776 786 756 765 l 318 765 l 318 636 l 610 636 b 672 574 651 636 672 615 l 672 456 b 610 393 672 414 651 393 l 318 393 l 318 263 l 714 263 b 776 200 756 263 776 242 z "},"Ğ":{"ha":1226,"x_min":0,"x_max":0,"o":"m 581 1226 b 658 1285 624 1226 642 1257 b 721 1332 675 1313 689 1339 b 750 1268 753 1325 754 1292 b 689 1151 740 1218 719 1178 b 582 1110 658 1124 621 1110 b 476 1151 547 1110 508 1124 b 411 1268 444 1178 418 1218 b 440 1332 407 1292 408 1325 b 501 1286 472 1338 485 1314 b 574 1226 517 1258 535 1228 z m 594 -24 b 214 135 446 -24 311 38 b 56 514 117 232 56 365 b 214 896 56 663 117 799 b 594 1053 311 993 446 1053 b 972 899 739 1053 872 999 b 965 810 1001 867 997 836 l 856 724 b 768 728 824 697 800 701 b 594 790 718 769 660 790 b 399 710 518 790 449 760 b 318 514 349 660 318 590 b 399 315 318 438 349 368 b 594 228 449 263 518 228 b 732 257 654 228 699 240 b 794 304 764 272 783 292 l 794 371 l 624 371 b 561 433 582 371 561 392 l 561 519 b 624 582 561 561 582 582 l 994 582 b 1057 519 1036 582 1057 561 l 1057 268 b 1040 199 1057 239 1051 217 b 594 -24 951 64 806 -24 z "},"Ĝ":{"ha":1226,"x_min":0,"x_max":0,"o":"m 581 1204 l 525 1139 b 461 1110 508 1119 488 1110 l 440 1110 b 411 1174 397 1110 383 1139 l 515 1303 b 579 1332 532 1322 553 1332 l 582 1332 b 644 1303 608 1332 629 1322 l 749 1174 b 719 1110 778 1139 764 1110 l 700 1110 b 635 1139 674 1110 651 1119 z m 594 -24 b 214 135 446 -24 311 38 b 56 514 117 232 56 365 b 214 896 56 663 117 799 b 594 1053 311 993 446 1053 b 972 899 739 1053 872 999 b 965 810 1001 867 997 836 l 856 724 b 768 728 824 697 800 701 b 594 790 718 769 660 790 b 399 710 518 790 449 760 b 318 514 349 660 318 590 b 399 315 318 438 349 368 b 594 228 449 263 518 228 b 732 257 654 228 699 240 b 794 304 764 272 783 292 l 794 371 l 624 371 b 561 433 582 371 561 392 l 561 519 b 624 582 561 561 582 582 l 994 582 b 1057 519 1036 582 1057 561 l 1057 268 b 1040 199 1057 239 1051 217 b 594 -24 951 64 806 -24 z "},"Ġ":{"ha":1226,"x_min":0,"x_max":0,"o":"m 582 1114 b 493 1204 533 1114 493 1154 b 582 1294 493 1254 533 1294 b 672 1204 632 1294 672 1254 b 582 1114 672 1154 632 1114 z m 594 -24 b 214 135 446 -24 311 38 b 56 514 117 232 56 365 b 214 896 56 663 117 799 b 594 1053 311 993 446 1053 b 972 899 739 1053 872 999 b 965 810 1001 867 997 836 l 856 724 b 768 728 824 697 800 701 b 594 790 718 769 660 790 b 399 710 518 790 449 760 b 318 514 349 660 318 590 b 399 315 318 438 349 368 b 594 228 449 263 518 228 b 732 257 654 228 699 240 b 794 304 764 272 783 292 l 794 371 l 624 371 b 561 433 582 371 561 392 l 561 519 b 624 582 561 561 582 582 l 994 582 b 1057 519 1036 582 1057 561 l 1057 268 b 1040 199 1057 239 1051 217 b 594 -24 951 64 806 -24 z "},"Ħ":{"ha":1033,"x_min":0,"x_max":0,"o":"m 665 1028 b 603 965 624 1028 603 1007 l 603 894 l 318 894 l 318 965 b 256 1028 318 1007 297 1028 l 118 1028 b 56 965 76 1028 56 1007 l 56 63 b 118 0 56 21 76 0 l 256 0 b 318 63 297 0 318 21 l 318 382 l 603 382 l 603 63 b 665 0 603 21 624 0 l 803 0 b 865 63 844 0 865 21 l 865 965 b 803 1028 865 1007 844 1028 z m 603 646 l 318 646 l 318 769 l 603 769 z "},"Ĥ":{"ha":1033,"x_min":0,"x_max":0,"o":"m 454 1204 l 399 1139 b 335 1110 382 1119 361 1110 l 314 1110 b 285 1174 271 1110 257 1139 l 389 1303 b 453 1332 406 1322 426 1332 l 456 1332 b 518 1303 482 1332 503 1322 l 622 1174 b 593 1110 651 1139 638 1110 l 574 1110 b 508 1139 547 1110 525 1119 z m 865 63 b 803 0 865 21 844 0 l 665 0 b 603 63 624 0 603 21 l 603 382 l 318 382 l 318 63 b 256 0 318 21 297 0 l 118 0 b 56 63 76 0 56 21 l 56 965 b 118 1028 56 1007 76 1028 l 256 1028 b 318 965 297 1028 318 1007 l 318 646 l 603 646 l 603 965 b 665 1028 603 1007 624 1028 l 803 1028 b 865 965 844 1028 865 1007 z "},"Ĭ":{"ha":483,"x_min":0,"x_max":0,"o":"m 181 1226 b 258 1285 224 1226 242 1257 b 321 1332 275 1313 289 1339 b 350 1268 353 1325 354 1292 b 289 1151 340 1218 319 1178 b 182 1110 258 1124 221 1110 b 76 1151 147 1110 108 1124 b 11 1268 44 1178 18 1218 b 40 1332 7 1292 8 1325 b 101 1286 72 1338 85 1314 b 174 1226 117 1258 135 1228 z m 256 1028 b 318 965 297 1028 318 1007 l 318 63 b 256 0 318 21 297 0 l 118 0 b 56 63 76 0 56 21 l 56 965 b 118 1028 56 1007 76 1028 z "},"İ":{"ha":483,"x_min":0,"x_max":0,"o":"m 178 1114 b 89 1204 129 1114 89 1154 b 178 1294 89 1254 129 1294 b 268 1204 228 1294 268 1254 b 178 1114 268 1154 228 1114 z m 256 1028 b 318 965 297 1028 318 1007 l 318 63 b 256 0 318 21 297 0 l 118 0 b 56 63 76 0 56 21 l 56 965 b 118 1028 56 1007 76 1028 z "},"Ī":{"ha":483,"x_min":0,"x_max":0,"o":"m 386 1246 b 449 1183 428 1246 449 1225 b 386 1121 449 1142 428 1121 l -17 1121 b -79 1183 -58 1121 -79 1142 b -17 1246 -79 1225 -58 1246 z m 256 1028 b 318 965 297 1028 318 1007 l 318 63 b 256 0 318 21 297 0 l 118 0 b 56 63 76 0 56 21 l 56 965 b 118 1028 56 1007 76 1028 z "},"Ĩ":{"ha":483,"x_min":0,"x_max":0,"o":"m 157 1156 b 88 1189 131 1174 115 1182 b -4 1154 47 1199 19 1175 b -76 1126 -28 1132 -49 1111 b -86 1197 -106 1143 -97 1175 b 47 1297 -57 1258 -8 1290 b 218 1247 101 1304 163 1286 b 286 1214 244 1229 258 1224 b 378 1250 326 1204 354 1228 b 450 1276 400 1271 422 1292 b 461 1207 479 1260 471 1229 b 328 1106 429 1144 382 1111 b 157 1156 272 1099 211 1117 z m 256 1028 b 318 965 297 1028 318 1007 l 318 63 b 256 0 318 21 297 0 l 118 0 b 56 63 76 0 56 21 l 56 965 b 118 1028 56 1007 76 1028 z "},"Ĵ":{"ha":992,"x_min":0,"x_max":0,"o":"m 683 1204 l 628 1139 b 564 1110 611 1119 590 1110 l 543 1110 b 514 1174 500 1110 486 1139 l 618 1303 b 682 1332 635 1322 656 1332 l 685 1332 b 747 1303 711 1332 732 1322 l 851 1174 b 822 1110 881 1139 867 1110 l 803 1110 b 738 1139 776 1110 754 1119 z m 228 343 b 313 321 261 364 289 356 b 426 240 339 281 378 240 b 518 269 460 240 493 246 b 560 414 543 292 560 336 l 560 964 b 622 1026 560 1006 581 1026 l 761 1026 b 824 964 803 1026 824 1006 l 824 382 b 740 113 824 294 801 193 b 426 -26 679 32 581 -26 b 165 76 321 -26 233 8 b 82 189 131 111 103 154 b 107 274 61 224 74 253 z "},"Ĺ":{"ha":897,"x_min":0,"x_max":0,"o":"m 285 1299 b 360 1183 389 1365 461 1250 b 226 1118 317 1156 267 1131 b 172 1108 206 1111 188 1108 b 142 1154 140 1108 129 1126 b 222 1251 153 1182 182 1217 b 285 1299 242 1268 263 1283 z m 318 263 l 686 263 b 749 200 728 263 749 242 l 749 63 b 686 0 749 21 728 0 l 118 0 b 56 63 76 0 56 21 l 56 965 b 118 1028 56 1007 76 1028 l 256 1028 b 318 965 297 1028 318 1007 z "},"Ľ":{"ha":897,"x_min":0,"x_max":0,"o":"m 492 1031 b 554 1006 515 1031 538 1021 b 581 942 571 989 581 965 b 556 874 581 913 565 886 b 543 856 554 869 550 863 b 521 829 536 849 529 839 b 493 800 513 819 503 810 b 428 789 472 781 463 756 b 425 793 426 790 425 792 b 438 831 413 806 425 818 l 468 865 b 419 894 447 869 431 881 b 401 942 408 908 401 925 b 428 1006 401 965 411 989 b 492 1031 444 1021 465 1031 z m 318 263 l 686 263 b 749 200 728 263 749 242 l 749 63 b 686 0 749 21 728 0 l 118 0 b 56 63 76 0 56 21 l 56 965 b 118 1028 56 1007 76 1028 l 256 1028 b 318 965 297 1028 318 1007 z "},"Ł":{"ha":897,"x_min":0,"x_max":0,"o":"m 318 263 l 318 510 l 414 606 b 414 693 444 635 444 664 l 404 703 b 318 706 376 732 347 733 l 318 965 b 256 1028 318 1007 297 1028 l 118 1028 b 56 965 76 1028 56 1007 l 56 443 l -28 360 b -28 271 -57 331 -57 300 l -18 261 b 56 249 6 238 31 233 l 56 63 b 118 0 56 21 76 0 l 686 0 b 749 63 728 0 749 21 l 749 200 b 686 263 749 242 728 263 z "},"Ń":{"ha":1079,"x_min":0,"x_max":0,"o":"m 553 1299 b 628 1183 657 1365 729 1250 b 494 1118 585 1156 535 1131 b 440 1108 474 1111 456 1108 b 410 1154 408 1108 397 1126 b 490 1251 421 1182 450 1217 b 553 1299 510 1268 531 1283 z m 118 0 b 56 63 76 0 56 21 l 56 965 b 118 1028 56 1007 76 1028 l 238 1028 b 314 988 269 1028 296 1014 l 635 522 l 635 965 b 697 1028 635 1007 656 1028 l 835 1028 b 897 965 876 1028 897 1007 l 897 63 b 835 0 897 21 876 0 l 715 0 b 639 40 683 0 657 14 l 318 510 l 318 63 b 256 0 318 21 297 0 z "},"Ň":{"ha":1079,"x_min":0,"x_max":0,"o":"m 482 1238 l 536 1303 b 601 1332 553 1322 575 1332 l 621 1332 b 650 1268 665 1332 679 1303 l 546 1139 b 483 1110 531 1119 510 1110 l 481 1110 b 417 1139 454 1110 433 1119 l 313 1268 b 342 1332 285 1303 299 1332 l 363 1332 b 426 1303 389 1332 410 1322 z m 118 0 b 56 63 76 0 56 21 l 56 965 b 118 1028 56 1007 76 1028 l 238 1028 b 314 988 269 1028 296 1014 l 635 522 l 635 965 b 697 1028 635 1007 656 1028 l 835 1028 b 897 965 876 1028 897 1007 l 897 63 b 835 0 897 21 876 0 l 715 0 b 639 40 683 0 657 14 l 318 510 l 318 63 b 256 0 318 21 297 0 z "},"Ŏ":{"ha":1268,"x_min":0,"x_max":0,"o":"m 585 1226 b 663 1285 628 1226 646 1257 b 725 1332 679 1313 693 1339 b 754 1268 757 1325 758 1292 b 693 1151 744 1218 724 1178 b 586 1110 663 1124 625 1110 b 481 1151 551 1110 513 1124 b 415 1268 449 1178 422 1218 b 444 1332 411 1292 413 1325 b 506 1286 476 1338 489 1314 b 578 1226 521 1258 539 1228 z m 596 -25 b 214 133 446 -25 313 36 b 56 514 115 231 56 365 b 214 896 56 664 115 797 b 596 1054 313 994 446 1054 b 978 896 744 1054 879 994 b 1136 514 1076 797 1136 664 b 978 133 1136 365 1076 231 b 596 -25 879 36 744 -25 z m 596 792 b 400 710 519 792 450 760 b 318 514 350 660 318 590 b 400 318 318 438 350 368 b 596 238 450 268 519 238 b 792 318 672 238 742 268 b 872 514 842 368 872 438 b 792 710 872 590 842 660 b 596 792 742 760 672 792 z "},"Ő":{"ha":1268,"x_min":0,"x_max":0,"o":"m 510 1294 b 583 1199 589 1363 661 1265 b 481 1128 550 1169 513 1143 b 408 1122 447 1113 419 1107 b 426 1197 397 1135 407 1164 b 510 1294 446 1229 476 1265 z m 718 1294 b 792 1199 797 1363 869 1265 b 689 1128 758 1169 721 1143 b 617 1122 656 1113 628 1107 b 635 1197 606 1135 615 1164 b 718 1294 654 1229 685 1265 z m 596 -25 b 214 133 446 -25 313 36 b 56 514 115 231 56 365 b 214 896 56 664 115 797 b 596 1054 313 994 446 1054 b 978 896 744 1054 879 994 b 1136 514 1076 797 1136 664 b 978 133 1136 365 1076 231 b 596 -25 879 36 744 -25 z m 596 792 b 400 710 519 792 450 760 b 318 514 350 660 318 590 b 400 318 318 438 350 368 b 596 238 450 268 519 238 b 792 318 672 238 742 268 b 872 514 842 368 872 438 b 792 710 872 590 842 660 b 596 792 742 760 672 792 z "},"Ō":{"ha":1268,"x_min":0,"x_max":0,"o":"m 785 1246 b 847 1183 826 1246 847 1225 b 785 1121 847 1142 826 1121 l 382 1121 b 319 1183 340 1121 319 1142 b 382 1246 319 1225 340 1246 z m 596 -25 b 214 133 446 -25 313 36 b 56 514 115 231 56 365 b 214 896 56 664 115 797 b 596 1054 313 994 446 1054 b 978 896 744 1054 879 994 b 1136 514 1076 797 1136 664 b 978 133 1136 365 1076 231 b 596 -25 879 36 744 -25 z m 596 792 b 400 710 519 792 450 760 b 318 514 350 660 318 590 b 400 318 318 438 350 368 b 596 238 450 268 519 238 b 792 318 672 238 742 268 b 872 514 842 368 872 438 b 792 710 872 590 842 660 b 596 792 742 760 672 792 z "},"Ǿ":{"ha":1268,"x_min":0,"x_max":0,"o":"m 535 1108 b 589 1118 550 1108 568 1111 b 722 1183 629 1131 679 1156 b 647 1299 824 1250 751 1365 b 585 1251 625 1283 604 1268 b 504 1154 544 1217 515 1182 b 535 1108 492 1126 503 1108 z m 978 896 b 886 969 950 924 919 949 l 911 1051 b 858 1122 924 1094 904 1122 l 756 1122 b 686 1069 718 1122 696 1104 l 679 1047 b 596 1054 653 1051 625 1054 b 214 896 446 1054 313 994 b 56 514 115 797 56 664 b 214 133 56 365 115 231 b 374 24 260 88 314 50 l 357 -32 b 410 -103 344 -75 364 -103 l 513 -103 b 582 -50 550 -103 572 -85 l 589 -25 l 596 -25 b 978 133 744 -25 879 36 b 1136 514 1076 231 1136 365 b 978 896 1136 664 1076 797 z m 400 318 b 318 514 350 368 318 438 b 400 710 318 590 350 660 b 596 792 450 760 519 792 l 603 792 l 450 279 b 400 318 432 290 415 303 z m 792 318 b 671 247 758 285 717 261 l 804 696 b 872 514 847 647 872 583 b 792 318 872 438 842 368 z "},"Ŕ":{"ha":993,"x_min":0,"x_max":0,"o":"m 510 1299 b 585 1183 614 1365 686 1250 b 451 1118 542 1156 492 1131 b 397 1108 431 1111 413 1108 b 367 1154 365 1108 354 1126 b 447 1251 378 1182 407 1217 b 510 1299 467 1268 488 1283 z m 864 690 b 747 425 864 589 824 485 b 718 406 736 415 726 410 b 701 399 708 401 703 400 l 882 72 b 833 0 908 28 882 0 l 681 0 b 608 49 643 0 626 15 l 444 367 l 318 367 l 318 63 b 256 0 318 21 297 0 l 118 0 b 56 63 76 0 56 21 l 56 965 b 118 1028 56 1007 76 1028 l 540 1028 b 763 950 629 1028 703 1001 b 831 853 785 929 811 896 b 864 690 850 808 864 753 z m 610 690 b 526 775 610 739 582 775 l 318 775 l 318 603 l 517 603 b 610 690 565 603 610 636 z "},"Ř":{"ha":993,"x_min":0,"x_max":0,"o":"m 422 1238 l 476 1303 b 542 1332 493 1322 515 1332 l 561 1332 b 590 1268 606 1332 619 1303 l 486 1139 b 424 1110 471 1119 450 1110 l 421 1110 b 357 1139 394 1110 374 1119 l 253 1268 b 282 1332 225 1303 239 1332 l 303 1332 b 367 1303 329 1332 350 1322 z m 864 690 b 747 425 864 589 824 485 b 718 406 736 415 726 410 b 701 399 708 401 703 400 l 882 72 b 833 0 908 28 882 0 l 681 0 b 608 49 643 0 626 15 l 444 367 l 318 367 l 318 63 b 256 0 318 21 297 0 l 118 0 b 56 63 76 0 56 21 l 56 965 b 118 1028 56 1007 76 1028 l 540 1028 b 763 950 629 1028 703 1001 b 831 853 785 929 811 896 b 864 690 850 808 864 753 z m 610 690 b 526 775 610 739 582 775 l 318 775 l 318 603 l 517 603 b 610 690 565 603 610 636 z "},"Ś":{"ha":1061,"x_min":0,"x_max":0,"o":"m 576 1299 b 651 1183 681 1365 753 1250 b 518 1118 608 1156 558 1131 b 464 1108 497 1111 479 1108 b 433 1154 432 1108 421 1126 b 514 1251 444 1182 474 1217 b 576 1299 533 1268 554 1283 z m 656 247 b 682 290 672 258 681 274 b 669 329 683 306 679 319 b 653 343 665 333 660 338 b 563 381 638 353 611 367 b 469 401 538 388 507 394 b 131 569 318 433 185 492 b 86 701 103 613 89 658 b 99 817 83 744 88 785 b 249 990 121 889 176 949 b 510 1056 321 1032 411 1056 b 719 1025 593 1056 663 1042 b 856 960 775 1007 821 982 b 869 874 890 938 896 908 l 794 769 b 708 751 774 738 744 731 b 510 810 658 781 588 810 b 403 786 460 810 425 799 b 365 746 381 774 369 757 b 392 683 354 718 367 699 b 499 649 417 668 454 658 b 883 482 715 606 832 549 b 936 240 938 411 951 328 b 826 57 926 174 892 107 b 529 -28 761 6 664 -28 l 504 -28 b 476 -26 494 -28 486 -28 b 107 81 369 -21 246 1 b 90 168 69 101 64 135 l 183 285 b 271 300 207 317 236 321 b 478 228 343 257 399 238 b 656 247 557 218 626 226 z "},"Š":{"ha":1061,"x_min":0,"x_max":0,"o":"m 504 1238 l 558 1303 b 624 1332 575 1322 597 1332 l 643 1332 b 672 1268 688 1332 701 1303 l 568 1139 b 506 1110 553 1119 532 1110 l 503 1110 b 439 1139 476 1110 456 1119 l 335 1268 b 364 1332 307 1303 321 1332 l 385 1332 b 449 1303 411 1332 432 1322 z m 656 247 b 682 290 672 258 681 274 b 669 329 683 306 679 319 b 653 343 665 333 660 338 b 563 381 638 353 611 367 b 469 401 538 388 507 394 b 131 569 318 433 185 492 b 86 701 103 613 89 658 b 99 817 83 744 88 785 b 249 990 121 889 176 949 b 510 1056 321 1032 411 1056 b 719 1025 593 1056 663 1042 b 856 960 775 1007 821 982 b 869 874 890 938 896 908 l 794 769 b 708 751 774 738 744 731 b 510 810 658 781 588 810 b 403 786 460 810 425 799 b 365 746 381 774 369 757 b 392 683 354 718 367 699 b 499 649 417 668 454 658 b 883 482 715 606 832 549 b 936 240 938 411 951 328 b 826 57 926 174 892 107 b 529 -28 761 6 664 -28 l 504 -28 b 476 -26 494 -28 486 -28 b 107 81 369 -21 246 1 b 90 168 69 101 64 135 l 183 285 b 271 300 207 317 236 321 b 478 228 343 257 399 238 b 656 247 557 218 626 226 z "},"Ş":{"ha":1061,"x_min":0,"x_max":0,"o":"m 883 482 b 499 649 832 549 715 606 b 392 683 454 658 417 668 b 365 746 367 699 354 718 b 403 786 369 757 381 774 b 510 810 425 799 460 810 b 708 751 588 810 658 781 b 794 769 744 731 774 738 l 869 874 b 856 960 896 908 890 938 b 719 1025 821 982 775 1007 b 510 1056 663 1042 593 1056 b 249 990 411 1056 321 1032 b 99 817 176 949 121 889 b 86 701 88 785 83 744 b 131 569 89 658 103 613 b 469 401 185 492 318 433 b 563 381 507 394 538 388 b 653 343 611 367 638 353 b 669 329 660 338 665 333 b 682 290 679 319 683 306 b 656 247 681 274 672 258 b 478 228 626 226 557 218 b 271 300 399 238 343 257 b 183 285 236 321 207 317 l 90 168 b 107 81 64 135 69 101 b 443 -24 232 10 343 -15 b 439 -107 440 -54 439 -82 b 458 -175 439 -142 446 -165 b 597 -171 490 -197 549 -183 b 661 -197 636 -160 660 -176 b 590 -253 663 -218 642 -243 b 514 -269 558 -258 532 -264 b 476 -294 494 -276 482 -285 b 490 -350 465 -315 469 -340 b 636 -347 514 -361 569 -364 b 767 -167 743 -321 790 -261 b 739 -108 760 -142 751 -122 b 646 -67 714 -81 681 -67 b 596 -71 628 -67 611 -68 b 575 -69 586 -72 579 -72 b 569 -28 567 -64 567 -50 b 826 57 683 -21 768 11 b 936 240 892 107 926 174 b 883 482 951 328 938 411 z "},"Ŝ":{"ha":1061,"x_min":0,"x_max":0,"o":"m 494 1204 l 439 1139 b 375 1110 422 1119 401 1110 l 354 1110 b 325 1174 311 1110 297 1139 l 429 1303 b 493 1332 446 1322 467 1332 l 496 1332 b 558 1303 522 1332 543 1322 l 663 1174 b 633 1110 692 1139 678 1110 l 614 1110 b 549 1139 588 1110 565 1119 z m 656 247 b 682 290 672 258 681 274 b 669 329 683 306 679 319 b 653 343 665 333 660 338 b 563 381 638 353 611 367 b 469 401 538 388 507 394 b 131 569 318 433 185 492 b 86 701 103 613 89 658 b 99 817 83 744 88 785 b 249 990 121 889 176 949 b 510 1056 321 1032 411 1056 b 719 1025 593 1056 663 1042 b 856 960 775 1007 821 982 b 869 874 890 938 896 908 l 794 769 b 708 751 774 738 744 731 b 510 810 658 781 588 810 b 403 786 460 810 425 799 b 365 746 381 774 369 757 b 392 683 354 718 367 699 b 499 649 417 668 454 658 b 883 482 715 606 832 549 b 936 240 938 411 951 328 b 826 57 926 174 892 107 b 529 -28 761 6 664 -28 l 504 -28 b 476 -26 494 -28 486 -28 b 107 81 369 -21 246 1 b 90 168 69 101 64 135 l 183 285 b 271 300 207 317 236 321 b 478 228 343 257 399 238 b 656 247 557 218 626 226 z "},"Ŧ":{"ha":981,"x_min":0,"x_max":0,"o":"m 118 1028 b 56 965 76 1028 56 1007 l 56 828 b 118 765 56 786 76 765 l 332 765 l 332 639 l 254 639 b 192 576 213 639 192 618 b 254 514 192 535 213 514 l 332 514 l 332 63 b 394 0 332 21 353 0 l 532 0 b 594 63 574 0 594 21 l 594 514 l 657 514 b 719 576 699 514 719 535 b 657 639 719 618 699 639 l 594 639 l 594 765 l 808 765 b 871 828 850 765 871 786 l 871 965 b 808 1028 871 1007 850 1028 z "},"Ť":{"ha":981,"x_min":0,"x_max":0,"o":"m 458 1238 l 513 1303 b 578 1332 529 1322 551 1332 l 597 1332 b 626 1268 642 1332 656 1303 l 522 1139 b 460 1110 507 1119 486 1110 l 457 1110 b 393 1139 431 1110 410 1119 l 289 1268 b 318 1332 261 1303 275 1332 l 339 1332 b 403 1303 365 1332 386 1322 z m 394 0 b 332 63 353 0 332 21 l 332 765 l 118 765 b 56 828 76 765 56 786 l 56 965 b 118 1028 56 1007 76 1028 l 808 1028 b 871 965 850 1028 871 1007 l 871 828 b 808 765 871 786 850 765 l 594 765 l 594 63 b 532 0 594 21 574 0 z "},"Ŭ":{"ha":1175,"x_min":0,"x_max":0,"o":"m 525 1226 b 603 1285 568 1226 586 1257 b 665 1332 619 1313 633 1339 b 694 1268 697 1325 699 1292 b 633 1151 685 1218 664 1178 b 526 1110 603 1124 565 1110 b 421 1151 492 1110 453 1124 b 356 1268 389 1178 363 1218 b 385 1332 351 1292 353 1325 b 446 1286 417 1338 429 1314 b 518 1226 461 1258 479 1228 z m 1008 482 b 878 132 1007 354 960 226 b 532 -25 794 38 676 -25 b 192 125 393 -25 275 32 b 56 482 108 218 60 344 l 56 965 b 118 1028 56 1007 76 1028 l 256 1028 b 318 965 297 1028 318 1007 l 318 482 b 381 303 318 410 342 347 b 532 231 419 257 472 231 b 682 303 589 231 643 257 b 744 482 721 347 744 410 l 744 965 b 807 1028 744 1007 765 1028 l 946 1028 b 1008 965 988 1028 1008 1007 z "},"Ű":{"ha":1175,"x_min":0,"x_max":0,"o":"m 463 1294 b 536 1199 542 1363 614 1265 b 433 1128 503 1169 465 1143 b 361 1122 400 1113 372 1107 b 379 1197 350 1135 360 1164 b 463 1294 399 1229 429 1265 z m 671 1294 b 744 1199 750 1363 822 1265 b 642 1128 711 1169 674 1143 b 569 1122 608 1113 581 1107 b 588 1197 558 1135 568 1164 b 671 1294 607 1229 638 1265 z m 1008 482 b 878 132 1007 354 960 226 b 532 -25 794 38 676 -25 b 192 125 393 -25 275 32 b 56 482 108 218 60 344 l 56 965 b 118 1028 56 1007 76 1028 l 256 1028 b 318 965 297 1028 318 1007 l 318 482 b 381 303 318 410 342 347 b 532 231 419 257 472 231 b 682 303 589 231 643 257 b 744 482 721 347 744 410 l 744 965 b 807 1028 744 1007 765 1028 l 946 1028 b 1008 965 988 1028 1008 1007 z "},"Ū":{"ha":1175,"x_min":0,"x_max":0,"o":"m 732 1246 b 794 1183 774 1246 794 1225 b 732 1121 794 1142 774 1121 l 329 1121 b 267 1183 288 1121 267 1142 b 329 1246 267 1225 288 1246 z m 1008 482 b 878 132 1007 354 960 226 b 532 -25 794 38 676 -25 b 192 125 393 -25 275 32 b 56 482 108 218 60 344 l 56 965 b 118 1028 56 1007 76 1028 l 256 1028 b 318 965 297 1028 318 1007 l 318 482 b 381 303 318 410 342 347 b 532 231 419 257 472 231 b 682 303 589 231 643 257 b 744 482 721 347 744 410 l 744 965 b 807 1028 744 1007 765 1028 l 946 1028 b 1008 965 988 1028 1008 1007 z "},"Ů":{"ha":1175,"x_min":0,"x_max":0,"o":"m 533 1106 b 426 1210 474 1106 426 1153 b 533 1318 426 1271 474 1318 b 642 1210 594 1318 642 1271 b 533 1106 642 1153 594 1106 z m 533 1253 b 490 1210 511 1253 490 1233 b 533 1168 490 1188 511 1168 b 576 1210 557 1168 576 1188 b 533 1253 576 1233 557 1253 z m 1008 482 b 878 132 1007 354 960 226 b 532 -25 794 38 676 -25 b 192 125 393 -25 275 32 b 56 482 108 218 60 344 l 56 965 b 118 1028 56 1007 76 1028 l 256 1028 b 318 965 297 1028 318 1007 l 318 482 b 381 303 318 410 342 347 b 532 231 419 257 472 231 b 682 303 589 231 643 257 b 744 482 721 347 744 410 l 744 965 b 807 1028 744 1007 765 1028 l 946 1028 b 1008 965 988 1028 1008 1007 z "},"Ũ":{"ha":1175,"x_min":0,"x_max":0,"o":"m 503 1156 b 433 1189 476 1174 461 1182 b 342 1154 393 1199 365 1175 b 269 1126 318 1132 297 1111 b 260 1197 240 1143 249 1175 b 393 1297 289 1258 338 1290 b 564 1247 447 1304 508 1286 b 632 1214 590 1229 604 1224 b 724 1250 672 1204 700 1228 b 796 1276 746 1271 768 1292 b 807 1207 825 1260 817 1229 b 674 1106 775 1144 728 1111 b 503 1156 618 1099 557 1117 z m 1008 482 b 878 132 1007 354 960 226 b 532 -25 794 38 676 -25 b 192 125 393 -25 275 32 b 56 482 108 218 60 344 l 56 965 b 118 1028 56 1007 76 1028 l 256 1028 b 318 965 297 1028 318 1007 l 318 482 b 381 303 318 410 342 347 b 532 231 419 257 472 231 b 682 303 589 231 643 257 b 744 482 721 347 744 410 l 744 965 b 807 1028 744 1007 765 1028 l 946 1028 b 1008 965 988 1028 1008 1007 z "},"Ẃ":{"ha":1442,"x_min":0,"x_max":0,"o":"m 757 1299 b 832 1183 861 1365 933 1250 b 699 1118 789 1156 739 1131 b 644 1108 678 1111 660 1108 b 614 1154 613 1108 601 1126 b 694 1251 625 1182 654 1217 b 757 1299 714 1268 735 1283 z m 71 961 b 126 1029 61 1004 82 1029 l 268 1029 b 338 974 306 1029 329 1011 l 433 522 l 557 976 b 626 1029 567 1011 589 1029 l 778 1029 b 847 976 815 1029 838 1011 l 971 525 l 1067 974 b 1136 1029 1075 1011 1099 1029 l 1276 1029 b 1332 961 1321 1029 1342 1004 l 1135 56 b 1065 0 1126 18 1103 0 l 904 0 b 835 53 867 0 844 18 l 703 536 l 571 53 b 500 0 560 18 536 0 l 339 0 b 269 56 301 0 278 18 z "},"Ŵ":{"ha":1442,"x_min":0,"x_max":0,"o":"m 699 1204 l 643 1139 b 579 1110 626 1119 606 1110 l 558 1110 b 529 1174 515 1110 501 1139 l 633 1303 b 697 1332 650 1322 671 1332 l 700 1332 b 763 1303 726 1332 747 1322 l 867 1174 b 838 1110 896 1139 882 1110 l 818 1110 b 753 1139 792 1110 769 1119 z m 71 961 b 126 1029 61 1004 82 1029 l 268 1029 b 338 974 306 1029 329 1011 l 433 522 l 557 976 b 626 1029 567 1011 589 1029 l 778 1029 b 847 976 815 1029 838 1011 l 971 525 l 1067 974 b 1136 1029 1075 1011 1099 1029 l 1276 1029 b 1332 961 1321 1029 1342 1004 l 1135 56 b 1065 0 1126 18 1103 0 l 904 0 b 835 53 867 0 844 18 l 703 536 l 571 53 b 500 0 560 18 536 0 l 339 0 b 269 56 301 0 278 18 z "},"Ẅ":{"ha":1442,"x_min":0,"x_max":0,"o":"m 568 1114 b 479 1204 519 1114 479 1154 b 568 1294 479 1254 519 1294 b 658 1204 618 1294 658 1254 b 568 1114 658 1154 618 1114 z m 836 1114 b 747 1204 788 1114 747 1154 b 836 1294 747 1254 788 1294 b 926 1204 886 1294 926 1254 b 836 1114 926 1154 886 1114 z m 71 961 b 126 1029 61 1004 82 1029 l 268 1029 b 338 974 306 1029 329 1011 l 433 522 l 557 976 b 626 1029 567 1011 589 1029 l 778 1029 b 847 976 815 1029 838 1011 l 971 525 l 1067 974 b 1136 1029 1075 1011 1099 1029 l 1276 1029 b 1332 961 1321 1029 1342 1004 l 1135 56 b 1065 0 1126 18 1103 0 l 904 0 b 835 53 867 0 844 18 l 703 536 l 571 53 b 500 0 560 18 536 0 l 339 0 b 269 56 301 0 278 18 z "},"Ẁ":{"ha":1442,"x_min":0,"x_max":0,"o":"m 663 1299 b 776 1200 707 1269 749 1233 b 807 1121 804 1167 818 1138 b 775 1108 801 1113 790 1108 b 656 1146 743 1108 703 1122 b 549 1292 608 1168 499 1214 b 663 1299 572 1329 611 1332 z m 71 961 b 126 1029 61 1004 82 1029 l 268 1029 b 338 974 306 1029 329 1011 l 433 522 l 557 976 b 626 1029 567 1011 589 1029 l 778 1029 b 847 976 815 1029 838 1011 l 971 525 l 1067 974 b 1136 1029 1075 1011 1099 1029 l 1276 1029 b 1332 961 1321 1029 1342 1004 l 1135 56 b 1065 0 1126 18 1103 0 l 904 0 b 835 53 867 0 844 18 l 703 536 l 571 53 b 500 0 560 18 536 0 l 339 0 b 269 56 301 0 278 18 z "},"Ý":{"ha":1051,"x_min":0,"x_max":0,"o":"m 575 1299 b 650 1183 679 1365 751 1250 b 517 1118 607 1156 557 1131 b 463 1108 496 1111 478 1108 b 432 1154 431 1108 419 1126 b 513 1251 443 1182 472 1217 b 575 1299 532 1268 553 1283 z m 447 0 b 385 63 406 0 385 21 l 385 478 l 89 953 b 131 1028 63 996 79 1028 l 296 1028 b 371 986 328 1028 353 1014 l 515 754 l 660 986 b 735 1028 678 1014 703 1028 l 900 1028 b 942 953 951 1028 969 996 l 647 478 l 647 63 b 585 0 647 21 626 0 z "},"Ŷ":{"ha":1051,"x_min":0,"x_max":0,"o":"m 510 1204 l 454 1139 b 390 1110 438 1119 417 1110 l 369 1110 b 340 1174 326 1110 313 1139 l 444 1303 b 508 1332 461 1322 482 1332 l 511 1332 b 574 1303 538 1332 558 1322 l 678 1174 b 649 1110 707 1139 693 1110 l 629 1110 b 564 1139 603 1110 581 1119 z m 447 0 b 385 63 406 0 385 21 l 385 478 l 89 953 b 131 1028 63 996 79 1028 l 296 1028 b 371 986 328 1028 353 1014 l 515 754 l 660 986 b 735 1028 678 1014 703 1028 l 900 1028 b 942 953 951 1028 969 996 l 647 478 l 647 63 b 585 0 647 21 626 0 z "},"Ỳ":{"ha":1051,"x_min":0,"x_max":0,"o":"m 457 1299 b 571 1200 501 1269 543 1233 b 601 1121 599 1167 613 1138 b 569 1108 596 1113 585 1108 b 450 1146 538 1108 497 1122 b 343 1292 403 1168 293 1214 b 457 1299 367 1329 406 1332 z m 447 0 b 385 63 406 0 385 21 l 385 478 l 89 953 b 131 1028 63 996 79 1028 l 296 1028 b 371 986 328 1028 353 1014 l 515 754 l 660 986 b 735 1028 678 1014 703 1028 l 900 1028 b 942 953 951 1028 969 996 l 647 478 l 647 63 b 585 0 647 21 626 0 z "},"Ź":{"ha":956,"x_min":0,"x_max":0,"o":"m 492 1299 b 567 1183 596 1365 668 1250 b 433 1118 524 1156 474 1131 b 379 1108 413 1111 394 1108 b 349 1154 347 1108 336 1126 b 429 1251 360 1182 389 1217 b 492 1299 449 1268 469 1283 z m 118 0 b 56 63 76 0 56 21 l 56 171 b 82 249 56 203 61 222 l 467 765 l 139 765 b 76 828 97 765 76 786 l 76 965 b 139 1028 76 1007 97 1028 l 735 1028 b 797 965 776 1028 797 1007 l 797 858 b 772 781 797 829 789 804 l 399 263 l 756 263 b 818 200 797 263 818 242 l 818 63 b 756 0 818 21 797 0 z "},"Ž":{"ha":956,"x_min":0,"x_max":0,"o":"m 451 1238 l 506 1303 b 571 1332 522 1322 544 1332 l 590 1332 b 619 1268 635 1332 649 1303 l 515 1139 b 453 1110 500 1119 479 1110 l 450 1110 b 386 1139 424 1110 403 1119 l 282 1268 b 311 1332 254 1303 268 1332 l 332 1332 b 396 1303 358 1332 379 1322 z m 118 0 b 56 63 76 0 56 21 l 56 171 b 82 249 56 203 61 222 l 467 765 l 139 765 b 76 828 97 765 76 786 l 76 965 b 139 1028 76 1007 97 1028 l 735 1028 b 797 965 776 1028 797 1007 l 797 858 b 772 781 797 829 789 804 l 399 263 l 756 263 b 818 200 797 263 818 242 l 818 63 b 756 0 818 21 797 0 z "},"Ż":{"ha":956,"x_min":0,"x_max":0,"o":"m 446 1114 b 357 1204 397 1114 357 1154 b 446 1294 357 1254 397 1294 b 536 1204 496 1294 536 1254 b 446 1114 536 1154 496 1114 z m 118 0 b 56 63 76 0 56 21 l 56 171 b 82 249 56 203 61 222 l 467 765 l 139 765 b 76 828 97 765 76 786 l 76 965 b 139 1028 76 1007 97 1028 l 735 1028 b 797 965 776 1028 797 1007 l 797 858 b 772 781 797 829 789 804 l 399 263 l 756 263 b 818 200 797 263 818 242 l 818 63 b 756 0 818 21 797 0 z "},"Ą":{"ha":1144,"x_min":0,"x_max":0,"o":"m 1117 -154 b 1050 -119 1111 -126 1083 -108 b 978 -137 1033 -125 1010 -131 b 881 -96 926 -147 892 -124 b 918 -24 868 -68 879 -35 b 963 -8 939 -17 954 -12 b 983 3 969 -6 976 -1 b 1011 72 1014 11 1024 36 l 694 978 b 622 1028 682 1011 657 1028 l 464 1028 b 393 978 429 1028 406 1011 l 75 72 b 126 0 60 28 78 0 l 276 0 b 349 51 313 0 336 17 l 392 178 l 697 178 l 740 51 b 789 3 749 25 765 8 b 772 -93 775 -22 768 -54 b 833 -208 778 -142 799 -179 b 1057 -218 903 -265 1007 -240 b 1117 -154 1106 -196 1121 -182 z m 639 406 l 456 406 l 543 690 z "},"Ę":{"ha":963,"x_min":0,"x_max":0,"o":"m 318 765 l 714 765 b 776 828 756 765 776 786 l 776 965 b 714 1028 776 1007 756 1028 l 118 1028 b 56 965 76 1028 56 1007 l 56 63 b 118 0 56 21 76 0 l 368 0 b 363 -72 363 -21 360 -44 b 424 -187 368 -121 389 -158 b 647 -197 493 -244 597 -219 b 707 -133 696 -175 711 -161 b 640 -99 701 -106 674 -87 b 568 -117 624 -104 600 -110 b 471 -75 517 -126 482 -103 b 508 -3 458 -47 469 -14 l 517 0 l 714 0 b 776 63 756 0 776 21 l 776 200 b 714 263 776 242 756 263 l 318 263 l 318 393 l 610 393 b 672 456 651 393 672 414 l 672 574 b 610 636 672 615 651 636 l 318 636 z "},"Į":{"ha":483,"x_min":0,"x_max":0,"o":"m 417 -133 b 350 -99 411 -106 383 -87 b 278 -117 333 -104 310 -110 b 181 -75 226 -126 192 -103 b 218 -3 168 -47 179 -14 l 226 0 l 256 0 b 318 63 297 0 318 21 l 318 965 b 256 1028 318 1007 297 1028 l 118 1028 b 56 965 76 1028 56 1007 l 56 63 b 82 8 56 36 64 18 b 72 -72 72 -14 68 -40 b 133 -187 78 -121 99 -158 b 357 -197 203 -244 307 -219 b 417 -133 406 -175 421 -161 z "},"Ų":{"ha":1175,"x_min":0,"x_max":0,"o":"m 807 1028 b 744 965 765 1028 744 1007 l 744 482 b 682 303 744 410 721 347 b 532 231 643 257 589 231 b 381 303 472 231 419 257 b 318 482 342 347 318 410 l 318 965 b 256 1028 318 1007 297 1028 l 118 1028 b 56 965 76 1028 56 1007 l 56 482 b 192 125 60 344 108 218 b 443 -17 257 53 342 3 b 433 -97 433 -39 429 -65 b 494 -212 439 -146 460 -183 b 718 -222 564 -269 668 -244 b 778 -158 767 -200 782 -186 b 711 -124 772 -131 744 -112 b 639 -142 694 -129 671 -135 b 542 -100 588 -151 553 -128 b 579 -28 529 -72 540 -39 l 606 -19 b 878 132 717 -3 808 54 b 1008 482 960 226 1007 354 l 1008 965 b 946 1028 1008 1007 988 1028 z "},"":{"ha":0,"x_min":0,"x_max":0,"o":"m 126 679 b 264 676 131 801 265 797 b 243 568 264 639 256 599 b 192 515 231 538 214 515 b 144 568 171 515 156 536 b 126 679 132 600 126 640 z "},"Ķ":{"ha":1015,"x_min":0,"x_max":0,"o":"m 457 524 l 843 76 b 808 0 881 36 863 0 l 631 0 b 554 36 601 0 575 13 l 318 315 l 318 63 b 256 0 318 21 297 0 l 118 0 b 56 63 76 0 56 21 l 56 965 b 118 1028 56 1007 76 1028 l 256 1028 b 318 965 297 1028 318 1007 l 318 713 l 560 992 b 636 1026 582 1018 604 1026 l 788 1026 b 824 950 842 1026 858 990 z m 349 -121 b 486 -124 353 1 488 -3 b 465 -232 486 -161 478 -201 b 414 -285 453 -262 436 -285 b 367 -232 393 -285 378 -264 b 349 -121 354 -200 349 -160 z "},"Ļ":{"ha":897,"x_min":0,"x_max":0,"o":"m 318 263 l 686 263 b 749 200 728 263 749 242 l 749 63 b 686 0 749 21 728 0 l 118 0 b 56 63 76 0 56 21 l 56 965 b 118 1028 56 1007 76 1028 l 256 1028 b 318 965 297 1028 318 1007 z m 318 -149 b 456 -151 322 -26 457 -31 b 435 -260 456 -189 447 -229 b 383 -312 422 -290 406 -312 b 336 -260 363 -312 347 -292 b 318 -149 324 -228 318 -187 z "},"Ņ":{"ha":1079,"x_min":0,"x_max":0,"o":"m 118 0 b 56 63 76 0 56 21 l 56 965 b 118 1028 56 1007 76 1028 l 238 1028 b 314 988 269 1028 296 1014 l 635 522 l 635 965 b 697 1028 635 1007 656 1028 l 835 1028 b 897 965 876 1028 897 1007 l 897 63 b 835 0 897 21 876 0 l 715 0 b 639 40 683 0 657 14 l 318 510 l 318 63 b 256 0 318 21 297 0 z m 413 -149 b 550 -151 417 -26 551 -31 b 529 -260 550 -189 542 -229 b 478 -312 517 -290 500 -312 b 431 -260 457 -312 442 -292 b 413 -149 418 -228 413 -187 z "},"Ţ":{"ha":981,"x_min":0,"x_max":0,"o":"m 394 0 b 332 63 353 0 332 21 l 332 765 l 118 765 b 56 828 76 765 56 786 l 56 965 b 118 1028 56 1007 76 1028 l 808 1028 b 871 965 850 1028 871 1007 l 871 828 b 808 765 871 786 850 765 l 594 765 l 594 63 b 532 0 594 21 574 0 z m 390 -149 b 528 -151 394 -26 529 -31 b 507 -260 528 -189 519 -229 b 456 -312 494 -290 478 -312 b 408 -260 435 -312 419 -292 b 390 -149 396 -228 390 -187 z "},"Ș":{"ha":1061,"x_min":0,"x_max":0,"o":"m 656 247 b 682 290 672 258 681 274 b 669 329 683 306 679 319 b 653 343 665 333 660 338 b 563 381 638 353 611 367 b 469 401 538 388 507 394 b 131 569 318 433 185 492 b 86 701 103 613 89 658 b 99 817 83 744 88 785 b 249 990 121 889 176 949 b 510 1056 321 1032 411 1056 b 719 1025 593 1056 663 1042 b 856 960 775 1007 821 982 b 869 874 890 938 896 908 l 794 769 b 708 751 774 738 744 731 b 510 810 658 781 588 810 b 403 786 460 810 425 799 b 365 746 381 774 369 757 b 392 683 354 718 367 699 b 499 649 417 668 454 658 b 883 482 715 606 832 549 b 936 240 938 411 951 328 b 826 57 926 174 892 107 b 529 -28 761 6 664 -28 l 504 -28 b 476 -26 494 -28 486 -28 b 107 81 369 -21 246 1 b 90 168 69 101 64 135 l 183 285 b 271 300 207 317 236 321 b 478 228 343 257 399 238 b 656 247 557 218 626 226 z m 444 -149 b 582 -151 449 -26 583 -31 b 561 -260 582 -189 574 -229 b 510 -312 549 -290 532 -312 b 463 -260 489 -312 474 -292 b 444 -149 450 -228 444 -187 z "},"Ŗ":{"ha":993,"x_min":0,"x_max":0,"o":"m 864 690 b 747 425 864 589 824 485 b 718 406 736 415 726 410 b 701 399 708 401 703 400 l 882 72 b 833 0 908 28 882 0 l 681 0 b 608 49 643 0 626 15 l 444 367 l 318 367 l 318 63 b 256 0 318 21 297 0 l 118 0 b 56 63 76 0 56 21 l 56 965 b 118 1028 56 1007 76 1028 l 540 1028 b 763 950 629 1028 703 1001 b 831 853 785 929 811 896 b 864 690 850 808 864 753 z m 610 690 b 526 775 610 739 582 775 l 318 775 l 318 603 l 517 603 b 610 690 565 603 610 636 z m 371 -115 b 508 -118 375 7 510 3 b 488 -226 508 -156 500 -196 b 436 -279 475 -257 458 -279 b 389 -226 415 -279 400 -258 b 371 -115 376 -194 371 -154 z "},"ă":{"ha":1144,"x_min":0,"x_max":0,"o":"m 538 1226 b 615 1285 581 1226 599 1257 b 678 1332 632 1313 646 1339 b 707 1268 710 1325 711 1292 b 646 1151 697 1218 676 1178 b 539 1110 615 1124 578 1110 b 433 1151 504 1110 465 1124 b 368 1268 401 1178 375 1218 b 397 1332 364 1292 365 1325 b 458 1286 429 1338 442 1314 b 531 1226 474 1258 492 1228 z m 622 1028 b 694 978 657 1028 682 1011 l 1011 72 b 960 0 1026 28 1008 0 l 811 0 b 740 51 775 0 751 17 l 697 178 l 392 178 l 349 51 b 276 0 336 17 313 0 l 126 0 b 75 72 78 0 60 28 l 393 978 b 464 1028 406 1011 429 1028 z m 639 406 l 543 690 l 456 406 z "},"ā":{"ha":1144,"x_min":0,"x_max":0,"o":"m 743 1246 b 806 1183 785 1246 806 1225 b 743 1121 806 1142 785 1121 l 340 1121 b 278 1183 299 1121 278 1142 b 340 1246 278 1225 299 1246 z m 622 1028 b 694 978 657 1028 682 1011 l 1011 72 b 960 0 1026 28 1008 0 l 811 0 b 740 51 775 0 751 17 l 697 178 l 392 178 l 349 51 b 276 0 336 17 313 0 l 126 0 b 75 72 78 0 60 28 l 393 978 b 464 1028 406 1011 429 1028 z m 639 406 l 543 690 l 456 406 z "},"ą":{"ha":1144,"x_min":0,"x_max":0,"o":"m 1117 -154 b 1050 -119 1111 -126 1083 -108 b 978 -137 1033 -125 1010 -131 b 881 -96 926 -147 892 -124 b 918 -24 868 -68 879 -35 b 963 -8 939 -17 954 -12 b 983 3 969 -6 976 -1 b 1011 72 1014 11 1024 36 l 694 978 b 622 1028 682 1011 657 1028 l 464 1028 b 393 978 429 1028 406 1011 l 75 72 b 126 0 60 28 78 0 l 276 0 b 349 51 313 0 336 17 l 392 178 l 697 178 l 740 51 b 789 3 749 25 765 8 b 772 -93 775 -22 768 -54 b 833 -208 778 -142 799 -179 b 1057 -218 903 -265 1007 -240 b 1117 -154 1106 -196 1121 -182 z m 639 406 l 456 406 l 543 690 z "},"ǽ":{"ha":1597,"x_min":0,"x_max":0,"o":"m 964 1299 b 1039 1183 1068 1365 1140 1250 b 906 1118 996 1156 946 1131 b 851 1108 885 1111 867 1108 b 821 1154 819 1108 808 1126 b 901 1251 832 1182 861 1217 b 964 1299 921 1268 942 1283 z m 1490 63 b 1428 0 1490 21 1469 0 l 824 0 b 771 51 788 0 769 17 l 771 178 l 465 178 l 379 51 b 289 0 354 17 324 0 l 140 0 b 114 72 92 0 82 28 l 743 978 b 832 1028 767 1011 796 1028 l 1428 1028 b 1490 965 1469 1028 1490 1007 l 1490 828 b 1428 765 1490 786 1469 765 l 1032 765 l 1032 636 l 1324 636 b 1386 574 1365 636 1386 615 l 1386 456 b 1324 393 1386 414 1365 393 l 1032 393 l 1032 263 l 1428 263 b 1490 200 1469 263 1490 242 z m 792 406 l 792 692 l 608 406 z "},"ć":{"ha":1132,"x_min":0,"x_max":0,"o":"m 610 1299 b 685 1183 714 1365 786 1250 b 551 1118 642 1156 592 1131 b 497 1108 531 1111 513 1108 b 467 1154 465 1108 454 1126 b 547 1251 478 1182 507 1217 b 610 1299 567 1268 588 1283 z m 590 -26 b 208 132 442 -26 307 33 b 50 514 110 231 50 365 b 208 896 50 664 110 797 b 590 1054 307 994 442 1054 b 971 899 735 1054 869 999 b 963 811 1000 869 996 838 l 853 725 b 765 729 821 699 797 703 b 590 792 715 771 657 792 b 394 710 514 792 444 760 b 313 514 344 660 313 590 b 394 318 313 438 344 368 b 590 238 444 268 514 238 b 760 296 654 238 711 257 b 849 299 792 319 817 325 l 956 208 b 960 119 988 182 992 149 b 590 -26 860 25 729 -26 z "},"č":{"ha":1132,"x_min":0,"x_max":0,"o":"m 565 1238 l 619 1303 b 685 1332 636 1322 658 1332 l 704 1332 b 733 1268 749 1332 763 1303 l 629 1139 b 567 1110 614 1119 593 1110 l 564 1110 b 500 1139 538 1110 517 1119 l 396 1268 b 425 1332 368 1303 382 1332 l 446 1332 b 510 1303 472 1332 493 1322 z m 590 -26 b 208 132 442 -26 307 33 b 50 514 110 231 50 365 b 208 896 50 664 110 797 b 590 1054 307 994 442 1054 b 971 899 735 1054 869 999 b 963 811 1000 869 996 838 l 853 725 b 765 729 821 699 797 703 b 590 792 715 771 657 792 b 394 710 514 792 444 760 b 313 514 344 660 313 590 b 394 318 313 438 344 368 b 590 238 444 268 514 238 b 760 296 654 238 711 257 b 849 299 792 319 817 325 l 956 208 b 960 119 988 182 992 149 b 590 -26 860 25 729 -26 z "},"ĉ":{"ha":1132,"x_min":0,"x_max":0,"o":"m 565 1204 l 510 1139 b 446 1110 493 1119 472 1110 l 425 1110 b 396 1174 382 1110 368 1139 l 500 1303 b 564 1332 517 1322 538 1332 l 567 1332 b 629 1303 593 1332 614 1322 l 733 1174 b 704 1110 763 1139 749 1110 l 685 1110 b 619 1139 658 1110 636 1119 z m 590 -26 b 208 132 442 -26 307 33 b 50 514 110 231 50 365 b 208 896 50 664 110 797 b 590 1054 307 994 442 1054 b 971 899 735 1054 869 999 b 963 811 1000 869 996 838 l 853 725 b 765 729 821 699 797 703 b 590 792 715 771 657 792 b 394 710 514 792 444 760 b 313 514 344 660 313 590 b 394 318 313 438 344 368 b 590 238 444 268 514 238 b 760 296 654 238 711 257 b 849 299 792 319 817 325 l 956 208 b 960 119 988 182 992 149 b 590 -26 860 25 729 -26 z "},"ċ":{"ha":1132,"x_min":0,"x_max":0,"o":"m 565 1114 b 476 1204 517 1114 476 1154 b 565 1294 476 1254 517 1294 b 656 1204 615 1294 656 1254 b 565 1114 656 1154 615 1114 z m 590 -26 b 208 132 442 -26 307 33 b 50 514 110 231 50 365 b 208 896 50 664 110 797 b 590 1054 307 994 442 1054 b 971 899 735 1054 869 999 b 963 811 1000 869 996 838 l 853 725 b 765 729 821 699 797 703 b 590 792 715 771 657 792 b 394 710 514 792 444 760 b 313 514 344 660 313 590 b 394 318 313 438 344 368 b 590 238 444 268 514 238 b 760 296 654 238 711 257 b 849 299 792 319 817 325 l 956 208 b 960 119 988 182 992 149 b 590 -26 860 25 729 -26 z "},"ď":{"ha":1096,"x_min":0,"x_max":0,"o":"m 414 1238 l 468 1303 b 533 1332 485 1322 507 1332 l 553 1332 b 582 1268 597 1332 611 1303 l 478 1139 b 415 1110 463 1119 442 1110 l 413 1110 b 349 1139 386 1110 365 1119 l 244 1268 b 274 1332 217 1303 231 1332 l 294 1332 b 358 1303 321 1332 342 1322 z m 118 0 b 56 63 76 0 56 21 l 56 965 b 118 1028 56 1007 76 1028 l 446 1028 b 799 871 579 1028 704 972 b 940 514 889 772 940 646 b 793 153 940 375 883 246 b 444 0 703 58 578 0 z m 318 765 l 318 263 l 444 263 b 607 339 506 263 564 293 b 676 514 650 383 676 447 b 608 690 676 581 650 644 b 446 765 567 735 507 765 z "},"đ":{"ha":1096,"x_min":0,"x_max":0,"o":"m 799 871 b 446 1028 704 972 579 1028 l 118 1028 b 56 965 76 1028 56 1007 l 56 586 l -18 586 b -81 524 -60 586 -81 565 b -18 461 -81 482 -60 461 l 56 461 l 56 63 b 118 0 56 21 76 0 l 444 0 b 793 153 578 0 703 58 b 940 514 883 246 940 375 b 799 871 940 646 889 772 z m 607 339 b 444 263 564 293 506 263 l 318 263 l 318 461 l 385 461 b 447 524 426 461 447 482 b 385 586 447 565 426 586 l 318 586 l 318 765 l 446 765 b 608 690 507 765 567 735 b 676 514 650 644 676 581 b 607 339 676 447 650 383 z "},"ĕ":{"ha":963,"x_min":0,"x_max":0,"o":"m 401 1226 b 479 1285 444 1226 463 1257 b 542 1332 496 1313 510 1339 b 571 1268 574 1325 575 1292 b 510 1151 561 1218 540 1178 b 403 1110 479 1124 442 1110 b 297 1151 368 1110 329 1124 b 232 1268 265 1178 239 1218 b 261 1332 228 1292 229 1325 b 322 1286 293 1338 306 1314 b 394 1226 338 1258 356 1228 z m 776 63 b 714 0 776 21 756 0 l 118 0 b 56 63 76 0 56 21 l 56 965 b 118 1028 56 1007 76 1028 l 714 1028 b 776 965 756 1028 776 1007 l 776 828 b 714 765 776 786 756 765 l 318 765 l 318 636 l 610 636 b 672 574 651 636 672 615 l 672 456 b 610 393 672 414 651 393 l 318 393 l 318 263 l 714 263 b 776 200 756 263 776 242 z "},"ě":{"ha":963,"x_min":0,"x_max":0,"o":"m 394 1238 l 449 1303 b 514 1332 465 1322 488 1332 l 533 1332 b 563 1268 578 1332 592 1303 l 458 1139 b 396 1110 443 1119 422 1110 l 393 1110 b 329 1139 367 1110 346 1119 l 225 1268 b 254 1332 197 1303 211 1332 l 275 1332 b 339 1303 301 1332 322 1322 z m 776 63 b 714 0 776 21 756 0 l 118 0 b 56 63 76 0 56 21 l 56 965 b 118 1028 56 1007 76 1028 l 714 1028 b 776 965 756 1028 776 1007 l 776 828 b 714 765 776 786 756 765 l 318 765 l 318 636 l 610 636 b 672 574 651 636 672 615 l 672 456 b 610 393 672 414 651 393 l 318 393 l 318 263 l 714 263 b 776 200 756 263 776 242 z "},"ė":{"ha":963,"x_min":0,"x_max":0,"o":"m 404 1114 b 315 1204 356 1114 315 1154 b 404 1294 315 1254 356 1294 b 494 1204 454 1294 494 1254 b 404 1114 494 1154 454 1114 z m 776 63 b 714 0 776 21 756 0 l 118 0 b 56 63 76 0 56 21 l 56 965 b 118 1028 56 1007 76 1028 l 714 1028 b 776 965 756 1028 776 1007 l 776 828 b 714 765 776 786 756 765 l 318 765 l 318 636 l 610 636 b 672 574 651 636 672 615 l 672 456 b 610 393 672 414 651 393 l 318 393 l 318 263 l 714 263 b 776 200 756 263 776 242 z "},"ē":{"ha":963,"x_min":0,"x_max":0,"o":"m 614 1246 b 676 1183 656 1246 676 1225 b 614 1121 676 1142 656 1121 l 211 1121 b 149 1183 169 1121 149 1142 b 211 1246 149 1225 169 1246 z m 776 63 b 714 0 776 21 756 0 l 118 0 b 56 63 76 0 56 21 l 56 965 b 118 1028 56 1007 76 1028 l 714 1028 b 776 965 756 1028 776 1007 l 776 828 b 714 765 776 786 756 765 l 318 765 l 318 636 l 610 636 b 672 574 651 636 672 615 l 672 456 b 610 393 672 414 651 393 l 318 393 l 318 263 l 714 263 b 776 200 756 263 776 242 z "},"ę":{"ha":963,"x_min":0,"x_max":0,"o":"m 318 765 l 714 765 b 776 828 756 765 776 786 l 776 965 b 714 1028 776 1007 756 1028 l 118 1028 b 56 965 76 1028 56 1007 l 56 63 b 118 0 56 21 76 0 l 368 0 b 363 -72 363 -21 360 -44 b 424 -187 368 -121 389 -158 b 647 -197 493 -244 597 -219 b 707 -133 696 -175 711 -161 b 640 -99 701 -106 674 -87 b 568 -117 624 -104 600 -110 b 471 -75 517 -126 482 -103 b 508 -3 458 -47 469 -14 l 517 0 l 714 0 b 776 63 756 0 776 21 l 776 200 b 714 263 776 242 756 263 l 318 263 l 318 393 l 610 393 b 672 456 651 393 672 414 l 672 574 b 610 636 672 615 651 636 l 318 636 z "},"Ģ":{"ha":1226,"x_min":0,"x_max":0,"o":"m 594 -24 b 214 135 446 -24 311 38 b 56 514 117 232 56 365 b 214 896 56 663 117 799 b 594 1053 311 993 446 1053 b 972 899 739 1053 872 999 b 965 810 1001 867 997 836 l 856 724 b 768 728 824 697 800 701 b 594 790 718 769 660 790 b 399 710 518 790 449 760 b 318 514 349 660 318 590 b 399 315 318 438 349 368 b 594 228 449 263 518 228 b 732 257 654 228 699 240 b 794 304 764 272 783 292 l 794 371 l 624 371 b 561 433 582 371 561 392 l 561 519 b 624 582 561 561 582 582 l 994 582 b 1057 519 1036 582 1057 561 l 1057 268 b 1040 199 1057 239 1051 217 b 594 -24 951 64 806 -24 z m 522 -183 b 660 -186 526 -61 661 -65 b 639 -294 660 -224 651 -264 b 588 -347 626 -325 610 -347 b 540 -294 567 -347 551 -326 b 522 -183 528 -262 522 -222 z "},"ğ":{"ha":1226,"x_min":0,"x_max":0,"o":"m 581 1226 b 658 1285 624 1226 642 1257 b 721 1332 675 1313 689 1339 b 750 1268 753 1325 754 1292 b 689 1151 740 1218 719 1178 b 582 1110 658 1124 621 1110 b 476 1151 547 1110 508 1124 b 411 1268 444 1178 418 1218 b 440 1332 407 1292 408 1325 b 501 1286 472 1338 485 1314 b 574 1226 517 1258 535 1228 z m 594 -24 b 214 135 446 -24 311 38 b 56 514 117 232 56 365 b 214 896 56 663 117 799 b 594 1053 311 993 446 1053 b 972 899 739 1053 872 999 b 965 810 1001 867 997 836 l 856 724 b 768 728 824 697 800 701 b 594 790 718 769 660 790 b 399 710 518 790 449 760 b 318 514 349 660 318 590 b 399 315 318 438 349 368 b 594 228 449 263 518 228 b 732 257 654 228 699 240 b 794 304 764 272 783 292 l 794 371 l 624 371 b 561 433 582 371 561 392 l 561 519 b 624 582 561 561 582 582 l 994 582 b 1057 519 1036 582 1057 561 l 1057 268 b 1040 199 1057 239 1051 217 b 594 -24 951 64 806 -24 z "},"ĝ":{"ha":1226,"x_min":0,"x_max":0,"o":"m 581 1204 l 525 1139 b 461 1110 508 1119 488 1110 l 440 1110 b 411 1174 397 1110 383 1139 l 515 1303 b 579 1332 532 1322 553 1332 l 582 1332 b 644 1303 608 1332 629 1322 l 749 1174 b 719 1110 778 1139 764 1110 l 700 1110 b 635 1139 674 1110 651 1119 z m 594 -24 b 214 135 446 -24 311 38 b 56 514 117 232 56 365 b 214 896 56 663 117 799 b 594 1053 311 993 446 1053 b 972 899 739 1053 872 999 b 965 810 1001 867 997 836 l 856 724 b 768 728 824 697 800 701 b 594 790 718 769 660 790 b 399 710 518 790 449 760 b 318 514 349 660 318 590 b 399 315 318 438 349 368 b 594 228 449 263 518 228 b 732 257 654 228 699 240 b 794 304 764 272 783 292 l 794 371 l 624 371 b 561 433 582 371 561 392 l 561 519 b 624 582 561 561 582 582 l 994 582 b 1057 519 1036 582 1057 561 l 1057 268 b 1040 199 1057 239 1051 217 b 594 -24 951 64 806 -24 z "},"ģ":{"ha":1226,"x_min":0,"x_max":0,"o":"m 594 -24 b 214 135 446 -24 311 38 b 56 514 117 232 56 365 b 214 896 56 663 117 799 b 594 1053 311 993 446 1053 b 972 899 739 1053 872 999 b 965 810 1001 867 997 836 l 856 724 b 768 728 824 697 800 701 b 594 790 718 769 660 790 b 399 710 518 790 449 760 b 318 514 349 660 318 590 b 399 315 318 438 349 368 b 594 228 449 263 518 228 b 732 257 654 228 699 240 b 794 304 764 272 783 292 l 794 371 l 624 371 b 561 433 582 371 561 392 l 561 519 b 624 582 561 561 582 582 l 994 582 b 1057 519 1036 582 1057 561 l 1057 268 b 1040 199 1057 239 1051 217 b 594 -24 951 64 806 -24 z m 522 -183 b 660 -186 526 -61 661 -65 b 639 -294 660 -224 651 -264 b 588 -347 626 -325 610 -347 b 540 -294 567 -347 551 -326 b 522 -183 528 -262 522 -222 z "},"ġ":{"ha":1226,"x_min":0,"x_max":0,"o":"m 582 1114 b 493 1204 533 1114 493 1154 b 582 1294 493 1254 533 1294 b 672 1204 632 1294 672 1254 b 582 1114 672 1154 632 1114 z m 594 -24 b 214 135 446 -24 311 38 b 56 514 117 232 56 365 b 214 896 56 663 117 799 b 594 1053 311 993 446 1053 b 972 899 739 1053 872 999 b 965 810 1001 867 997 836 l 856 724 b 768 728 824 697 800 701 b 594 790 718 769 660 790 b 399 710 518 790 449 760 b 318 514 349 660 318 590 b 399 315 318 438 349 368 b 594 228 449 263 518 228 b 732 257 654 228 699 240 b 794 304 764 272 783 292 l 794 371 l 624 371 b 561 433 582 371 561 392 l 561 519 b 624 582 561 561 582 582 l 994 582 b 1057 519 1036 582 1057 561 l 1057 268 b 1040 199 1057 239 1051 217 b 594 -24 951 64 806 -24 z "},"ħ":{"ha":1033,"x_min":0,"x_max":0,"o":"m 665 1028 b 603 965 624 1028 603 1007 l 603 894 l 318 894 l 318 965 b 256 1028 318 1007 297 1028 l 118 1028 b 56 965 76 1028 56 1007 l 56 63 b 118 0 56 21 76 0 l 256 0 b 318 63 297 0 318 21 l 318 382 l 603 382 l 603 63 b 665 0 603 21 624 0 l 803 0 b 865 63 844 0 865 21 l 865 965 b 803 1028 865 1007 844 1028 z m 603 646 l 318 646 l 318 769 l 603 769 z "},"ĥ":{"ha":1033,"x_min":0,"x_max":0,"o":"m 454 1204 l 399 1139 b 335 1110 382 1119 361 1110 l 314 1110 b 285 1174 271 1110 257 1139 l 389 1303 b 453 1332 406 1322 426 1332 l 456 1332 b 518 1303 482 1332 503 1322 l 622 1174 b 593 1110 651 1139 638 1110 l 574 1110 b 508 1139 547 1110 525 1119 z m 865 63 b 803 0 865 21 844 0 l 665 0 b 603 63 624 0 603 21 l 603 382 l 318 382 l 318 63 b 256 0 318 21 297 0 l 118 0 b 56 63 76 0 56 21 l 56 965 b 118 1028 56 1007 76 1028 l 256 1028 b 318 965 297 1028 318 1007 l 318 646 l 603 646 l 603 965 b 665 1028 603 1007 624 1028 l 803 1028 b 865 965 844 1028 865 1007 z "},"ĭ":{"ha":483,"x_min":0,"x_max":0,"o":"m 181 1226 b 258 1285 224 1226 242 1257 b 321 1332 275 1313 289 1339 b 350 1268 353 1325 354 1292 b 289 1151 340 1218 319 1178 b 182 1110 258 1124 221 1110 b 76 1151 147 1110 108 1124 b 11 1268 44 1178 18 1218 b 40 1332 7 1292 8 1325 b 101 1286 72 1338 85 1314 b 174 1226 117 1258 135 1228 z m 256 1028 b 318 965 297 1028 318 1007 l 318 63 b 256 0 318 21 297 0 l 118 0 b 56 63 76 0 56 21 l 56 965 b 118 1028 56 1007 76 1028 z "},"ī":{"ha":483,"x_min":0,"x_max":0,"o":"m 386 1246 b 449 1183 428 1246 449 1225 b 386 1121 449 1142 428 1121 l -17 1121 b -79 1183 -58 1121 -79 1142 b -17 1246 -79 1225 -58 1246 z m 256 1028 b 318 965 297 1028 318 1007 l 318 63 b 256 0 318 21 297 0 l 118 0 b 56 63 76 0 56 21 l 56 965 b 118 1028 56 1007 76 1028 z "},"į":{"ha":483,"x_min":0,"x_max":0,"o":"m 417 -133 b 350 -99 411 -106 383 -87 b 278 -117 333 -104 310 -110 b 181 -75 226 -126 192 -103 b 218 -3 168 -47 179 -14 l 226 0 l 256 0 b 318 63 297 0 318 21 l 318 965 b 256 1028 318 1007 297 1028 l 118 1028 b 56 965 76 1028 56 1007 l 56 63 b 82 8 56 36 64 18 b 72 -72 72 -14 68 -40 b 133 -187 78 -121 99 -158 b 357 -197 203 -244 307 -219 b 417 -133 406 -175 421 -161 z "},"ĩ":{"ha":483,"x_min":0,"x_max":0,"o":"m 157 1156 b 88 1189 131 1174 115 1182 b -4 1154 47 1199 19 1175 b -76 1126 -28 1132 -49 1111 b -86 1197 -106 1143 -97 1175 b 47 1297 -57 1258 -8 1290 b 218 1247 101 1304 163 1286 b 286 1214 244 1229 258 1224 b 378 1250 326 1204 354 1228 b 450 1276 400 1271 422 1292 b 461 1207 479 1260 471 1229 b 328 1106 429 1144 382 1111 b 157 1156 272 1099 211 1117 z m 256 1028 b 318 965 297 1028 318 1007 l 318 63 b 256 0 318 21 297 0 l 118 0 b 56 63 76 0 56 21 l 56 965 b 118 1028 56 1007 76 1028 z "},"ĵ":{"ha":992,"x_min":0,"x_max":0,"o":"m 683 1204 l 628 1139 b 564 1110 611 1119 590 1110 l 543 1110 b 514 1174 500 1110 486 1139 l 618 1303 b 682 1332 635 1322 656 1332 l 685 1332 b 747 1303 711 1332 732 1322 l 851 1174 b 822 1110 881 1139 867 1110 l 803 1110 b 738 1139 776 1110 754 1119 z m 228 343 b 313 321 261 364 289 356 b 426 240 339 281 378 240 b 518 269 460 240 493 246 b 560 414 543 292 560 336 l 560 964 b 622 1026 560 1006 581 1026 l 761 1026 b 824 964 803 1026 824 1006 l 824 382 b 740 113 824 294 801 193 b 426 -26 679 32 581 -26 b 165 76 321 -26 233 8 b 82 189 131 111 103 154 b 107 274 61 224 74 253 z "},"ķ":{"ha":1015,"x_min":0,"x_max":0,"o":"m 457 524 l 843 76 b 808 0 881 36 863 0 l 631 0 b 554 36 601 0 575 13 l 318 315 l 318 63 b 256 0 318 21 297 0 l 118 0 b 56 63 76 0 56 21 l 56 965 b 118 1028 56 1007 76 1028 l 256 1028 b 318 965 297 1028 318 1007 l 318 713 l 560 992 b 636 1026 582 1018 604 1026 l 788 1026 b 824 950 842 1026 858 990 z m 349 -121 b 486 -124 353 1 488 -3 b 465 -232 486 -161 478 -201 b 414 -285 453 -262 436 -285 b 367 -232 393 -285 378 -264 b 349 -121 354 -200 349 -160 z "},"Ŀ":{"ha":897,"x_min":0,"x_max":0,"o":"m 318 263 l 686 263 b 749 200 728 263 749 242 l 749 63 b 686 0 749 21 728 0 l 118 0 b 56 63 76 0 56 21 l 56 965 b 118 1028 56 1007 76 1028 l 256 1028 b 318 965 297 1028 318 1007 z m 535 571 b 446 661 486 571 446 611 b 535 751 446 711 486 751 b 625 661 585 751 625 711 b 535 571 625 611 585 571 z "},"ŀ":{"ha":897,"x_min":0,"x_max":0,"o":"m 318 263 l 686 263 b 749 200 728 263 749 242 l 749 63 b 686 0 749 21 728 0 l 118 0 b 56 63 76 0 56 21 l 56 965 b 118 1028 56 1007 76 1028 l 256 1028 b 318 965 297 1028 318 1007 z m 535 571 b 446 661 486 571 446 611 b 535 751 446 711 486 751 b 625 661 585 751 625 711 b 535 571 625 611 585 571 z "},"ĺ":{"ha":897,"x_min":0,"x_max":0,"o":"m 285 1299 b 360 1183 389 1365 461 1250 b 226 1118 317 1156 267 1131 b 172 1108 206 1111 188 1108 b 142 1154 140 1108 129 1126 b 222 1251 153 1182 182 1217 b 285 1299 242 1268 263 1283 z m 318 263 l 686 263 b 749 200 728 263 749 242 l 749 63 b 686 0 749 21 728 0 l 118 0 b 56 63 76 0 56 21 l 56 965 b 118 1028 56 1007 76 1028 l 256 1028 b 318 965 297 1028 318 1007 z "},"ľ":{"ha":897,"x_min":0,"x_max":0,"o":"m 492 1031 b 554 1006 515 1031 538 1021 b 581 942 571 989 581 965 b 556 874 581 913 565 886 b 543 856 554 869 550 863 b 521 829 536 849 529 839 b 493 800 513 819 503 810 b 428 789 472 781 463 756 b 425 793 426 790 425 792 b 438 831 413 806 425 818 l 468 865 b 419 894 447 869 431 881 b 401 942 408 908 401 925 b 428 1006 401 965 411 989 b 492 1031 444 1021 465 1031 z m 318 263 l 686 263 b 749 200 728 263 749 242 l 749 63 b 686 0 749 21 728 0 l 118 0 b 56 63 76 0 56 21 l 56 965 b 118 1028 56 1007 76 1028 l 256 1028 b 318 965 297 1028 318 1007 z "},"ļ":{"ha":897,"x_min":0,"x_max":0,"o":"m 318 263 l 686 263 b 749 200 728 263 749 242 l 749 63 b 686 0 749 21 728 0 l 118 0 b 56 63 76 0 56 21 l 56 965 b 118 1028 56 1007 76 1028 l 256 1028 b 318 965 297 1028 318 1007 z m 318 -149 b 456 -151 322 -26 457 -31 b 435 -260 456 -189 447 -229 b 383 -312 422 -290 406 -312 b 336 -260 363 -312 347 -292 b 318 -149 324 -228 318 -187 z "},"ł":{"ha":897,"x_min":0,"x_max":0,"o":"m 318 263 l 318 510 l 414 606 b 414 693 444 635 444 664 l 404 703 b 318 706 376 732 347 733 l 318 965 b 256 1028 318 1007 297 1028 l 118 1028 b 56 965 76 1028 56 1007 l 56 443 l -28 360 b -28 271 -57 331 -57 300 l -18 261 b 56 249 6 238 31 233 l 56 63 b 118 0 56 21 76 0 l 686 0 b 749 63 728 0 749 21 l 749 200 b 686 263 749 242 728 263 z "},"ń":{"ha":1079,"x_min":0,"x_max":0,"o":"m 553 1299 b 628 1183 657 1365 729 1250 b 494 1118 585 1156 535 1131 b 440 1108 474 1111 456 1108 b 410 1154 408 1108 397 1126 b 490 1251 421 1182 450 1217 b 553 1299 510 1268 531 1283 z m 118 0 b 56 63 76 0 56 21 l 56 965 b 118 1028 56 1007 76 1028 l 238 1028 b 314 988 269 1028 296 1014 l 635 522 l 635 965 b 697 1028 635 1007 656 1028 l 835 1028 b 897 965 876 1028 897 1007 l 897 63 b 835 0 897 21 876 0 l 715 0 b 639 40 683 0 657 14 l 318 510 l 318 63 b 256 0 318 21 297 0 z "},"ň":{"ha":1079,"x_min":0,"x_max":0,"o":"m 482 1238 l 536 1303 b 601 1332 553 1322 575 1332 l 621 1332 b 650 1268 665 1332 679 1303 l 546 1139 b 483 1110 531 1119 510 1110 l 481 1110 b 417 1139 454 1110 433 1119 l 313 1268 b 342 1332 285 1303 299 1332 l 363 1332 b 426 1303 389 1332 410 1322 z m 118 0 b 56 63 76 0 56 21 l 56 965 b 118 1028 56 1007 76 1028 l 238 1028 b 314 988 269 1028 296 1014 l 635 522 l 635 965 b 697 1028 635 1007 656 1028 l 835 1028 b 897 965 876 1028 897 1007 l 897 63 b 835 0 897 21 876 0 l 715 0 b 639 40 683 0 657 14 l 318 510 l 318 63 b 256 0 318 21 297 0 z "},"ņ":{"ha":1079,"x_min":0,"x_max":0,"o":"m 118 0 b 56 63 76 0 56 21 l 56 965 b 118 1028 56 1007 76 1028 l 238 1028 b 314 988 269 1028 296 1014 l 635 522 l 635 965 b 697 1028 635 1007 656 1028 l 835 1028 b 897 965 876 1028 897 1007 l 897 63 b 835 0 897 21 876 0 l 715 0 b 639 40 683 0 657 14 l 318 510 l 318 63 b 256 0 318 21 297 0 z m 413 -149 b 550 -151 417 -26 551 -31 b 529 -260 550 -189 542 -229 b 478 -312 517 -290 500 -312 b 431 -260 457 -312 442 -292 b 413 -149 418 -228 413 -187 z "},"ŉ":{"ha":1251,"x_min":0,"x_max":0,"o":"m 58 1013 b 196 1010 63 1135 197 1131 b 175 901 196 972 188 932 b 124 849 163 871 146 849 b 76 901 103 849 88 869 b 58 1013 64 933 58 974 z m 293 0 b 231 63 251 0 231 21 l 231 965 b 293 1028 231 1007 251 1028 l 413 1028 b 489 988 444 1028 471 1014 l 810 522 l 810 965 b 872 1028 810 1007 831 1028 l 1010 1028 b 1072 965 1051 1028 1072 1007 l 1072 63 b 1010 0 1072 21 1051 0 l 890 0 b 814 40 858 0 832 14 l 493 510 l 493 63 b 431 0 493 21 472 0 z "},"ŏ":{"ha":1268,"x_min":0,"x_max":0,"o":"m 585 1226 b 663 1285 628 1226 646 1257 b 725 1332 679 1313 693 1339 b 754 1268 757 1325 758 1292 b 693 1151 744 1218 724 1178 b 586 1110 663 1124 625 1110 b 481 1151 551 1110 513 1124 b 415 1268 449 1178 422 1218 b 444 1332 411 1292 413 1325 b 506 1286 476 1338 489 1314 b 578 1226 521 1258 539 1228 z m 596 -25 b 214 133 446 -25 313 36 b 56 514 115 231 56 365 b 214 896 56 664 115 797 b 596 1054 313 994 446 1054 b 978 896 744 1054 879 994 b 1136 514 1076 797 1136 664 b 978 133 1136 365 1076 231 b 596 -25 879 36 744 -25 z m 596 792 b 400 710 519 792 450 760 b 318 514 350 660 318 590 b 400 318 318 438 350 368 b 596 238 450 268 519 238 b 792 318 672 238 742 268 b 872 514 842 368 872 438 b 792 710 872 590 842 660 b 596 792 742 760 672 792 z "},"ő":{"ha":1268,"x_min":0,"x_max":0,"o":"m 510 1294 b 583 1199 589 1363 661 1265 b 481 1128 550 1169 513 1143 b 408 1122 447 1113 419 1107 b 426 1197 397 1135 407 1164 b 510 1294 446 1229 476 1265 z m 718 1294 b 792 1199 797 1363 869 1265 b 689 1128 758 1169 721 1143 b 617 1122 656 1113 628 1107 b 635 1197 606 1135 615 1164 b 718 1294 654 1229 685 1265 z m 596 -25 b 214 133 446 -25 313 36 b 56 514 115 231 56 365 b 214 896 56 664 115 797 b 596 1054 313 994 446 1054 b 978 896 744 1054 879 994 b 1136 514 1076 797 1136 664 b 978 133 1136 365 1076 231 b 596 -25 879 36 744 -25 z m 596 792 b 400 710 519 792 450 760 b 318 514 350 660 318 590 b 400 318 318 438 350 368 b 596 238 450 268 519 238 b 792 318 672 238 742 268 b 872 514 842 368 872 438 b 792 710 872 590 842 660 b 596 792 742 760 672 792 z "},"ō":{"ha":1268,"x_min":0,"x_max":0,"o":"m 785 1246 b 847 1183 826 1246 847 1225 b 785 1121 847 1142 826 1121 l 382 1121 b 319 1183 340 1121 319 1142 b 382 1246 319 1225 340 1246 z m 596 -25 b 214 133 446 -25 313 36 b 56 514 115 231 56 365 b 214 896 56 664 115 797 b 596 1054 313 994 446 1054 b 978 896 744 1054 879 994 b 1136 514 1076 797 1136 664 b 978 133 1136 365 1076 231 b 596 -25 879 36 744 -25 z m 596 792 b 400 710 519 792 450 760 b 318 514 350 660 318 590 b 400 318 318 438 350 368 b 596 238 450 268 519 238 b 792 318 672 238 742 268 b 872 514 842 368 872 438 b 792 710 872 590 842 660 b 596 792 742 760 672 792 z "},"ǿ":{"ha":1268,"x_min":0,"x_max":0,"o":"m 535 1108 b 589 1118 550 1108 568 1111 b 722 1183 629 1131 679 1156 b 647 1299 824 1250 751 1365 b 585 1251 625 1283 604 1268 b 504 1154 544 1217 515 1182 b 535 1108 492 1126 503 1108 z m 978 896 b 886 969 950 924 919 949 l 911 1051 b 858 1122 924 1094 904 1122 l 756 1122 b 686 1069 718 1122 696 1104 l 679 1047 b 596 1054 653 1051 625 1054 b 214 896 446 1054 313 994 b 56 514 115 797 56 664 b 214 133 56 365 115 231 b 374 24 260 88 314 50 l 357 -32 b 410 -103 344 -75 364 -103 l 513 -103 b 582 -50 550 -103 572 -85 l 589 -25 l 596 -25 b 978 133 744 -25 879 36 b 1136 514 1076 231 1136 365 b 978 896 1136 664 1076 797 z m 400 318 b 318 514 350 368 318 438 b 400 710 318 590 350 660 b 596 792 450 760 519 792 l 603 792 l 450 279 b 400 318 432 290 415 303 z m 792 318 b 671 247 758 285 717 261 l 804 696 b 872 514 847 647 872 583 b 792 318 872 438 842 368 z "},"ŕ":{"ha":993,"x_min":0,"x_max":0,"o":"m 510 1299 b 585 1183 614 1365 686 1250 b 451 1118 542 1156 492 1131 b 397 1108 431 1111 413 1108 b 367 1154 365 1108 354 1126 b 447 1251 378 1182 407 1217 b 510 1299 467 1268 488 1283 z m 864 690 b 747 425 864 589 824 485 b 718 406 736 415 726 410 b 701 399 708 401 703 400 l 882 72 b 833 0 908 28 882 0 l 681 0 b 608 49 643 0 626 15 l 444 367 l 318 367 l 318 63 b 256 0 318 21 297 0 l 118 0 b 56 63 76 0 56 21 l 56 965 b 118 1028 56 1007 76 1028 l 540 1028 b 763 950 629 1028 703 1001 b 831 853 785 929 811 896 b 864 690 850 808 864 753 z m 610 690 b 526 775 610 739 582 775 l 318 775 l 318 603 l 517 603 b 610 690 565 603 610 636 z "},"ř":{"ha":993,"x_min":0,"x_max":0,"o":"m 422 1238 l 476 1303 b 542 1332 493 1322 515 1332 l 561 1332 b 590 1268 606 1332 619 1303 l 486 1139 b 424 1110 471 1119 450 1110 l 421 1110 b 357 1139 394 1110 374 1119 l 253 1268 b 282 1332 225 1303 239 1332 l 303 1332 b 367 1303 329 1332 350 1322 z m 864 690 b 747 425 864 589 824 485 b 718 406 736 415 726 410 b 701 399 708 401 703 400 l 882 72 b 833 0 908 28 882 0 l 681 0 b 608 49 643 0 626 15 l 444 367 l 318 367 l 318 63 b 256 0 318 21 297 0 l 118 0 b 56 63 76 0 56 21 l 56 965 b 118 1028 56 1007 76 1028 l 540 1028 b 763 950 629 1028 703 1001 b 831 853 785 929 811 896 b 864 690 850 808 864 753 z m 610 690 b 526 775 610 739 582 775 l 318 775 l 318 603 l 517 603 b 610 690 565 603 610 636 z "},"ŗ":{"ha":993,"x_min":0,"x_max":0,"o":"m 864 690 b 747 425 864 589 824 485 b 718 406 736 415 726 410 b 701 399 708 401 703 400 l 882 72 b 833 0 908 28 882 0 l 681 0 b 608 49 643 0 626 15 l 444 367 l 318 367 l 318 63 b 256 0 318 21 297 0 l 118 0 b 56 63 76 0 56 21 l 56 965 b 118 1028 56 1007 76 1028 l 540 1028 b 763 950 629 1028 703 1001 b 831 853 785 929 811 896 b 864 690 850 808 864 753 z m 610 690 b 526 775 610 739 582 775 l 318 775 l 318 603 l 517 603 b 610 690 565 603 610 636 z m 371 -115 b 508 -118 375 7 510 3 b 488 -226 508 -156 500 -196 b 436 -279 475 -257 458 -279 b 389 -226 415 -279 400 -258 b 371 -115 376 -194 371 -154 z "},"ś":{"ha":1061,"x_min":0,"x_max":0,"o":"m 576 1299 b 651 1183 681 1365 753 1250 b 518 1118 608 1156 558 1131 b 464 1108 497 1111 479 1108 b 433 1154 432 1108 421 1126 b 514 1251 444 1182 474 1217 b 576 1299 533 1268 554 1283 z m 656 247 b 682 290 672 258 681 274 b 669 329 683 306 679 319 b 653 343 665 333 660 338 b 563 381 638 353 611 367 b 469 401 538 388 507 394 b 131 569 318 433 185 492 b 86 701 103 613 89 658 b 99 817 83 744 88 785 b 249 990 121 889 176 949 b 510 1056 321 1032 411 1056 b 719 1025 593 1056 663 1042 b 856 960 775 1007 821 982 b 869 874 890 938 896 908 l 794 769 b 708 751 774 738 744 731 b 510 810 658 781 588 810 b 403 786 460 810 425 799 b 365 746 381 774 369 757 b 392 683 354 718 367 699 b 499 649 417 668 454 658 b 883 482 715 606 832 549 b 936 240 938 411 951 328 b 826 57 926 174 892 107 b 529 -28 761 6 664 -28 l 504 -28 b 476 -26 494 -28 486 -28 b 107 81 369 -21 246 1 b 90 168 69 101 64 135 l 183 285 b 271 300 207 317 236 321 b 478 228 343 257 399 238 b 656 247 557 218 626 226 z "},"š":{"ha":1061,"x_min":0,"x_max":0,"o":"m 504 1238 l 558 1303 b 624 1332 575 1322 597 1332 l 643 1332 b 672 1268 688 1332 701 1303 l 568 1139 b 506 1110 553 1119 532 1110 l 503 1110 b 439 1139 476 1110 456 1119 l 335 1268 b 364 1332 307 1303 321 1332 l 385 1332 b 449 1303 411 1332 432 1322 z m 656 247 b 682 290 672 258 681 274 b 669 329 683 306 679 319 b 653 343 665 333 660 338 b 563 381 638 353 611 367 b 469 401 538 388 507 394 b 131 569 318 433 185 492 b 86 701 103 613 89 658 b 99 817 83 744 88 785 b 249 990 121 889 176 949 b 510 1056 321 1032 411 1056 b 719 1025 593 1056 663 1042 b 856 960 775 1007 821 982 b 869 874 890 938 896 908 l 794 769 b 708 751 774 738 744 731 b 510 810 658 781 588 810 b 403 786 460 810 425 799 b 365 746 381 774 369 757 b 392 683 354 718 367 699 b 499 649 417 668 454 658 b 883 482 715 606 832 549 b 936 240 938 411 951 328 b 826 57 926 174 892 107 b 529 -28 761 6 664 -28 l 504 -28 b 476 -26 494 -28 486 -28 b 107 81 369 -21 246 1 b 90 168 69 101 64 135 l 183 285 b 271 300 207 317 236 321 b 478 228 343 257 399 238 b 656 247 557 218 626 226 z "},"ş":{"ha":1061,"x_min":0,"x_max":0,"o":"m 883 482 b 499 649 832 549 715 606 b 392 683 454 658 417 668 b 365 746 367 699 354 718 b 403 786 369 757 381 774 b 510 810 425 799 460 810 b 708 751 588 810 658 781 b 794 769 744 731 774 738 l 869 874 b 856 960 896 908 890 938 b 719 1025 821 982 775 1007 b 510 1056 663 1042 593 1056 b 249 990 411 1056 321 1032 b 99 817 176 949 121 889 b 86 701 88 785 83 744 b 131 569 89 658 103 613 b 469 401 185 492 318 433 b 563 381 507 394 538 388 b 653 343 611 367 638 353 b 669 329 660 338 665 333 b 682 290 679 319 683 306 b 656 247 681 274 672 258 b 478 228 626 226 557 218 b 271 300 399 238 343 257 b 183 285 236 321 207 317 l 90 168 b 107 81 64 135 69 101 b 443 -24 232 10 343 -15 b 439 -107 440 -54 439 -82 b 458 -175 439 -142 446 -165 b 597 -171 490 -197 549 -183 b 661 -197 636 -160 660 -176 b 590 -253 663 -218 642 -243 b 514 -269 558 -258 532 -264 b 476 -294 494 -276 482 -285 b 490 -350 465 -315 469 -340 b 636 -347 514 -361 569 -364 b 767 -167 743 -321 790 -261 b 739 -108 760 -142 751 -122 b 646 -67 714 -81 681 -67 b 596 -71 628 -67 611 -68 b 575 -69 586 -72 579 -72 b 569 -28 567 -64 567 -50 b 826 57 683 -21 768 11 b 936 240 892 107 926 174 b 883 482 951 328 938 411 z "},"ŝ":{"ha":1061,"x_min":0,"x_max":0,"o":"m 494 1204 l 439 1139 b 375 1110 422 1119 401 1110 l 354 1110 b 325 1174 311 1110 297 1139 l 429 1303 b 493 1332 446 1322 467 1332 l 496 1332 b 558 1303 522 1332 543 1322 l 663 1174 b 633 1110 692 1139 678 1110 l 614 1110 b 549 1139 588 1110 565 1119 z m 656 247 b 682 290 672 258 681 274 b 669 329 683 306 679 319 b 653 343 665 333 660 338 b 563 381 638 353 611 367 b 469 401 538 388 507 394 b 131 569 318 433 185 492 b 86 701 103 613 89 658 b 99 817 83 744 88 785 b 249 990 121 889 176 949 b 510 1056 321 1032 411 1056 b 719 1025 593 1056 663 1042 b 856 960 775 1007 821 982 b 869 874 890 938 896 908 l 794 769 b 708 751 774 738 744 731 b 510 810 658 781 588 810 b 403 786 460 810 425 799 b 365 746 381 774 369 757 b 392 683 354 718 367 699 b 499 649 417 668 454 658 b 883 482 715 606 832 549 b 936 240 938 411 951 328 b 826 57 926 174 892 107 b 529 -28 761 6 664 -28 l 504 -28 b 476 -26 494 -28 486 -28 b 107 81 369 -21 246 1 b 90 168 69 101 64 135 l 183 285 b 271 300 207 317 236 321 b 478 228 343 257 399 238 b 656 247 557 218 626 226 z "},"ș":{"ha":1061,"x_min":0,"x_max":0,"o":"m 656 247 b 682 290 672 258 681 274 b 669 329 683 306 679 319 b 653 343 665 333 660 338 b 563 381 638 353 611 367 b 469 401 538 388 507 394 b 131 569 318 433 185 492 b 86 701 103 613 89 658 b 99 817 83 744 88 785 b 249 990 121 889 176 949 b 510 1056 321 1032 411 1056 b 719 1025 593 1056 663 1042 b 856 960 775 1007 821 982 b 869 874 890 938 896 908 l 794 769 b 708 751 774 738 744 731 b 510 810 658 781 588 810 b 403 786 460 810 425 799 b 365 746 381 774 369 757 b 392 683 354 718 367 699 b 499 649 417 668 454 658 b 883 482 715 606 832 549 b 936 240 938 411 951 328 b 826 57 926 174 892 107 b 529 -28 761 6 664 -28 l 504 -28 b 476 -26 494 -28 486 -28 b 107 81 369 -21 246 1 b 90 168 69 101 64 135 l 183 285 b 271 300 207 317 236 321 b 478 228 343 257 399 238 b 656 247 557 218 626 226 z m 444 -149 b 582 -151 449 -26 583 -31 b 561 -260 582 -189 574 -229 b 510 -312 549 -290 532 -312 b 463 -260 489 -312 474 -292 b 444 -149 450 -228 444 -187 z "},"ŧ":{"ha":981,"x_min":0,"x_max":0,"o":"m 118 1028 b 56 965 76 1028 56 1007 l 56 828 b 118 765 56 786 76 765 l 332 765 l 332 639 l 254 639 b 192 576 213 639 192 618 b 254 514 192 535 213 514 l 332 514 l 332 63 b 394 0 332 21 353 0 l 532 0 b 594 63 574 0 594 21 l 594 514 l 657 514 b 719 576 699 514 719 535 b 657 639 719 618 699 639 l 594 639 l 594 765 l 808 765 b 871 828 850 765 871 786 l 871 965 b 808 1028 871 1007 850 1028 z "},"ť":{"ha":981,"x_min":0,"x_max":0,"o":"m 458 1238 l 513 1303 b 578 1332 529 1322 551 1332 l 597 1332 b 626 1268 642 1332 656 1303 l 522 1139 b 460 1110 507 1119 486 1110 l 457 1110 b 393 1139 431 1110 410 1119 l 289 1268 b 318 1332 261 1303 275 1332 l 339 1332 b 403 1303 365 1332 386 1322 z m 394 0 b 332 63 353 0 332 21 l 332 765 l 118 765 b 56 828 76 765 56 786 l 56 965 b 118 1028 56 1007 76 1028 l 808 1028 b 871 965 850 1028 871 1007 l 871 828 b 808 765 871 786 850 765 l 594 765 l 594 63 b 532 0 594 21 574 0 z "},"ţ":{"ha":981,"x_min":0,"x_max":0,"o":"m 394 0 b 332 63 353 0 332 21 l 332 765 l 118 765 b 56 828 76 765 56 786 l 56 965 b 118 1028 56 1007 76 1028 l 808 1028 b 871 965 850 1028 871 1007 l 871 828 b 808 765 871 786 850 765 l 594 765 l 594 63 b 532 0 594 21 574 0 z m 390 -149 b 528 -151 394 -26 529 -31 b 507 -260 528 -189 519 -229 b 456 -312 494 -290 478 -312 b 408 -260 435 -312 419 -292 b 390 -149 396 -228 390 -187 z "},"ŭ":{"ha":1175,"x_min":0,"x_max":0,"o":"m 525 1226 b 603 1285 568 1226 586 1257 b 665 1332 619 1313 633 1339 b 694 1268 697 1325 699 1292 b 633 1151 685 1218 664 1178 b 526 1110 603 1124 565 1110 b 421 1151 492 1110 453 1124 b 356 1268 389 1178 363 1218 b 385 1332 351 1292 353 1325 b 446 1286 417 1338 429 1314 b 518 1226 461 1258 479 1228 z m 1008 482 b 878 132 1007 354 960 226 b 532 -25 794 38 676 -25 b 192 125 393 -25 275 32 b 56 482 108 218 60 344 l 56 965 b 118 1028 56 1007 76 1028 l 256 1028 b 318 965 297 1028 318 1007 l 318 482 b 381 303 318 410 342 347 b 532 231 419 257 472 231 b 682 303 589 231 643 257 b 744 482 721 347 744 410 l 744 965 b 807 1028 744 1007 765 1028 l 946 1028 b 1008 965 988 1028 1008 1007 z "},"ű":{"ha":1175,"x_min":0,"x_max":0,"o":"m 467 1299 b 581 1200 511 1269 553 1233 b 611 1121 608 1167 622 1138 b 579 1108 606 1113 594 1108 b 460 1146 547 1108 507 1122 b 353 1292 413 1168 303 1214 b 467 1299 376 1329 415 1332 z m 1008 482 b 878 132 1007 354 960 226 b 532 -25 794 38 676 -25 b 192 125 393 -25 275 32 b 56 482 108 218 60 344 l 56 965 b 118 1028 56 1007 76 1028 l 256 1028 b 318 965 297 1028 318 1007 l 318 482 b 381 303 318 410 342 347 b 532 231 419 257 472 231 b 682 303 589 231 643 257 b 744 482 721 347 744 410 l 744 965 b 807 1028 744 1007 765 1028 l 946 1028 b 1008 965 988 1028 1008 1007 z "},"ū":{"ha":1175,"x_min":0,"x_max":0,"o":"m 732 1246 b 794 1183 774 1246 794 1225 b 732 1121 794 1142 774 1121 l 329 1121 b 267 1183 288 1121 267 1142 b 329 1246 267 1225 288 1246 z m 1008 482 b 878 132 1007 354 960 226 b 532 -25 794 38 676 -25 b 192 125 393 -25 275 32 b 56 482 108 218 60 344 l 56 965 b 118 1028 56 1007 76 1028 l 256 1028 b 318 965 297 1028 318 1007 l 318 482 b 381 303 318 410 342 347 b 532 231 419 257 472 231 b 682 303 589 231 643 257 b 744 482 721 347 744 410 l 744 965 b 807 1028 744 1007 765 1028 l 946 1028 b 1008 965 988 1028 1008 1007 z "},"ų":{"ha":1175,"x_min":0,"x_max":0,"o":"m 807 1028 b 744 965 765 1028 744 1007 l 744 482 b 682 303 744 410 721 347 b 532 231 643 257 589 231 b 381 303 472 231 419 257 b 318 482 342 347 318 410 l 318 965 b 256 1028 318 1007 297 1028 l 118 1028 b 56 965 76 1028 56 1007 l 56 482 b 192 125 60 344 108 218 b 443 -17 257 53 342 3 b 433 -97 433 -39 429 -65 b 494 -212 439 -146 460 -183 b 718 -222 564 -269 668 -244 b 778 -158 767 -200 782 -186 b 711 -124 772 -131 744 -112 b 639 -142 694 -129 671 -135 b 542 -100 588 -151 553 -128 b 579 -28 529 -72 540 -39 l 606 -19 b 878 132 717 -3 808 54 b 1008 482 960 226 1007 354 l 1008 965 b 946 1028 1008 1007 988 1028 z "},"ů":{"ha":1175,"x_min":0,"x_max":0,"o":"m 533 1106 b 426 1210 474 1106 426 1153 b 533 1318 426 1271 474 1318 b 642 1210 594 1318 642 1271 b 533 1106 642 1153 594 1106 z m 533 1253 b 490 1210 511 1253 490 1233 b 533 1168 490 1188 511 1168 b 576 1210 557 1168 576 1188 b 533 1253 576 1233 557 1253 z m 1008 482 b 878 132 1007 354 960 226 b 532 -25 794 38 676 -25 b 192 125 393 -25 275 32 b 56 482 108 218 60 344 l 56 965 b 118 1028 56 1007 76 1028 l 256 1028 b 318 965 297 1028 318 1007 l 318 482 b 381 303 318 410 342 347 b 532 231 419 257 472 231 b 682 303 589 231 643 257 b 744 482 721 347 744 410 l 744 965 b 807 1028 744 1007 765 1028 l 946 1028 b 1008 965 988 1028 1008 1007 z "},"ũ":{"ha":1175,"x_min":0,"x_max":0,"o":"m 503 1156 b 433 1189 476 1174 461 1182 b 342 1154 393 1199 365 1175 b 269 1126 318 1132 297 1111 b 260 1197 240 1143 249 1175 b 393 1297 289 1258 338 1290 b 564 1247 447 1304 508 1286 b 632 1214 590 1229 604 1224 b 724 1250 672 1204 700 1228 b 796 1276 746 1271 768 1292 b 807 1207 825 1260 817 1229 b 674 1106 775 1144 728 1111 b 503 1156 618 1099 557 1117 z m 1008 482 b 878 132 1007 354 960 226 b 532 -25 794 38 676 -25 b 192 125 393 -25 275 32 b 56 482 108 218 60 344 l 56 965 b 118 1028 56 1007 76 1028 l 256 1028 b 318 965 297 1028 318 1007 l 318 482 b 381 303 318 410 342 347 b 532 231 419 257 472 231 b 682 303 589 231 643 257 b 744 482 721 347 744 410 l 744 965 b 807 1028 744 1007 765 1028 l 946 1028 b 1008 965 988 1028 1008 1007 z "},"ẃ":{"ha":1442,"x_min":0,"x_max":0,"o":"m 757 1299 b 832 1183 861 1365 933 1250 b 699 1118 789 1156 739 1131 b 644 1108 678 1111 660 1108 b 614 1154 613 1108 601 1126 b 694 1251 625 1182 654 1217 b 757 1299 714 1268 735 1283 z m 71 961 b 126 1029 61 1004 82 1029 l 268 1029 b 338 974 306 1029 329 1011 l 433 522 l 557 976 b 626 1029 567 1011 589 1029 l 778 1029 b 847 976 815 1029 838 1011 l 971 525 l 1067 974 b 1136 1029 1075 1011 1099 1029 l 1276 1029 b 1332 961 1321 1029 1342 1004 l 1135 56 b 1065 0 1126 18 1103 0 l 904 0 b 835 53 867 0 844 18 l 703 536 l 571 53 b 500 0 560 18 536 0 l 339 0 b 269 56 301 0 278 18 z "},"ŵ":{"ha":1442,"x_min":0,"x_max":0,"o":"m 699 1204 l 643 1139 b 579 1110 626 1119 606 1110 l 558 1110 b 529 1174 515 1110 501 1139 l 633 1303 b 697 1332 650 1322 671 1332 l 700 1332 b 763 1303 726 1332 747 1322 l 867 1174 b 838 1110 896 1139 882 1110 l 818 1110 b 753 1139 792 1110 769 1119 z m 71 961 b 126 1029 61 1004 82 1029 l 268 1029 b 338 974 306 1029 329 1011 l 433 522 l 557 976 b 626 1029 567 1011 589 1029 l 778 1029 b 847 976 815 1029 838 1011 l 971 525 l 1067 974 b 1136 1029 1075 1011 1099 1029 l 1276 1029 b 1332 961 1321 1029 1342 1004 l 1135 56 b 1065 0 1126 18 1103 0 l 904 0 b 835 53 867 0 844 18 l 703 536 l 571 53 b 500 0 560 18 536 0 l 339 0 b 269 56 301 0 278 18 z "},"ẅ":{"ha":1442,"x_min":0,"x_max":0,"o":"m 568 1114 b 479 1204 519 1114 479 1154 b 568 1294 479 1254 519 1294 b 658 1204 618 1294 658 1254 b 568 1114 658 1154 618 1114 z m 836 1114 b 747 1204 788 1114 747 1154 b 836 1294 747 1254 788 1294 b 926 1204 886 1294 926 1254 b 836 1114 926 1154 886 1114 z m 71 961 b 126 1029 61 1004 82 1029 l 268 1029 b 338 974 306 1029 329 1011 l 433 522 l 557 976 b 626 1029 567 1011 589 1029 l 778 1029 b 847 976 815 1029 838 1011 l 971 525 l 1067 974 b 1136 1029 1075 1011 1099 1029 l 1276 1029 b 1332 961 1321 1029 1342 1004 l 1135 56 b 1065 0 1126 18 1103 0 l 904 0 b 835 53 867 0 844 18 l 703 536 l 571 53 b 500 0 560 18 536 0 l 339 0 b 269 56 301 0 278 18 z "},"ẁ":{"ha":1442,"x_min":0,"x_max":0,"o":"m 663 1299 b 776 1200 707 1269 749 1233 b 807 1121 804 1167 818 1138 b 775 1108 801 1113 790 1108 b 656 1146 743 1108 703 1122 b 549 1292 608 1168 499 1214 b 663 1299 572 1329 611 1332 z m 71 961 b 126 1029 61 1004 82 1029 l 268 1029 b 338 974 306 1029 329 1011 l 433 522 l 557 976 b 626 1029 567 1011 589 1029 l 778 1029 b 847 976 815 1029 838 1011 l 971 525 l 1067 974 b 1136 1029 1075 1011 1099 1029 l 1276 1029 b 1332 961 1321 1029 1342 1004 l 1135 56 b 1065 0 1126 18 1103 0 l 904 0 b 835 53 867 0 844 18 l 703 536 l 571 53 b 500 0 560 18 536 0 l 339 0 b 269 56 301 0 278 18 z "},"ý":{"ha":1051,"x_min":0,"x_max":0,"o":"m 575 1299 b 650 1183 679 1365 751 1250 b 517 1118 607 1156 557 1131 b 463 1108 496 1111 478 1108 b 432 1154 431 1108 419 1126 b 513 1251 443 1182 472 1217 b 575 1299 532 1268 553 1283 z m 447 0 b 385 63 406 0 385 21 l 385 478 l 89 953 b 131 1028 63 996 79 1028 l 296 1028 b 371 986 328 1028 353 1014 l 515 754 l 660 986 b 735 1028 678 1014 703 1028 l 900 1028 b 942 953 951 1028 969 996 l 647 478 l 647 63 b 585 0 647 21 626 0 z "},"ŷ":{"ha":1051,"x_min":0,"x_max":0,"o":"m 510 1204 l 454 1139 b 390 1110 438 1119 417 1110 l 369 1110 b 340 1174 326 1110 313 1139 l 444 1303 b 508 1332 461 1322 482 1332 l 511 1332 b 574 1303 538 1332 558 1322 l 678 1174 b 649 1110 707 1139 693 1110 l 629 1110 b 564 1139 603 1110 581 1119 z m 447 0 b 385 63 406 0 385 21 l 385 478 l 89 953 b 131 1028 63 996 79 1028 l 296 1028 b 371 986 328 1028 353 1014 l 515 754 l 660 986 b 735 1028 678 1014 703 1028 l 900 1028 b 942 953 951 1028 969 996 l 647 478 l 647 63 b 585 0 647 21 626 0 z "},"ỳ":{"ha":1051,"x_min":0,"x_max":0,"o":"m 457 1299 b 571 1200 501 1269 543 1233 b 601 1121 599 1167 613 1138 b 569 1108 596 1113 585 1108 b 450 1146 538 1108 497 1122 b 343 1292 403 1168 293 1214 b 457 1299 367 1329 406 1332 z m 447 0 b 385 63 406 0 385 21 l 385 478 l 89 953 b 131 1028 63 996 79 1028 l 296 1028 b 371 986 328 1028 353 1014 l 515 754 l 660 986 b 735 1028 678 1014 703 1028 l 900 1028 b 942 953 951 1028 969 996 l 647 478 l 647 63 b 585 0 647 21 626 0 z "},"ź":{"ha":956,"x_min":0,"x_max":0,"o":"m 492 1299 b 567 1183 596 1365 668 1250 b 433 1118 524 1156 474 1131 b 379 1108 413 1111 394 1108 b 349 1154 347 1108 336 1126 b 429 1251 360 1182 389 1217 b 492 1299 449 1268 469 1283 z m 118 0 b 56 63 76 0 56 21 l 56 171 b 82 249 56 203 61 222 l 467 765 l 139 765 b 76 828 97 765 76 786 l 76 965 b 139 1028 76 1007 97 1028 l 735 1028 b 797 965 776 1028 797 1007 l 797 858 b 772 781 797 829 789 804 l 399 263 l 756 263 b 818 200 797 263 818 242 l 818 63 b 756 0 818 21 797 0 z "},"ž":{"ha":956,"x_min":0,"x_max":0,"o":"m 451 1238 l 506 1303 b 571 1332 522 1322 544 1332 l 590 1332 b 619 1268 635 1332 649 1303 l 515 1139 b 453 1110 500 1119 479 1110 l 450 1110 b 386 1139 424 1110 403 1119 l 282 1268 b 311 1332 254 1303 268 1332 l 332 1332 b 396 1303 358 1332 379 1322 z m 118 0 b 56 63 76 0 56 21 l 56 171 b 82 249 56 203 61 222 l 467 765 l 139 765 b 76 828 97 765 76 786 l 76 965 b 139 1028 76 1007 97 1028 l 735 1028 b 797 965 776 1028 797 1007 l 797 858 b 772 781 797 829 789 804 l 399 263 l 756 263 b 818 200 797 263 818 242 l 818 63 b 756 0 818 21 797 0 z "},"ż":{"ha":956,"x_min":0,"x_max":0,"o":"m 446 1114 b 357 1204 397 1114 357 1154 b 446 1294 357 1254 397 1294 b 536 1204 496 1294 536 1254 b 446 1114 536 1154 496 1114 z m 118 0 b 56 63 76 0 56 21 l 56 171 b 82 249 56 203 61 222 l 467 765 l 139 765 b 76 828 97 765 76 786 l 76 965 b 139 1028 76 1007 97 1028 l 735 1028 b 797 965 776 1028 797 1007 l 797 858 b 772 781 797 829 789 804 l 399 263 l 756 263 b 818 200 797 263 818 242 l 818 63 b 756 0 818 21 797 0 z "}}}
